<svg width="48" height="48" viewBox="0 0 48 48" fill="none" xmlns="http://www.w3.org/2000/svg">
<circle cx="24" cy="24" r="24" fill="#ECEFF1"/>
<path d="M24.9974 13.3621C23.0031 13.3621 21.0536 13.9534 19.3954 15.0614C17.7372 16.1694 16.4448 17.7442 15.6816 19.5867C14.9184 21.4292 14.7187 23.4566 15.1078 25.4126C15.4969 27.3685 16.4572 29.1652 17.8674 30.5754C19.2776 31.9856 21.0743 32.9459 23.0302 33.335C24.9862 33.724 27.0136 33.5244 28.8561 32.7612C30.6986 31.998 32.2734 30.7056 33.3814 29.0474C34.4894 27.3892 35.0807 25.4397 35.0807 23.4454C35.0776 20.7721 34.0142 18.2092 32.1239 16.3189C30.2336 14.4286 27.6707 13.3652 24.9974 13.3621ZM24.9974 31.6954C23.3657 31.6954 21.7707 31.2115 20.4139 30.305C19.0572 29.3985 17.9998 28.11 17.3754 26.6025C16.751 25.095 16.5876 23.4362 16.9059 21.8359C17.2242 20.2356 18.01 18.7655 19.1638 17.6118C20.3176 16.458 21.7876 15.6722 23.3879 15.3539C24.9882 15.0356 26.647 15.199 28.1545 15.8234C29.662 16.4478 30.9505 17.5052 31.857 18.8619C32.7635 20.2186 33.2474 21.8137 33.2474 23.4454C33.2447 25.6326 32.3747 27.7295 30.8281 29.2761C29.2815 30.8227 27.1846 31.6927 24.9974 31.6954Z" fill="#37474F"/>
<path d="M25.9193 23.0657V17.9452C25.9193 17.7021 25.8227 17.469 25.6508 17.2971C25.4789 17.1251 25.2457 17.0286 25.0026 17.0286C24.7595 17.0286 24.5263 17.1251 24.3544 17.2971C24.1825 17.469 24.0859 17.7021 24.0859 17.9452V23.4452C24.086 23.6883 24.1826 23.9214 24.3545 24.0933L27.1045 26.8433C27.2774 27.0103 27.509 27.1027 27.7493 27.1006C27.9897 27.0985 28.2196 27.0021 28.3895 26.8321C28.5595 26.6622 28.6559 26.4323 28.658 26.1919C28.6601 25.9516 28.5677 25.72 28.4007 25.5471L25.9193 23.0657Z" fill="#37474F"/>
</svg>
