<svg width="25" height="25" viewBox="0 0 25 25" fill="none" xmlns="http://www.w3.org/2000/svg">
<path d="M12.5063 1.05469C10.385 1.05469 8.31148 1.69983 6.54776 2.90852C4.78405 4.11722 3.4094 5.83518 2.59765 7.84517C1.7859 9.85516 1.57351 12.0669 1.98733 14.2007C2.40116 16.3345 3.42262 18.2945 4.92253 19.8329C6.42245 21.3712 8.33347 22.4189 10.4139 22.8433C12.4944 23.2678 14.6508 23.0499 16.6105 22.2174C18.5703 21.3848 20.2453 19.9749 21.4238 18.166C22.6022 16.357 23.2313 14.2303 23.2313 12.0547C23.2279 9.13836 22.0969 6.34247 20.0863 4.28031C18.0757 2.21816 15.3497 1.05813 12.5063 1.05469ZM16.1206 15.7617C15.9377 15.9492 15.6898 16.0545 15.4313 16.0545C15.1727 16.0545 14.9248 15.9492 14.7419 15.7617L11.8169 12.7617C11.6341 12.5742 11.5313 12.3199 11.5313 12.0547V6.05469C11.5313 5.78947 11.634 5.53512 11.8168 5.34758C11.9997 5.16005 12.2477 5.05469 12.5063 5.05469C12.7648 5.05469 13.0128 5.16005 13.1957 5.34758C13.3785 5.53512 13.4813 5.78947 13.4813 6.05469V11.6407L16.1206 14.3477C16.3034 14.5352 16.406 14.7895 16.406 15.0547C16.406 15.3199 16.3034 15.5742 16.1206 15.7617Z" fill="#607D8B"/>
</svg>
