<svg width="22" height="22" viewBox="0 0 22 22" fill="none" xmlns="http://www.w3.org/2000/svg">
<mask id="mask0_946_11311" style="mask-type:luminance" maskUnits="userSpaceOnUse" x="0" y="0" width="22" height="22">
<path d="M0.757812 0.960938H21.7578V21.9609H0.757812V0.960938Z" fill="white"/>
</mask>
<g mask="url(#mask0_946_11311)">
<path d="M1.9233 6.5571C1.58061 6.32877 1.375 5.94457 1.375 5.53306V5.53204C1.375 4.80454 1.9648 4.21478 2.69234 4.21478H19.8272C20.5546 4.21478 21.1445 4.80454 21.1445 5.53204V5.53269V5.53306C21.1445 5.94457 20.9389 6.32877 20.5962 6.5571C18.924 7.67211 13.8854 11.0309 11.9909 12.2942C11.5481 12.5894 10.9714 12.5894 10.5286 12.2942C8.63403 11.0309 3.59546 7.67211 1.9233 6.5571Z" stroke="#E34061" stroke-width="1.5" stroke-miterlimit="10" stroke-linecap="round" stroke-linejoin="round"/>
<path d="M1.375 5.5313V17.393C1.375 17.7426 1.51371 18.0777 1.76116 18.3248C2.00828 18.5722 2.34338 18.7109 2.69296 18.7109H19.8265C20.1761 18.7109 20.5112 18.5722 20.7583 18.3248C21.0057 18.0777 21.1444 17.7426 21.1444 17.393V5.5313" stroke="#E34061" stroke-width="1.5" stroke-miterlimit="10" stroke-linecap="round" stroke-linejoin="round"/>
</g>
</svg>
