<svg width="100" height="100" viewBox="0 0 100 100" fill="none" xmlns="http://www.w3.org/2000/svg">
<circle cx="50" cy="50" r="50" fill="#E8F6F5"/>
<g clip-path="url(#clip0_1_2)">
<path d="M58.5234 49.9023C55.6739 49.9023 53.1241 51.1956 51.3832 53.2349L45.3531 49.426C45.6619 48.5563 45.8571 47.631 45.8571 46.6521C45.8571 46.0115 45.7677 45.3973 45.6315 44.7986L53.6471 41.0025C54.808 42.4563 56.5488 43.402 58.5239 43.402C62.0199 43.402 64.8571 40.4917 64.8571 36.9022C64.8571 33.3127 62.0194 30.4023 58.5234 30.4023C55.0246 30.4023 52.1903 33.3127 52.1903 36.9022C52.1903 37.2986 52.2382 37.6831 52.3028 38.0575L44.2966 41.8503C42.8541 39.8447 40.5546 38.5275 37.9402 38.5275C33.5674 38.5275 30.0234 42.1642 30.0234 46.6522C30.0234 51.1401 33.5674 54.7773 37.9403 54.7773C40.216 54.7773 42.2542 53.7775 43.6982 52.197L49.7193 55.9995C49.2737 57.1291 49.0234 58.359 49.0234 59.6523C49.0234 65.0383 53.2756 69.4023 58.5234 69.4023C63.7684 69.4023 68.0234 65.0383 68.0234 59.6523C68.0234 54.2664 63.7684 49.9023 58.5234 49.9023ZM58.5234 33.6525C60.2691 33.6525 61.6903 35.1092 61.6903 36.9027C61.6903 38.6957 60.2691 40.1523 58.5234 40.1523C56.7778 40.1523 55.3566 38.6957 55.3566 36.9022C55.3566 35.1092 56.7778 33.6525 58.5234 33.6525ZM37.9403 51.5272C35.3206 51.5272 33.1903 49.3408 33.1903 46.6522C33.1903 43.9641 35.3206 41.7772 37.9403 41.7772C40.5594 41.7772 42.6903 43.9641 42.6903 46.6522C42.6903 49.3408 40.5594 51.5272 37.9403 51.5272ZM58.5234 66.1522C55.0303 66.1522 52.1903 63.2375 52.1903 59.6523C52.1903 56.0673 55.0302 53.1525 58.5234 53.1525C62.0166 53.1525 64.8566 56.0672 64.8566 59.6523C64.8566 63.2374 62.0165 66.1522 58.5234 66.1522Z" fill="#00968A"/>
</g>
<defs>
<clipPath id="clip0_1_2">
<rect width="38" height="39" fill="white" transform="translate(30.0234 30.4023)"/>
</clipPath>
</defs>
</svg>
