<svg width="26" height="17" viewBox="0 0 26 17" fill="none" xmlns="http://www.w3.org/2000/svg">
<path d="M13.3547 12.9351C10.8758 12.9351 8.78125 10.841 8.78125 8.36209C8.78125 5.88319 10.8758 3.78906 13.3547 3.78906C15.8336 3.78906 17.9282 5.88319 17.9282 8.36209C17.9282 10.841 15.8336 12.9351 13.3547 12.9351ZM13.3547 5.55812C11.8342 5.55812 10.5503 6.84202 10.5503 8.36209C10.5503 9.88215 11.8342 11.1661 13.3547 11.1661C14.8752 11.1661 16.1591 9.88215 16.1591 8.36209C16.1591 6.84202 14.8752 5.55812 13.3547 5.55812Z" fill="#37474F"/>
<path d="M1.85294 9.24694C1.72424 9.24694 1.59333 9.21864 1.46993 9.15937C1.02988 8.94753 0.844571 8.41902 1.05642 7.97853C1.73485 6.56903 2.64282 5.29663 3.75468 4.19671C6.93368 1.05176 11.6297 -0.360389 16.009 0.511316C20.1955 1.34499 23.7986 4.13657 25.6481 7.97853C25.86 8.41902 25.6751 8.94709 25.2346 9.15937C24.7955 9.37078 24.2661 9.18635 24.0542 8.74586C22.4439 5.40189 19.3078 2.97208 15.6631 2.24632C11.8539 1.48784 7.76602 2.71601 4.99833 5.45407C4.03065 6.41114 3.24077 7.51857 2.6499 8.74586C2.4982 9.06252 2.18198 9.24694 1.85294 9.24694Z" fill="#37474F"/>
<path d="M13.2878 16.4697C12.4209 16.4697 11.5523 16.3866 10.6961 16.2159C6.50918 15.3818 2.90605 12.5902 1.05649 8.74867C0.844646 8.30818 1.02951 7.78011 1.47001 7.56782C1.90962 7.35686 2.43901 7.54085 2.65042 7.98134C4.2607 11.3253 7.39681 13.7551 11.0415 14.4809C14.8508 15.2398 18.9386 14.0112 21.7063 11.2731C22.674 10.3161 23.4639 9.20863 24.0547 7.98134C24.2666 7.54129 24.796 7.35731 25.2351 7.56782C25.6752 7.77967 25.8605 8.30818 25.6487 8.74867C24.9702 10.1582 24.0623 11.4306 22.9504 12.5305C20.3928 15.0607 16.8533 16.4697 13.2878 16.4697Z" fill="#37474F"/>
</svg>
