<svg width="27" height="15" viewBox="0 0 27 15" fill="none" xmlns="http://www.w3.org/2000/svg">
<path d="M23.9626 0.281251C23.6173 0.281305 23.2773 0.368198 22.972 0.534342C22.6667 0.700486 22.4055 0.940806 22.2109 1.23451C22.0164 1.52821 21.8944 1.86633 21.8557 2.21958C21.817 2.57277 21.8626 2.93039 21.9887 3.26137L17.5258 7.85544C17.0283 7.65382 16.4751 7.65382 15.9776 7.85544L12.7873 4.57131C12.9137 4.24028 12.9595 3.8825 12.9209 3.52909C12.8823 3.17568 12.7604 2.83727 12.5658 2.54341C12.3713 2.24955 12.1099 2.00901 11.8045 1.84281C11.4991 1.67661 11.1588 1.58972 10.8133 1.58972C10.4678 1.58972 10.1276 1.67661 9.82214 1.84281C9.51674 2.00901 9.25534 2.24955 9.06081 2.54341C8.86622 2.83727 8.74432 3.17568 8.70572 3.52909C8.66717 3.8825 8.71299 4.24028 8.83934 4.57131L3.52818 10.0387C3.07459 9.8555 2.57357 9.83869 2.10937 9.99103C1.64516 10.1434 1.24607 10.4557 0.979208 10.8753C0.712346 11.295 0.593986 11.7965 0.644033 12.2953C0.694075 12.7942 0.909475 13.2602 1.254 13.6149C1.59853 13.9695 2.05118 14.1913 2.53584 14.2428C3.0205 14.2943 3.50762 14.1725 3.91527 13.8978C4.32293 13.6231 4.62627 13.2122 4.77429 12.7344C4.92231 12.2565 4.90599 11.7407 4.72806 11.2738L10.0392 5.80647C10.5367 6.00804 11.0899 6.00804 11.5874 5.80647L14.7777 9.09061C14.6514 9.42159 14.6056 9.77936 14.6441 10.1328C14.6827 10.4862 14.8046 10.8246 14.9992 11.1185C15.1937 11.4123 15.4551 11.6529 15.7605 11.8191C16.066 11.9852 16.4062 12.0721 16.7517 12.0721C17.0972 12.0721 17.4375 11.9852 17.7429 11.8191C18.0483 11.6529 18.3097 11.4123 18.5042 11.1185C18.6988 10.8246 18.8207 10.4862 18.8593 10.1328C18.8979 9.77936 18.8521 9.42159 18.7257 9.09061L23.1885 4.49653C23.4789 4.61394 23.791 4.66399 24.1023 4.64303C24.4136 4.62212 24.7167 4.5307 24.9898 4.37536C25.2629 4.22003 25.4993 4.0046 25.6822 3.74435C25.8652 3.48417 25.99 3.18561 26.048 2.87002C26.1059 2.55444 26.0955 2.22952 26.0175 1.91857C25.9395 1.60757 25.7958 1.31812 25.5966 1.07087C25.3975 0.823621 25.1478 0.624674 24.8653 0.488167C24.5829 0.35166 24.2747 0.281032 23.9626 0.281251Z" fill="#37474F"/>
</svg>
