<svg width="18" height="18" viewBox="0 0 18 18" fill="none" xmlns="http://www.w3.org/2000/svg">
<g clip-path="url(#clip0_913_7988)">
<path d="M11.3515 2.94922L1.9979 12.3035C1.95084 12.3507 1.91687 12.4103 1.90069 12.4744L1.71392 15.7857C1.68291 15.911 1.71972 16.0442 1.81114 16.1356C1.88031 16.2048 1.97456 16.2431 2.07097 16.2431C2.1005 16.2431 2.13071 16.2394 2.1601 16.232L5.47144 16.0451C5.5363 16.0289 5.59522 15.9951 5.64228 15.948L14.9967 6.5944L11.3515 2.94922Z" fill="#37474F"/>
<path d="M17.3111 1.67225L16.2699 0.631042C15.574 -0.0648512 14.3611 -0.064177 13.666 0.631042L12.3906 1.90647L16.0357 5.55151L17.3111 4.27609C17.6587 3.92862 17.8502 3.46612 17.8502 2.97424C17.8502 2.48235 17.6587 2.01986 17.3111 1.67225Z" fill="#37474F"/>
</g>
<defs>
<clipPath id="clip0_913_7988">
<rect width="17" height="17" fill="white" transform="translate(0.851562 0.09375)"/>
</clipPath>
</defs>
</svg>
