<svg width="25" height="25" viewBox="0 0 25 25" fill="none" xmlns="http://www.w3.org/2000/svg">
<path d="M18.3516 12.9609C16.5519 12.9609 14.9415 13.7568 13.842 15.0117L10.0335 12.6678C10.2285 12.1326 10.3518 11.5632 10.3518 10.9608C10.3518 10.5666 10.2953 10.1886 10.2093 9.8202L15.2718 7.48412C16.0049 8.37873 17.1045 8.96074 18.3519 8.96074C20.5598 8.96074 22.3518 7.16977 22.3518 4.96084C22.3518 2.75191 20.5596 0.960938 18.3516 0.960938C16.1418 0.960938 14.3517 2.75191 14.3517 4.96084C14.3517 5.20477 14.382 5.44143 14.4227 5.67182L9.36621 8.00584C8.45514 6.77162 7.00283 5.96104 5.3516 5.96104C2.58984 5.96104 0.351562 8.19902 0.351562 10.9608C0.351562 13.7227 2.58984 15.9609 5.35166 15.9609C6.78896 15.9609 8.07627 15.3456 8.98828 14.373L12.7911 16.713C12.5096 17.4081 12.3516 18.1651 12.3516 18.9609C12.3516 22.2754 15.0371 24.9609 18.3516 24.9609C21.6642 24.9609 24.3516 22.2754 24.3516 18.9609C24.3516 15.6465 21.6642 12.9609 18.3516 12.9609ZM18.3516 2.96104C19.4541 2.96104 20.3517 3.85746 20.3517 4.96113C20.3517 6.06451 19.4541 6.96094 18.3516 6.96094C17.2491 6.96094 16.3515 6.06451 16.3515 4.96084C16.3515 3.85746 17.2491 2.96104 18.3516 2.96104ZM5.35166 13.9608C3.69715 13.9608 2.35166 12.6154 2.35166 10.9608C2.35166 9.30662 3.69715 7.96084 5.35166 7.96084C7.00588 7.96084 8.35166 9.30662 8.35166 10.9608C8.35166 12.6154 7.00588 13.9608 5.35166 13.9608ZM18.3516 22.9608C16.1454 22.9608 14.3517 21.1672 14.3517 18.9609C14.3517 16.7548 16.1453 14.961 18.3516 14.961C20.5578 14.961 22.3515 16.7547 22.3515 18.9609C22.3515 21.1671 20.5577 22.9608 18.3516 22.9608Z" fill="#37474F"/>
</svg>
