<svg width="48" height="48" viewBox="0 0 48 48" fill="none" xmlns="http://www.w3.org/2000/svg">
<circle cx="24" cy="24" r="24" fill="#ECEFF1"/>
<mask id="path-2-outside-1_235_5815" maskUnits="userSpaceOnUse" x="14.6953" y="12" width="20" height="24" fill="black">
<rect fill="white" x="14.6953" y="12" width="20" height="24"/>
<path fill-rule="evenodd" clip-rule="evenodd" d="M25.0002 13C27.4856 13 29.8223 13.9679 31.5797 15.7253C33.3372 17.4829 34.305 19.8195 34.3051 22.3049C34.3051 27.3327 29.5512 31.5145 26.9972 33.7613L26.9971 33.7613L26.995 33.7632C26.6409 34.0746 26.3352 34.3436 26.0914 34.5713C25.7855 34.857 25.3929 35 25.0002 35C24.6076 35 24.2149 34.857 23.9089 34.5713C23.6647 34.3432 23.3582 34.0735 23.0033 33.7613C20.4493 31.5147 15.6953 27.3327 15.6953 22.3049C15.6953 19.8195 16.6632 17.4829 18.4207 15.7253C20.1781 13.9679 22.5148 13 25.0002 13ZM25.2117 33.6296C25.4699 33.3884 25.7831 33.1128 26.1458 32.7938C28.5469 30.6816 33.0163 26.75 33.0163 22.3049C33.0163 17.8848 29.4202 14.2888 25.0001 14.2888C20.58 14.2888 16.9839 17.8848 16.9839 22.3049C16.9839 26.75 21.4534 30.6816 23.8544 32.7937L23.8564 32.7955C24.2183 33.1138 24.5309 33.3887 24.7886 33.6296C24.9073 33.7403 25.0931 33.7403 25.2117 33.6296ZM20.8984 21.9534C20.8984 19.6923 22.7379 17.8528 24.999 17.8528C27.2601 17.8528 29.0995 19.6923 29.0995 21.9534C29.0995 24.2144 27.2601 26.0539 24.999 26.0539C22.7379 26.0539 20.8984 24.2144 20.8984 21.9534ZM22.1872 21.9533C22.1872 23.5037 23.4486 24.7651 24.999 24.7651C26.5494 24.7651 27.8108 23.5037 27.8108 21.9533C27.8108 20.4029 26.5494 19.1415 24.999 19.1415C23.4486 19.1415 22.1872 20.4029 22.1872 21.9533Z"/>
</mask>
<path fill-rule="evenodd" clip-rule="evenodd" d="M25.0002 13C27.4856 13 29.8223 13.9679 31.5797 15.7253C33.3372 17.4829 34.305 19.8195 34.3051 22.3049C34.3051 27.3327 29.5512 31.5145 26.9972 33.7613L26.9971 33.7613L26.995 33.7632C26.6409 34.0746 26.3352 34.3436 26.0914 34.5713C25.7855 34.857 25.3929 35 25.0002 35C24.6076 35 24.2149 34.857 23.9089 34.5713C23.6647 34.3432 23.3582 34.0735 23.0033 33.7613C20.4493 31.5147 15.6953 27.3327 15.6953 22.3049C15.6953 19.8195 16.6632 17.4829 18.4207 15.7253C20.1781 13.9679 22.5148 13 25.0002 13ZM25.2117 33.6296C25.4699 33.3884 25.7831 33.1128 26.1458 32.7938C28.5469 30.6816 33.0163 26.75 33.0163 22.3049C33.0163 17.8848 29.4202 14.2888 25.0001 14.2888C20.58 14.2888 16.9839 17.8848 16.9839 22.3049C16.9839 26.75 21.4534 30.6816 23.8544 32.7937L23.8564 32.7955C24.2183 33.1138 24.5309 33.3887 24.7886 33.6296C24.9073 33.7403 25.0931 33.7403 25.2117 33.6296ZM20.8984 21.9534C20.8984 19.6923 22.7379 17.8528 24.999 17.8528C27.2601 17.8528 29.0995 19.6923 29.0995 21.9534C29.0995 24.2144 27.2601 26.0539 24.999 26.0539C22.7379 26.0539 20.8984 24.2144 20.8984 21.9534ZM22.1872 21.9533C22.1872 23.5037 23.4486 24.7651 24.999 24.7651C26.5494 24.7651 27.8108 23.5037 27.8108 21.9533C27.8108 20.4029 26.5494 19.1415 24.999 19.1415C23.4486 19.1415 22.1872 20.4029 22.1872 21.9533Z" fill="#37474F"/>
<path d="M31.5797 15.7253L31.7212 15.5839L31.7212 15.5839L31.5797 15.7253ZM34.3051 22.3049L34.5051 22.3049L34.5051 22.3049L34.3051 22.3049ZM26.9972 33.7613L26.8651 33.6111L26.8648 33.6113L26.9972 33.7613ZM26.9971 33.7613L27.1292 33.9115L27.1294 33.9113L26.9971 33.7613ZM26.995 33.7632L27.1271 33.9134L27.1271 33.9133L26.995 33.7632ZM26.0914 34.5713L26.228 34.7174L26.228 34.7174L26.0914 34.5713ZM23.9089 34.5713L24.0455 34.4251L24.0455 34.4251L23.9089 34.5713ZM23.0033 33.7613L22.8712 33.9115L22.8712 33.9115L23.0033 33.7613ZM18.4207 15.7253L18.5621 15.8668L18.4207 15.7253ZM26.1458 32.7938L26.2779 32.9439L26.2779 32.9439L26.1458 32.7938ZM25.2117 33.6296L25.3482 33.7758L25.3482 33.7757L25.2117 33.6296ZM33.0163 22.3049L32.8163 22.3049L32.8163 22.3049L33.0163 22.3049ZM23.8544 32.7937L23.9866 32.6436L23.9865 32.6436L23.8544 32.7937ZM23.8564 32.7955L23.7243 32.9456L23.7243 32.9456L23.8564 32.7955ZM24.7886 33.6296L24.652 33.7757L24.6521 33.7758L24.7886 33.6296ZM31.7212 15.5839C29.9262 13.7889 27.5387 12.8 25.0002 12.8V13.2C27.4326 13.2 29.7184 14.1468 31.4383 15.8668L31.7212 15.5839ZM34.5051 22.3049C34.505 19.7665 33.5161 17.3789 31.7212 15.5839L31.4383 15.8668C33.1583 17.5868 34.105 19.8725 34.1051 22.3049L34.5051 22.3049ZM27.1293 33.9114C28.4051 32.7891 30.2462 31.1702 31.7672 29.1981C33.2874 27.2272 34.5051 24.882 34.5051 22.3049H34.1051C34.1051 24.7556 32.9458 27.0152 31.4505 28.9538C29.9562 30.8913 28.1432 32.4867 26.8651 33.6111L27.1293 33.9114ZM27.1294 33.9113L27.1295 33.9112L26.8648 33.6113L26.8647 33.6114L27.1294 33.9113ZM27.1271 33.9133L27.1292 33.9115L26.8649 33.6112L26.8628 33.613L27.1271 33.9133ZM26.228 34.7174C26.469 34.4922 26.7722 34.2255 27.1271 33.9134L26.8629 33.613C26.5096 33.9238 26.2013 34.1949 25.9549 34.4251L26.228 34.7174ZM25.0002 35.2C25.4412 35.2 25.8833 35.0393 26.228 34.7174L25.9549 34.4251C25.6876 34.6747 25.3445 34.8 25.0002 34.8V35.2ZM23.7724 34.7174C24.117 35.0393 24.5592 35.2 25.0002 35.2V34.8C24.6559 34.8 24.3127 34.6747 24.0455 34.4251L23.7724 34.7174ZM22.8712 33.9115C23.2269 34.2244 23.5309 34.4918 23.7724 34.7174L24.0455 34.4251C23.7986 34.1945 23.4896 33.9227 23.1354 33.6112L22.8712 33.9115ZM15.4953 22.3049C15.4953 24.882 16.713 27.2272 18.2332 29.1982C19.7543 31.1703 21.5954 32.7892 22.8712 33.9115L23.1354 33.6112C21.8573 32.4868 20.0443 30.8914 18.5499 28.9539C17.0546 27.0153 15.8953 24.7556 15.8953 22.3049H15.4953ZM18.2792 15.5839C16.4843 17.3789 15.4953 19.7665 15.4953 22.3049H15.8953C15.8953 19.8725 16.8421 17.5868 18.5621 15.8668L18.2792 15.5839ZM25.0002 12.8C22.4618 12.8 20.0742 13.7889 18.2792 15.5839L18.5621 15.8668C20.282 14.1468 22.5679 13.2 25.0002 13.2V12.8ZM26.0138 32.6436C25.6518 32.962 25.3361 33.2397 25.0752 33.4834L25.3482 33.7757C25.6038 33.537 25.9145 33.2636 26.2779 32.9439L26.0138 32.6436ZM32.8163 22.3049C32.8163 24.4615 31.7307 26.512 30.3243 28.3005C28.9197 30.0867 27.2155 31.5864 26.0137 32.6436L26.2779 32.9439C27.4773 31.8889 29.2083 30.3668 30.6387 28.5478C32.0672 26.7312 33.2163 24.5933 33.2163 22.3049L32.8163 22.3049ZM25.0001 14.4888C29.3098 14.4888 32.8163 17.9952 32.8163 22.3049H33.2163C33.2163 17.7743 29.5307 14.0888 25.0001 14.0888V14.4888ZM17.1839 22.3049C17.1839 17.9952 20.6904 14.4888 25.0001 14.4888V14.0888C20.4695 14.0888 16.7839 17.7743 16.7839 22.3049H17.1839ZM23.9865 32.6436C22.7848 31.5864 21.0806 30.0867 19.676 28.3005C18.2696 26.512 17.1839 24.4615 17.1839 22.3049H16.7839C16.7839 24.5933 17.933 26.7312 19.3616 28.5478C20.792 30.3668 22.523 31.8889 23.7224 32.9439L23.9865 32.6436ZM23.9885 32.6453L23.9866 32.6436L23.7223 32.9439L23.7243 32.9456L23.9885 32.6453ZM24.9251 33.4834C24.6647 33.2401 24.3496 32.9629 23.9885 32.6453L23.7243 32.9456C24.0869 33.2646 24.397 33.5373 24.652 33.7757L24.9251 33.4834ZM25.0752 33.4833C25.0334 33.5224 24.9669 33.5224 24.9251 33.4833L24.6521 33.7758C24.8477 33.9583 25.1527 33.9582 25.3482 33.7758L25.0752 33.4833ZM24.999 17.6528C22.6275 17.6528 20.6984 19.5818 20.6984 21.9534H21.0984C21.0984 19.8028 22.8484 18.0528 24.999 18.0528V17.6528ZM29.2995 21.9534C29.2995 19.5818 27.3705 17.6528 24.999 17.6528V18.0528C27.1496 18.0528 28.8995 19.8028 28.8995 21.9534H29.2995ZM24.999 26.2539C27.3705 26.2539 29.2995 24.3249 29.2995 21.9534H28.8995C28.8995 24.104 27.1496 25.8539 24.999 25.8539V26.2539ZM20.6984 21.9534C20.6984 24.3249 22.6275 26.2539 24.999 26.2539V25.8539C22.8484 25.8539 21.0984 24.104 21.0984 21.9534H20.6984ZM24.999 24.5651C23.559 24.5651 22.3872 23.3933 22.3872 21.9533H21.9872C21.9872 23.6142 23.3381 24.9651 24.999 24.9651V24.5651ZM27.6108 21.9533C27.6108 23.3933 26.439 24.5651 24.999 24.5651V24.9651C26.6599 24.9651 28.0108 23.6142 28.0108 21.9533H27.6108ZM24.999 19.3415C26.439 19.3415 27.6108 20.5134 27.6108 21.9533H28.0108C28.0108 20.2925 26.6599 18.9415 24.999 18.9415V19.3415ZM22.3872 21.9533C22.3872 20.5134 23.559 19.3415 24.999 19.3415V18.9415C23.3381 18.9415 21.9872 20.2925 21.9872 21.9533H22.3872Z" fill="#37474F" mask="url(#path-2-outside-1_235_5815)"/>
</svg>
