<svg width="21" height="21" viewBox="0 0 21 21" fill="none" xmlns="http://www.w3.org/2000/svg">
<g clip-path="url(#clip0_946_11321)">
<path d="M18.7875 14.8925C18.7544 14.8642 15.0069 12.1119 13.995 12.2803C13.5069 12.3693 13.2281 12.7132 12.6688 13.4009C12.5788 13.5119 12.3619 13.7771 12.1944 13.9661C11.8408 13.8472 11.496 13.7023 11.1625 13.5325C9.44095 12.6674 8.04999 11.2316 7.21187 9.45449C7.04742 9.11024 6.90706 8.75427 6.79187 8.38932C6.97563 8.21578 7.23313 7.99191 7.34312 7.89642C8.00625 7.32223 8.33875 7.03384 8.425 6.52932C8.60187 5.48481 5.92188 1.61771 5.89437 1.58287C5.77233 1.4042 5.61337 1.25573 5.42898 1.14817C5.24459 1.04062 5.03937 0.97667 4.82812 0.960938C3.74187 0.960938 0.640625 5.1132 0.640625 5.8132C0.640625 5.85384 0.6975 9.98545 5.63312 15.168C10.6481 20.2571 14.6506 20.3158 14.69 20.3158C15.3675 20.3158 19.3906 17.1145 19.3906 15.9932C19.3752 15.7751 19.3131 15.5633 19.2088 15.3729C19.1045 15.1826 18.9606 15.0185 18.7875 14.8925ZM14.6206 19.0216C14.0781 18.9738 10.7156 18.5164 6.51562 14.2577C2.37 9.90094 1.93813 6.42416 1.895 5.88545C2.71424 4.55813 3.70362 3.35127 4.83625 2.29771C4.86125 2.32352 4.89437 2.36223 4.93687 2.41255C5.80552 3.63657 6.5538 4.94692 7.17062 6.32416C6.97004 6.53247 6.75802 6.72871 6.53562 6.9119C6.19075 7.18316 5.87405 7.49062 5.59062 7.82932C5.54267 7.89878 5.50853 7.97737 5.49018 8.06053C5.47184 8.1437 5.46965 8.2298 5.48375 8.31384C5.61602 8.90528 5.8186 9.47757 6.08687 10.0177C7.04805 12.0551 8.64298 13.7013 10.6169 14.6932C11.14 14.9705 11.6945 15.1799 12.2675 15.3164C12.3489 15.3313 12.4324 15.3292 12.513 15.3103C12.5936 15.2913 12.6697 15.2559 12.7369 15.2061C13.0662 14.9123 13.365 14.5841 13.6287 14.2267C13.825 13.9855 14.0869 13.6635 14.1863 13.5725C15.5238 14.2087 16.7961 14.982 17.9837 15.8809C18.0356 15.9261 18.0725 15.9609 18.0969 15.9835C17.0762 17.1531 15.9068 18.1746 14.6206 19.0203V19.0216Z" fill="#E34061"/>
<path d="M14.3906 9.99332H15.6406C15.6391 8.62493 15.1119 7.31303 14.1745 6.34544C13.2372 5.37784 11.9663 4.83357 10.6406 4.83203V6.12235C11.6349 6.12338 12.5881 6.53154 13.2912 7.25727C13.9942 7.98299 14.3896 8.96699 14.3906 9.99332Z" fill="#E34061"/>
<path d="M17.5156 9.99647H18.7656C18.7631 7.77286 17.9063 5.64106 16.3831 4.06873C14.8599 2.4964 12.7947 1.61194 10.6406 1.60938V2.8997C12.4633 2.90192 14.2108 3.65032 15.4996 4.98075C16.7885 6.31117 17.5135 8.11497 17.5156 9.99647Z" fill="#E34061"/>
</g>
<defs>
<clipPath id="clip0_946_11321">
<rect width="20" height="20.6452" fill="white" transform="translate(0.015625 0.316406)"/>
</clipPath>
</defs>
</svg>
