<svg width="21" height="21" viewBox="0 0 21 21" fill="none" xmlns="http://www.w3.org/2000/svg">
<g clip-path="url(#clip0_913_7947)">
<path d="M10.5547 0.4375C8.61608 0.440138 6.75761 1.23116 5.38681 2.63711C4.01601 4.04306 3.24476 5.94919 3.24219 7.9375C3.24219 13.3219 10.055 20.0656 10.3445 20.35C10.4008 20.4061 10.4762 20.4375 10.5547 20.4375C10.6332 20.4375 10.7086 20.4061 10.7649 20.35C11.0544 20.0656 17.8672 13.3219 17.8672 7.9375C17.8646 5.94919 17.0934 4.04306 15.7226 2.63711C14.3518 1.23116 12.4933 0.440138 10.5547 0.4375ZM10.5547 11.375C9.89181 11.375 9.24382 11.1734 8.69266 10.7957C8.1415 10.418 7.71192 9.88109 7.45825 9.25297C7.20458 8.62485 7.1382 7.93369 7.26752 7.26688C7.39684 6.60007 7.71605 5.98756 8.18477 5.50682C8.6535 5.02608 9.25069 4.69869 9.90083 4.56605C10.551 4.43341 11.2249 4.50149 11.8373 4.76166C12.4497 5.02184 12.9731 5.46243 13.3414 6.02773C13.7097 6.59302 13.9062 7.25763 13.9062 7.9375C13.9057 8.84901 13.5524 9.72304 12.924 10.3676C12.2956 11.0121 11.4434 11.3745 10.5547 11.375Z" fill="#607D8B"/>
</g>
<defs>
<clipPath id="clip0_913_7947">
<rect width="19.5" height="20" fill="white" transform="translate(0.804688 0.4375)"/>
</clipPath>
</defs>
</svg>
