<svg width="38" height="26" viewBox="0 0 38 26" fill="none" xmlns="http://www.w3.org/2000/svg">
<path d="M13.4497 0.351562C14.4297 0.351562 15.2259 0.437307 15.8383 0.608797L15.5443 6.23122C12.6045 6.62319 10.9019 8.55858 10.4364 12.0374H15.5443L15.0299 25.2666H0L0.146991 13.1766C0.220487 8.20335 2.38861 4.54082 6.65136 2.18895C8.88073 0.964027 11.1468 0.351562 13.4497 0.351562ZM35.4984 0.351562C36.4784 0.351562 37.2746 0.437307 37.887 0.608797L37.593 6.23122C34.6532 6.62319 32.9506 8.55858 32.4851 12.0374H37.593L37.0786 25.2666H22.0487L22.1957 13.1766C22.2692 8.20335 24.4373 4.54082 28.7001 2.18895C30.9294 0.964027 33.1956 0.351562 35.4984 0.351562Z" fill="#E34061"/>
</svg>
