<svg width="45" height="45" viewBox="0 0 45 45" fill="none" xmlns="http://www.w3.org/2000/svg">
<path d="M7.0102 31.5915C10.2449 34.8265 14.5452 36.6084 19.118 36.6084C22.5741 36.6084 25.8737 35.5891 28.676 33.6952C29.9533 35.0952 31.1598 36.7646 32.4376 38.9032C32.8814 39.6541 33.4199 40.3477 34.0376 40.9647C35.34 42.2675 36.6613 42.9268 37.9672 42.9268C38.0276 42.9268 38.0874 42.9255 38.1478 42.9228C39.3059 42.8687 40.4426 42.2917 41.5269 41.2071C43.9016 38.8324 43.8176 36.2381 41.2845 33.7043C40.6138 33.0343 39.9135 32.4965 39.2287 32.1215C36.9447 30.7394 35.2605 29.5133 33.8402 28.2008C37.798 21.5321 36.7675 12.9035 31.2258 7.36144C31.2258 7.36121 31.2256 7.36099 31.2251 7.36076C24.5488 0.699945 13.6865 0.699945 7.0102 7.36144C1.26112 13.1109 0.350722 22.1887 4.84498 28.9455C5.46803 29.8878 6.19649 30.7781 7.0102 31.5915ZM7.9817 8.33428C11.052 5.27075 15.085 3.73931 19.118 3.73931C23.151 3.73931 27.184 5.27075 30.2543 8.33428C35.5415 13.6221 36.3787 21.9708 32.2443 28.1869C31.6716 29.0526 31.0022 29.8707 30.2536 30.6193C27.278 33.5945 23.3236 35.2334 19.118 35.2334C14.9124 35.2334 10.958 33.5945 7.98236 30.6193C7.23377 29.8707 6.5644 29.0526 5.99103 28.1855C1.85664 21.9705 2.69453 13.6215 7.9817 8.33428ZM9.68635 28.9146C12.2866 31.5149 15.702 32.8147 19.118 32.8147C22.5333 32.8147 25.9494 31.5146 28.5496 28.9143C29.1828 28.2808 29.7501 27.5873 30.2355 26.8548C33.7368 21.5905 33.0278 14.5191 28.5496 10.0406C28.5496 10.0404 28.5494 10.0402 28.549 10.0399C23.3491 4.85179 14.8876 4.85045 9.68635 10.0406C5.20821 14.5191 4.49922 21.5905 7.99983 26.8538C8.48592 27.5873 9.05324 28.2808 9.68635 28.9146ZM19.1213 31.1097C17.2083 31.1097 15.6238 29.6966 15.3451 27.8604C15.5752 27.9329 15.8171 27.9757 16.0625 27.9757H22.3272C22.5184 27.9757 22.7071 27.9472 22.8905 27.9024C22.5943 29.718 21.0192 31.1097 19.1213 31.1097ZM19.114 17.8532C18.734 17.8532 18.4265 18.161 18.4265 18.5407V22.3193H17.3022L15.134 14.2814C16.0122 14.7235 16.7534 14.9061 17.3851 14.833C18.1089 14.7591 18.6876 14.5161 19.069 14.1391C19.4946 14.4671 20.3963 14.8776 21.6478 13.9548C22.1641 13.5775 22.6831 13.125 23.1067 12.7426L20.8838 22.3193H19.8015V18.5407C19.8015 18.161 19.494 17.8532 19.114 17.8532ZM27.5781 11.0134C31.5944 15.0304 32.2308 21.3726 29.0894 26.0945C28.6544 26.7521 28.1455 27.3738 27.5775 27.9425C26.2288 29.2911 24.6322 30.237 22.936 30.8058C23.792 29.8787 24.3199 28.6443 24.3199 27.2859C24.3199 27.1541 24.3052 27.028 24.2952 26.9003C24.3277 26.8429 24.3621 26.7863 24.387 26.7259L25.2404 24.6587C25.4733 24.0927 25.4317 23.5056 25.1256 23.0481C25.0945 23.0017 25.0515 22.9665 25.0159 22.9241C25.4512 22.1978 25.8867 21.4716 26.3159 20.7398C27.2021 19.2309 28.0669 17.5776 28.0669 15.4231C28.0669 13.2933 27.3308 11.2955 25.983 9.69144C26.5415 10.0826 27.0794 10.5158 27.5781 11.0134ZM18.6809 7.86632C20.7911 7.74917 22.7918 8.47762 24.3199 9.92144C25.8493 11.3673 26.6919 13.321 26.6919 15.4231C26.6919 17.063 26.1192 18.3591 25.1303 20.0439C24.6804 20.8108 24.224 21.5719 23.7681 22.3329C23.7249 22.3303 23.6852 22.3193 23.6411 22.3193H22.2945L24.4502 13.0249C24.6462 12.4358 24.4267 11.8154 23.9036 11.4811C23.386 11.1491 22.7348 11.2108 22.2937 11.6244C21.8855 11.995 21.351 12.4687 20.8347 12.8463C20.2258 13.2941 19.9955 13.1176 19.8982 13.0424C19.3503 12.6369 18.6158 12.6708 18.1478 13.1236C17.9599 13.3059 17.6477 13.4241 17.2395 13.466C16.9776 13.4936 16.4969 13.4392 15.6805 13.0162C15.1702 12.7483 14.5687 12.8259 14.1464 13.219C13.7429 13.5949 13.616 14.1586 13.8147 14.6698L15.8778 22.3193H14.7493C14.6623 22.3193 14.5822 22.3362 14.499 22.346C14.3727 22.1506 14.2478 21.9534 14.1202 21.7603L14.0074 21.5885C13.3515 20.5908 12.7318 19.6485 12.2497 18.6236C11.7435 17.5427 11.5018 16.3369 11.5501 15.1337C11.6945 11.2713 14.8258 8.07881 18.6809 7.86632ZM10.6578 11.0134C11.1782 10.4943 11.7397 10.0422 12.3248 9.63887C11.0545 11.1255 10.2532 13.0204 10.1765 15.0804C10.1187 16.5004 10.4054 17.9274 11.005 19.2081C11.5293 20.3219 12.2047 21.3498 12.858 22.3434L12.9714 22.5163C13.0803 22.6814 13.1862 22.849 13.294 23.015C13.2852 23.0273 13.2726 23.0361 13.2642 23.0487C12.958 23.5063 12.9164 24.0931 13.15 24.6587L13.9693 26.6422C13.9412 26.855 13.9221 27.0698 13.9221 27.2859C13.9221 28.6457 14.4511 29.8813 15.3087 30.8086C13.6093 30.2402 12.0095 29.2934 10.6585 27.9428C10.0905 27.3738 9.58161 26.7521 9.14588 26.0935C6.00513 21.3723 6.64161 15.03 10.6578 11.0134Z" fill="#37474F"/>
</svg>
