<svg width="75" height="75" viewBox="0 0 75 75" fill="none" xmlns="http://www.w3.org/2000/svg">
<circle cx="37.0625" cy="37.3486" r="37" fill="#1D0D47"/>
<path d="M44.6058 38.7461H39.7314C38.3973 38.7461 37.3125 39.8309 37.3125 41.165V44.9032C37.3125 46.2373 38.3973 47.3221 39.7314 47.3221H44.6058C45.9398 47.3221 47.0247 46.2373 47.0247 44.9032V41.165C47.0247 39.8309 45.9398 38.7461 44.6058 38.7461ZM45.2655 44.9032C45.2655 45.2697 44.965 45.5629 44.6058 45.5629H39.7314C39.3649 45.5629 39.0717 45.2624 39.0717 44.9032V41.165C39.0717 40.7985 39.3722 40.5053 39.7314 40.5053H44.6058C44.9723 40.5053 45.2655 40.8058 45.2655 41.165V44.9032Z" fill="white"/>
<path d="M54.9977 31.9504C54.9977 31.7965 54.961 31.6499 54.8804 31.5179L49.5442 22.1356C49.3903 21.8644 49.0971 21.6885 48.7819 21.6885H25.3335C25.0183 21.6885 24.7251 21.8571 24.5711 22.1356L19.2423 31.5179C19.169 31.6499 19.125 31.7965 19.125 31.9504C19.125 34.0541 20.3931 35.8572 22.2036 36.6562V52.1297C22.2036 52.6135 22.5994 53.0093 23.0832 53.0093H27.9429C27.9502 53.0093 27.9576 53.0093 27.9649 53.0093H34.7817C34.7891 53.0093 34.7964 53.0093 34.8037 53.0093H51.0322C51.516 53.0093 51.9118 52.6135 51.9118 52.1297V36.7661C51.9118 36.7295 51.9118 36.7002 51.9045 36.6709C53.7223 35.8719 54.9977 34.0614 54.9977 31.9504ZM25.8465 23.455H48.2688L52.4395 30.7923H21.6831L25.8465 23.455ZM44.6552 32.5441C44.3766 34.1274 42.9913 35.3295 41.3274 35.3295C39.6635 35.3295 38.2781 34.1274 37.9996 32.5441H44.6552ZM36.1304 32.5441C35.8519 34.1274 34.4665 35.3295 32.8027 35.3295C31.1388 35.3295 29.7534 34.1274 29.4675 32.5441H36.1304ZM20.9428 32.5441H27.6057C27.3272 34.1274 25.9345 35.3295 24.2706 35.3295C22.6067 35.3368 21.2214 34.1274 20.9428 32.5441ZM33.9021 51.2501H28.8445V41.7578C28.8445 41.0688 29.4016 40.5044 30.0979 40.5044H32.6561C33.3451 40.5044 33.9095 41.0615 33.9095 41.7578V51.2501H33.9021ZM50.1526 51.2501H35.6613V41.7578C35.6613 40.1013 34.3126 38.7452 32.6487 38.7452H30.0906C28.434 38.7452 27.078 40.0939 27.078 41.7578V51.2574H23.9628V37.0887C24.0654 37.096 24.168 37.096 24.2706 37.096C26.0445 37.096 27.6131 36.1944 28.5366 34.8237C29.4602 36.1944 31.0288 37.096 32.8027 37.096C34.5765 37.096 36.1378 36.1944 37.0687 34.8237C37.9922 36.1944 39.5609 37.096 41.3274 37.096C43.1012 37.096 44.6625 36.1944 45.5861 34.8237C46.5096 36.1944 48.0782 37.096 49.8521 37.096C49.9547 37.096 50.05 37.0887 50.1526 37.0887V51.2501ZM49.8521 35.3368C48.1882 35.3368 46.8028 34.1347 46.5243 32.5514H53.1872C52.9013 34.1274 51.516 35.3368 49.8521 35.3368Z" fill="white"/>
</svg>
