<svg width="45" height="45" viewBox="0 0 45 45" fill="none" xmlns="http://www.w3.org/2000/svg">
<path d="M40.7337 12.675L40.665 12.6131C40.0473 12.0759 39.2561 11.7805 38.4375 11.7812H30.875V9.71875C30.875 9.17174 30.6577 8.64714 30.2709 8.26034C29.8841 7.87355 29.3595 7.65625 28.8125 7.65625H16.4375C15.8905 7.65625 15.3659 7.87355 14.9791 8.26034C14.5923 8.64714 14.375 9.17174 14.375 9.71875V11.7812H6.8125C6.00189 11.7835 5.21893 12.0762 4.60562 12.6063L4.53688 12.6681C4.17491 12.9878 3.88437 13.3802 3.68417 13.8196C3.48398 14.2591 3.37864 14.7358 3.375 15.2188V31.7188C3.375 32.6304 3.73716 33.5048 4.38182 34.1494C5.02648 34.7941 5.90082 35.1562 6.8125 35.1562H7.5V35.8438C7.5 36.3908 7.7173 36.9154 8.10409 37.3022C8.49089 37.6889 9.01549 37.9062 9.5625 37.9062H15.0625C15.6095 37.9062 16.1341 37.6889 16.5209 37.3022C16.9077 36.9154 17.125 36.3908 17.125 35.8438V35.1562H28.125V35.8438C28.125 36.3908 28.3423 36.9154 28.7291 37.3022C29.1159 37.6889 29.6405 37.9062 30.1875 37.9062H35.6875C36.2345 37.9062 36.7591 37.6889 37.1459 37.3022C37.5327 36.9154 37.75 36.3908 37.75 35.8438V35.1562H38.4375C39.3492 35.1562 40.2235 34.7941 40.8682 34.1494C41.5128 33.5048 41.875 32.6304 41.875 31.7188V15.2188C41.873 14.7386 41.7704 14.2641 41.5738 13.826C41.3773 13.3879 41.0911 12.9958 40.7337 12.675ZM15.75 9.71875C15.75 9.53641 15.8224 9.36155 15.9514 9.23261C16.0803 9.10368 16.2552 9.03125 16.4375 9.03125H28.8125C28.9948 9.03125 29.1697 9.10368 29.2986 9.23261C29.4276 9.36155 29.5 9.53641 29.5 9.71875V11.7812H15.75V9.71875ZM15.0625 13.1562H38.4375C38.7633 13.1592 39.0837 13.2393 39.3725 13.39L34.56 21.1244C34.3724 21.4246 34.1107 21.6715 33.8 21.8413C33.4894 22.011 33.1402 22.098 32.7862 22.0938H26.0625V21.4062C26.0625 20.8592 25.8452 20.3346 25.4584 19.9478C25.0716 19.561 24.547 19.3438 24 19.3438H21.25C20.703 19.3438 20.1784 19.561 19.7916 19.9478C19.4048 20.3346 19.1875 20.8592 19.1875 21.4062V22.0938H12.4637C12.1132 22.0945 11.7683 22.0058 11.4616 21.8362C11.1549 21.6666 10.8964 21.4216 10.7106 21.1244L5.89813 13.39C6.18075 13.2425 6.49374 13.1624 6.8125 13.1562H15.0625ZM28.8125 33.7812H15.75V23.4688H19.1875V24.1562C19.1875 24.7033 19.4048 25.2279 19.7916 25.6147C20.1784 26.0014 20.703 26.2188 21.25 26.2188H24C24.547 26.2188 25.0716 26.0014 25.4584 25.6147C25.8452 25.2279 26.0625 24.7033 26.0625 24.1562V23.4688H29.5V33.7812H28.8125ZM14.375 33.7812H13V23.4688H14.375M30.875 23.4688H32.25V33.7812H30.875V23.4688ZM4.75 31.7188V15.2188C4.75018 14.9474 4.80392 14.6787 4.90813 14.4281L9.5625 21.8531C10.0299 22.6038 10.7685 23.1455 11.625 23.3656V33.7812H6.8125C6.26549 33.7812 5.74089 33.5639 5.35409 33.1772C4.9673 32.7904 4.75 32.2658 4.75 31.7188ZM40.5 31.7188C40.5 32.2658 40.2827 32.7904 39.8959 33.1772C39.5091 33.5639 38.9845 33.7812 38.4375 33.7812H33.625V23.3656C34.4815 23.1455 35.2201 22.6038 35.6875 21.8531L40.3213 14.4281C40.4325 14.6772 40.4933 14.946 40.5 15.2188V31.7188Z" fill="#37474F"/>
</svg>
