<svg width="29" height="29" viewBox="0 0 29 29" fill="none" xmlns="http://www.w3.org/2000/svg">
<g clip-path="url(#clip0_1636_13622)">
<path d="M23.6068 10.0785C22.7215 8.26266 21.2008 7.2438 19.7317 6.2594C18.6353 5.52488 17.5992 4.83128 16.8669 3.84042L16.7355 3.66379C16.3025 3.0822 15.8135 2.42306 15.736 1.86947C15.6584 1.30942 15.1501 0.910928 14.5943 0.943238C14.03 0.982011 13.5927 1.44944 13.5927 2.01595V21.2084C12.6902 20.6613 11.5787 20.3253 10.3617 20.3253C7.39339 20.3253 4.97656 22.2574 4.97656 24.6333C4.97656 27.0092 7.39339 28.9414 10.3617 28.9414C13.3299 28.9414 15.7468 27.0092 15.7468 24.6333V5.85229C16.5911 6.74837 17.5734 7.40751 18.5319 8.04941C19.8222 8.91318 21.0414 9.72956 21.6725 11.0241C22.0689 11.8319 22.2584 12.7129 22.211 13.497C22.0925 15.4162 21.3688 17.3462 20.3241 18.5374C19.9299 18.9833 19.973 19.664 20.421 20.056C20.8647 20.4524 21.5454 20.405 21.9396 19.9591C23.288 18.4276 24.2164 16.0021 24.3607 13.6305C24.4318 12.4609 24.1712 11.2331 23.6068 10.0785Z" fill="#455A64"/>
</g>
<defs>
<clipPath id="clip0_1636_13622">
<rect width="28" height="28" fill="white" transform="translate(0.671875 0.941406)"/>
</clipPath>
</defs>
</svg>
