<svg width="20" height="20" viewBox="0 0 20 20" fill="none" xmlns="http://www.w3.org/2000/svg">
<path d="M18.9454 5.04242C18.8261 3.05929 17.1702 1.50561 15.1757 1.50561H14.2047V0.750853C14.2047 0.334226 13.8666 -0.00390625 13.45 -0.00390625C13.0333 -0.00390625 12.6952 0.334226 12.6952 0.750853V1.50561H6.65714V0.750853C6.65714 0.334226 6.319 -0.00390625 5.90238 -0.00390625C5.48575 -0.00390625 5.14762 0.334226 5.14762 0.750853V1.50561H4.17662C2.18179 1.50561 0.525845 3.05929 0.406971 5.04242C0.183184 8.77244 0.187335 12.5561 0.419424 16.288C0.537167 18.1832 2.05537 19.7014 3.95057 19.8191C5.84992 19.9372 7.76286 19.9961 9.6758 19.9961C11.5884 19.9961 13.5017 19.9372 15.401 19.8191C17.2962 19.7014 18.8144 18.1832 18.9322 16.288C19.1646 12.5579 19.1688 8.7747 18.9454 5.04242ZM17.426 16.1944C17.3551 17.3314 16.4445 18.242 15.3078 18.3126C11.571 18.5447 7.78135 18.5447 4.04453 18.3126C2.90749 18.2417 1.99687 17.331 1.9263 16.1944C1.7478 13.3251 1.7112 10.4257 1.80667 7.54369H17.5461C17.6412 10.4269 17.6045 13.3263 17.426 16.1944ZM5.90238 4.52465C6.319 4.52465 6.65714 4.18652 6.65714 3.76989V3.01513H12.6952V3.76989C12.6952 4.18652 13.0333 4.52465 13.45 4.52465C13.8666 4.52465 14.2047 4.18652 14.2047 3.76989V3.01513H15.1757C16.3732 3.01513 17.3672 3.94537 17.4385 5.13261C17.4562 5.43225 17.4638 5.73378 17.4785 6.03417H1.87385C1.88894 5.73378 1.89611 5.43225 1.91385 5.13261C1.98517 3.94537 2.97881 3.01513 4.17662 3.01513H5.14762V3.76989C5.14762 4.18652 5.48575 4.52465 5.90238 4.52465Z" fill="#607D8B"/>
<path d="M5.89776 12.0729C6.52303 12.0729 7.0299 11.566 7.0299 10.9407C7.0299 10.3155 6.52303 9.80859 5.89776 9.80859C5.2725 9.80859 4.76562 10.3155 4.76562 10.9407C4.76562 11.566 5.2725 12.0729 5.89776 12.0729Z" fill="#607D8B"/>
<path d="M9.67901 12.0729C10.3043 12.0729 10.8112 11.566 10.8112 10.9407C10.8112 10.3155 10.3043 9.80859 9.67901 9.80859C9.05375 9.80859 8.54688 10.3155 8.54688 10.9407C8.54688 11.566 9.05375 12.0729 9.67901 12.0729Z" fill="#607D8B"/>
<path d="M5.89776 15.8463C6.52303 15.8463 7.0299 15.3394 7.0299 14.7142C7.0299 14.0889 6.52303 13.582 5.89776 13.582C5.2725 13.582 4.76562 14.0889 4.76562 14.7142C4.76562 15.3394 5.2725 15.8463 5.89776 15.8463Z" fill="#607D8B"/>
<path d="M13.4446 12.0729C14.0699 12.0729 14.5768 11.566 14.5768 10.9407C14.5768 10.3155 14.0699 9.80859 13.4446 9.80859C12.8194 9.80859 12.3125 10.3155 12.3125 10.9407C12.3125 11.566 12.8194 12.0729 13.4446 12.0729Z" fill="#607D8B"/>
<path d="M13.4446 15.8463C14.0699 15.8463 14.5768 15.3394 14.5768 14.7142C14.5768 14.0889 14.0699 13.582 13.4446 13.582C12.8194 13.582 12.3125 14.0889 12.3125 14.7142C12.3125 15.3394 12.8194 15.8463 13.4446 15.8463Z" fill="#607D8B"/>
<path d="M9.67901 15.8463C10.3043 15.8463 10.8112 15.3394 10.8112 14.7142C10.8112 14.0889 10.3043 13.582 9.67901 13.582C9.05375 13.582 8.54688 14.0889 8.54688 14.7142C8.54688 15.3394 9.05375 15.8463 9.67901 15.8463Z" fill="#607D8B"/>
</svg>
