<svg width="21" height="21" viewBox="0 0 21 21" fill="none" xmlns="http://www.w3.org/2000/svg">
<g clip-path="url(#clip0_834_2639)">
<path d="M17.4219 2.70117H14.4922V2.11523C14.4922 1.14598 13.7036 0.357422 12.7344 0.357422H8.04688C7.07762 0.357422 6.28906 1.14598 6.28906 2.11523V2.70117H3.35938C2.39012 2.70117 1.60156 3.48973 1.60156 4.45898C1.60156 5.23742 2.11035 5.89887 2.8127 6.12934L3.85781 18.7455C3.93309 19.6494 4.70254 20.3574 5.60953 20.3574H15.1717C16.0787 20.3574 16.8482 19.6494 16.9235 18.7453L17.9686 6.1293C18.6709 5.89887 19.1797 5.23742 19.1797 4.45898C19.1797 3.48973 18.3911 2.70117 17.4219 2.70117ZM7.46094 2.11523C7.46094 1.79215 7.72379 1.5293 8.04688 1.5293H12.7344C13.0575 1.5293 13.3203 1.79215 13.3203 2.11523V2.70117H7.46094V2.11523ZM15.7556 18.6483C15.7305 18.9495 15.4741 19.1855 15.1717 19.1855H5.60953C5.30723 19.1855 5.05074 18.9495 5.0257 18.6486L3.99586 6.2168H16.7854L15.7556 18.6483ZM17.4219 5.04492H3.35938C3.03629 5.04492 2.77344 4.78207 2.77344 4.45898C2.77344 4.1359 3.03629 3.87305 3.35938 3.87305H17.4219C17.745 3.87305 18.0078 4.1359 18.0078 4.45898C18.0078 4.78207 17.745 5.04492 17.4219 5.04492Z" fill="#607D8B"/>
<path d="M8.04579 17.3915L7.45985 7.93838C7.43981 7.61537 7.16024 7.36971 6.8388 7.38982C6.51579 7.40986 6.2702 7.68791 6.2902 8.01088L6.87614 17.464C6.8954 17.7747 7.15337 18.0137 7.4604 18.0137C7.79973 18.0137 8.06661 17.7279 8.04579 17.3915Z" fill="#607D8B"/>
<path d="M10.3906 7.38867C10.067 7.38867 9.80469 7.65102 9.80469 7.97461V17.4277C9.80469 17.7513 10.067 18.0137 10.3906 18.0137C10.7142 18.0137 10.9766 17.7513 10.9766 17.4277V7.97461C10.9766 7.65102 10.7142 7.38867 10.3906 7.38867Z" fill="#607D8B"/>
<path d="M13.9425 7.38982C13.6202 7.36978 13.3414 7.61536 13.3214 7.93837L12.7355 17.3915C12.7155 17.7145 12.9611 17.9925 13.2841 18.0126C13.6073 18.0325 13.8852 17.7868 13.9052 17.464L14.4911 8.01087C14.5111 7.68786 14.2655 7.40982 13.9425 7.38982Z" fill="#607D8B"/>
</g>
<defs>
<clipPath id="clip0_834_2639">
<rect width="20" height="20" fill="white" transform="translate(0.390625 0.357422)"/>
</clipPath>
</defs>
</svg>
