<svg width="61" height="60" viewBox="0 0 61 60" fill="none" xmlns="http://www.w3.org/2000/svg">
<circle cx="30.9531" cy="30" r="30" fill="#EDF7F6"/>
<path d="M41.5964 34.6408L43.3284 33.0318C44.5004 31.9488 45.0974 30.3828 44.9234 28.8448C44.8154 27.8848 44.0694 27.1388 43.1094 27.0308C41.5674 26.8528 40.0054 27.4538 38.9234 28.6248L37.3134 30.3588L33.6884 28.4708C32.8604 28.0398 31.8504 28.2078 31.1714 28.8868L30.5814 29.4758C30.2654 29.7918 30.0934 30.2258 30.1104 30.6668C30.1274 31.0938 30.3214 31.4968 30.6434 31.7718L33.6394 34.3308L31.6304 36.5078L30.5824 36.1498C30.0194 35.9578 29.3794 36.1108 28.9524 36.5398L28.4254 37.0668C28.1084 37.3838 27.9364 37.8188 27.9544 38.2608C27.9714 38.6888 28.1674 39.0928 28.4914 39.3658L30.1244 40.7518C30.5104 41.0798 30.8724 41.4418 31.2004 41.8278L32.5864 43.4608C32.8604 43.7848 33.2644 43.9808 33.6924 43.9978C33.7134 43.9978 33.7344 43.9988 33.7554 43.9988C34.1754 43.9988 34.5854 43.8288 34.8854 43.5278L35.4144 42.9988C35.8424 42.5708 35.9954 41.9318 35.8034 41.3678L35.4464 40.3208L37.6234 38.3118L40.1824 41.3088C40.4574 41.6308 40.8614 41.8248 41.2874 41.8418C41.7254 41.8598 42.1624 41.6868 42.4784 41.3708L43.0674 40.7808C43.7464 40.1018 43.9134 39.0898 43.4834 38.2638L41.5954 34.6388L41.5964 34.6408ZM41.6544 39.3688L41.3844 39.6388L38.4694 36.2248C38.2934 36.0178 38.0394 35.8918 37.7684 35.8758C37.4974 35.8538 37.2304 35.9548 37.0314 36.1388L33.6124 39.2948C33.3214 39.5638 33.2164 39.9778 33.3444 40.3528L33.8254 41.7628L33.7944 41.7938L32.7264 40.5358C32.3284 40.0668 31.8894 39.6268 31.4194 39.2288L30.1614 38.1608L30.1924 38.1298L31.6024 38.6108C31.9774 38.7388 32.3924 38.6338 32.6604 38.3428L35.8164 34.9238C36.0014 34.7238 36.0954 34.4578 36.0794 34.1868C36.0634 33.9158 35.9374 33.6618 35.7304 33.4858L32.3164 30.5708L32.5864 30.3008C32.6534 30.2338 32.7324 30.2288 32.7654 30.2448L37.0674 32.4848C37.4664 32.6928 37.9554 32.6078 38.2624 32.2778L40.3924 29.9838C41.0464 29.2768 41.9814 28.9208 42.9374 29.0688C43.0394 29.9778 42.6784 30.9098 41.9704 31.5648L39.6774 33.6938C39.3474 34.0008 39.2624 34.4888 39.4704 34.8888L41.7104 39.1908C41.7274 39.2228 41.7214 39.3018 41.6544 39.3688Z" fill="#00968A"/>
<path d="M19.6381 24.803L24.4101 27.405C24.9121 27.682 25.4721 27.823 26.0361 27.823C26.4171 27.823 26.8001 27.759 27.1661 27.628C28.0791 27.303 28.8101 26.601 29.1691 25.706C29.3861 25.174 29.8861 24.83 30.4431 24.83C30.5061 24.83 30.5651 24.835 30.6541 24.85C31.9341 25.03 33.1721 24.598 34.0621 23.668C34.9531 22.739 35.3321 21.48 35.1011 20.213L34.9891 19.598C36.8971 20.785 38.4281 22.566 39.2591 24.737C39.4571 25.253 40.0361 25.51 40.5511 25.314C41.0671 25.116 41.3251 24.538 41.1281 24.022C39.2911 19.224 34.5991 16 29.4541 16C22.5601 16 16.9531 21.607 16.9531 28.5C16.9531 33.583 19.9871 38.118 24.6821 40.054C24.8071 40.106 24.9361 40.13 25.0631 40.13C25.4561 40.13 25.8291 39.897 25.9881 39.511C26.1991 39 25.9551 38.416 25.4451 38.205C25.0881 38.058 24.7471 37.887 24.4151 37.706L25.1361 36.07C25.4031 35.476 25.5441 34.802 25.5441 34.12C25.5441 33.341 25.3701 32.603 25.0261 31.928C24.1381 30.177 22.2261 29.126 20.2701 29.315L18.9991 29.435C18.9721 29.126 18.9541 28.815 18.9541 28.5C18.9541 27.198 19.2021 25.955 19.6381 24.803ZM29.4531 18C30.5971 18 31.7121 18.194 32.7651 18.548L33.1341 20.572C33.2491 21.2 33.0611 21.823 32.6191 22.284C32.1781 22.744 31.5601 22.959 30.9581 22.874C29.4061 22.616 27.9091 23.499 27.3151 24.957C27.1681 25.324 26.8681 25.611 26.4951 25.744C26.1201 25.878 25.7241 25.846 25.3711 25.652L20.5211 23.007C22.3721 20.009 25.6781 18 29.4531 18ZM20.4591 31.306C21.5971 31.198 22.7221 31.809 23.2421 32.833C23.4421 33.226 23.5431 33.659 23.5431 34.12C23.5431 34.521 23.4631 34.912 23.3081 35.257L22.7291 36.57C21.1141 35.229 19.9441 33.432 19.3651 31.409L20.4591 31.306Z" fill="#00968A"/>
</svg>
