<svg width="55" height="54" viewBox="0 0 55 54" fill="none" xmlns="http://www.w3.org/2000/svg">
<g clip-path="url(#clip0_1636_13585)">
<path d="M52.1411 5.48438H3.18698C1.79585 5.48438 0.664062 6.61605 0.664062 8.00729V34.1719V47.6719C0.664062 48.1378 1.04185 48.5156 1.50781 48.5156H10.7891C11.0268 48.5156 11.2535 48.4153 11.4134 48.2394C11.5733 48.0634 11.6516 47.8282 11.6289 47.5914C11.6127 47.422 11.4415 45.6948 11.0136 43.4531H44.3144C43.8865 45.6949 43.7154 47.422 43.6991 47.5914C43.6764 47.8281 43.7547 48.0634 43.9146 48.2394C44.0745 48.4153 44.3012 48.5156 44.539 48.5156H53.8202C54.2862 48.5156 54.664 48.1378 54.664 47.6719V34.1719V8.00729C54.6641 6.61605 53.5323 5.48438 52.1411 5.48438ZM52.9766 8.00729V33.3281H52.3525C51.9073 32.4324 50.86 30.1535 49.8223 26.6413C48.6059 22.5242 47.1633 15.8501 47.0746 7.17188H52.1411C52.6018 7.17188 52.9766 7.54671 52.9766 8.00729ZM10.7649 27.3409C13.0155 23.0751 15.6849 16.1587 15.8439 7.17188H20.0582C20.0029 9.27229 19.7402 11.3498 19.2749 13.3886C19.2697 13.4027 19.264 13.4163 19.2595 13.4307C19.2411 13.4901 19.2303 13.55 19.2252 13.6096C18.8851 15.0522 18.4432 16.475 17.9 17.8722C16.7446 20.8443 15.1314 23.7101 13.1056 26.3902C11.1625 28.9606 9.20334 30.8693 7.8506 32.055C8.71207 30.8646 9.73712 29.2893 10.7649 27.3409ZM5.03806 32.9035C5.58576 31.6637 6.34366 29.7495 7.10409 27.1872C8.36086 22.9521 9.85155 16.0875 9.94099 7.17188H14.1564C13.9985 15.7808 11.4523 22.4042 9.30533 26.4911C7.61783 29.7033 5.91482 31.8797 5.03806 32.9035ZM21.5101 10.3896C23.254 11.038 25.3959 11.3906 27.6641 11.3906C29.9324 11.3906 32.0741 11.038 33.8181 10.3896C33.9286 11.2953 34.0764 12.1954 34.2609 13.0887C32.2222 13.6345 29.9592 13.9219 27.6641 13.9219C25.3689 13.9219 23.1059 13.6346 21.0672 13.0887C21.2517 12.1952 21.3995 11.2953 21.5101 10.3896ZM33.65 8.64137C32.0457 9.31848 29.8955 9.70312 27.6641 9.70312C25.4327 9.70312 23.2826 9.31848 21.6781 8.64148C21.7117 8.15295 21.7344 7.66304 21.7466 7.17188H33.5815C33.5937 7.66294 33.6164 8.15284 33.65 8.64137ZM20.6849 14.7336C22.851 15.3076 25.244 15.6094 27.6641 15.6094C30.084 15.6094 32.4771 15.3075 34.6432 14.7335C34.8621 15.5756 35.1152 16.4108 35.4005 17.2384C32.9468 17.8373 30.347 18.1406 27.6641 18.1406C24.9814 18.1406 22.3814 17.8373 19.9276 17.2383C20.2129 16.4108 20.466 15.5757 20.6849 14.7336ZM36.0945 13.5724C36.0884 13.5256 36.0792 13.4788 36.0649 13.4322C36.0635 13.4276 36.0615 13.4235 36.0601 13.419C35.5905 11.3704 35.3255 9.28262 35.2699 7.17188H39.4843C39.6432 16.1587 42.3126 23.0751 44.5631 27.3409C45.591 29.2893 46.6161 30.8646 47.4774 32.0549C46.1247 30.8692 44.1655 28.9605 42.2224 26.3901C40.1965 23.71 38.5835 20.8442 37.428 17.8721C36.8801 16.463 36.4357 15.0276 36.0945 13.5724ZM41.1718 7.17188H45.3871C45.4766 16.0875 46.9673 22.9521 48.224 27.1872C48.9851 29.7518 49.7437 31.6673 50.2915 32.9069C49.4231 31.8945 47.7397 29.7456 46.0557 26.5534C43.894 22.456 41.3302 15.8129 41.1718 7.17188ZM3.18698 7.17188H8.25349C8.16479 15.8501 6.72208 22.5242 5.50582 26.6413C4.46821 30.1535 3.4208 32.4324 2.97562 33.3281H2.35156V8.00729C2.35156 7.54671 2.72629 7.17188 3.18698 7.17188ZM2.35156 35.0156H3.48641C3.48693 35.0156 3.48746 35.0157 3.48809 35.0157C3.48862 35.0157 3.48915 35.0156 3.48968 35.0156H3.72318C4.95759 38.0466 5.50624 44.4742 5.67109 46.8281H2.35156V35.0156ZM7.36386 46.8281C7.21641 44.6395 6.71502 38.5503 5.51911 35.0156H6.18187C7.58682 36.7656 8.51895 39.8536 9.10452 42.5509C9.10314 42.5702 9.10156 42.5897 9.10156 42.6094C9.10156 42.7531 9.13774 42.8883 9.20113 43.0068C9.52386 44.5696 9.72836 45.9621 9.84048 46.8281H7.36386ZM10.6599 41.7656C10.0623 39.1595 9.14101 36.2498 7.77044 34.3239C9.01856 33.34 11.7054 31.0293 14.4144 27.4571C16.4732 24.7424 18.1266 21.8409 19.335 18.829C21.9766 19.4915 24.7764 19.8281 27.6641 19.8281C30.5519 19.8281 33.3518 19.4915 35.9931 18.829C37.2015 21.8409 38.8549 24.7423 40.9137 27.4571C43.6227 31.0293 46.3096 33.3401 47.5577 34.3239C46.1871 36.2497 45.2659 39.1595 44.6683 41.7656H10.6599ZM46.1271 43.0066C46.1904 42.8881 46.2266 42.753 46.2266 42.6094C46.2266 42.5903 46.225 42.5716 46.2237 42.5528C46.2326 42.512 46.2412 42.4715 46.2503 42.4306C47.0115 38.9891 48.009 36.4388 49.1469 35.0156H49.8091C48.6132 38.5503 48.1117 44.6395 47.9644 46.8281H45.4872C45.5989 45.9615 45.8034 44.5676 46.1271 43.0066ZM49.657 46.8281C49.8218 44.4745 50.3699 38.0479 51.605 35.0156H52.9766V46.8281H49.657Z" fill="black"/>
</g>
<defs>
<clipPath id="clip0_1636_13585">
<rect width="54" height="54" fill="white" transform="translate(0.664062)"/>
</clipPath>
</defs>
</svg>
