<svg width="75" height="75" viewBox="0 0 75 75" fill="none" xmlns="http://www.w3.org/2000/svg">
<circle cx="37.7812" cy="37.3486" r="37" fill="#1D0D47"/>
<path d="M22.9043 52.8315C22.5458 52.9421 22.1555 52.8428 21.8935 52.5742C21.6316 52.3057 21.542 51.9131 21.6615 51.5574L23.8078 45.1703C22.4119 42.8745 21.6094 40.2013 21.6094 37.3479C21.6094 28.7323 28.8849 21.8198 37.7691 21.8198C46.6533 21.8198 53.9288 28.7323 53.9288 37.3479C53.9288 45.9635 46.6533 52.876 37.7691 52.876C34.8003 52.876 32.0149 52.1051 29.6203 50.7588L22.9043 52.8315Z" stroke="white" stroke-width="2" stroke-miterlimit="10" stroke-linecap="round" stroke-linejoin="round"/>
<path fill-rule="evenodd" clip-rule="evenodd" d="M31.3559 38.8867C32.2428 38.8867 32.9618 38.1977 32.9618 37.3477C32.9618 36.4978 32.2428 35.8087 31.3559 35.8087C30.469 35.8087 29.75 36.4978 29.75 37.3477C29.75 38.1977 30.469 38.8867 31.3559 38.8867ZM39.3837 37.3477C39.3837 38.1977 38.6647 38.8867 37.7778 38.8867C36.8909 38.8867 36.1719 38.1977 36.1719 37.3477C36.1719 36.4978 36.8909 35.8087 37.7778 35.8087C38.6647 35.8087 39.3837 36.4978 39.3837 37.3477ZM45.8056 37.3477C45.8056 38.1977 45.0866 38.8867 44.1997 38.8867C43.3127 38.8867 42.5938 38.1977 42.5938 37.3477C42.5938 36.4978 43.3127 35.8087 44.1997 35.8087C45.0866 35.8087 45.8056 36.4978 45.8056 37.3477Z" fill="white"/>
</svg>
