<svg width="23" height="24" viewBox="0 0 23 24" fill="none" xmlns="http://www.w3.org/2000/svg">
<mask id="mask0_815_2512" style="mask-type:luminance" maskUnits="userSpaceOnUse" x="0" y="0" width="23" height="24">
<path d="M0 0.75H22.5V23.25H0V0.75Z" fill="white"/>
</mask>
<g mask="url(#mask0_815_2512)">
<path d="M11.2539 1.96484C5.71165 1.96484 1.21875 6.45774 1.21875 12C1.21875 13.9511 1.77617 15.7718 2.73959 17.3126L1.21875 22.0352L5.94135 20.5143C7.48213 21.4777 9.30279 22.0352 11.2539 22.0352C16.7962 22.0352 21.2891 17.5423 21.2891 12C21.2891 6.45774 16.7962 1.96484 11.2539 1.96484Z" stroke="#37474F" stroke-width="1.75" stroke-miterlimit="10" stroke-linecap="round" stroke-linejoin="round"/>
<path d="M12.3537 11.9989C12.3537 12.6057 11.8618 13.0977 11.255 13.0977C10.6482 13.0977 10.1562 12.6057 10.1562 11.9989C10.1562 11.3921 10.6482 10.9002 11.255 10.9002C11.8618 10.9002 12.3537 11.3921 12.3537 11.9989Z" fill="#37474F"/>
<path d="M16.7443 11.9989C16.7443 12.6057 16.2524 13.0977 15.6456 13.0977C15.0388 13.0977 14.5469 12.6057 14.5469 11.9989C14.5469 11.3921 15.0388 10.9002 15.6456 10.9002C16.2524 10.9002 16.7443 11.3921 16.7443 11.9989Z" fill="#37474F"/>
<path d="M7.96308 11.9989C7.96308 12.6057 7.47116 13.0977 6.86435 13.0977C6.25755 13.0977 5.76562 12.6057 5.76562 11.9989C5.76562 11.3921 6.25755 10.9002 6.86435 10.9002C7.47116 10.9002 7.96308 11.3921 7.96308 11.9989Z" fill="#37474F"/>
</g>
</svg>
