<svg width="45" height="45" viewBox="0 0 45 45" fill="none" xmlns="http://www.w3.org/2000/svg">
<path d="M22.1328 0.296875C17.7816 0.296875 13.5282 1.58715 9.91027 4.00454C6.29239 6.42193 3.4726 9.85786 1.80747 13.8778C0.142345 17.8978 -0.293329 22.3213 0.555546 26.5889C1.40442 30.8564 3.49972 34.7765 6.57647 37.8532C9.65323 40.93 13.5732 43.0253 17.8408 43.8741C22.1084 44.723 26.5319 44.2873 30.5518 42.6222C34.5718 40.9571 38.0078 38.1373 40.4251 34.5194C42.8425 30.9015 44.1328 26.6481 44.1328 22.2969C44.1328 16.4621 41.815 10.8663 37.6892 6.74052C33.5634 2.61472 27.9676 0.296875 22.1328 0.296875ZM27.7081 20.2127L27.3433 23.2782C27.3276 23.4204 27.2597 23.5518 27.1528 23.647C27.0459 23.7421 26.9075 23.7943 26.7644 23.7934H23.5802V32.8829C23.581 32.9914 23.5388 33.0959 23.4629 33.1734C23.3869 33.251 23.2834 33.2953 23.1749 33.2969H19.9328C19.8788 33.2961 19.8255 33.2847 19.7759 33.2634C19.7264 33.242 19.6815 33.2111 19.6438 33.1724C19.6062 33.1337 19.5766 33.0879 19.5566 33.0378C19.5367 32.9876 19.5268 32.934 19.5276 32.88L19.5449 23.7934H17.1336C16.9801 23.7934 16.8328 23.7325 16.7242 23.6239C16.6157 23.5153 16.5547 23.368 16.5547 23.2145V20.1519C16.5547 19.9983 16.6157 19.8511 16.7242 19.7425C16.8328 19.6339 16.9801 19.5729 17.1336 19.5729H19.5276V16.6029C19.5276 13.1669 21.5741 11.2969 24.5644 11.2969H27.0162C27.1698 11.2969 27.317 11.3579 27.4256 11.4664C27.5342 11.575 27.5952 11.7223 27.5952 11.8758V14.455C27.5952 14.6086 27.5342 14.7558 27.4256 14.8644C27.317 14.973 27.1698 15.034 27.0162 15.034H25.5139C23.887 15.06 23.5802 15.8387 23.5802 17.0024V19.5642H27.1465C27.2273 19.5661 27.3068 19.5848 27.3799 19.6192C27.453 19.6536 27.5181 19.7029 27.571 19.764C27.6239 19.8251 27.6634 19.8966 27.687 19.9738C27.7106 20.0511 27.7178 20.1325 27.7081 20.2127Z" fill="#2E1E5A"/>
</svg>
