<svg width="61" height="60" viewBox="0 0 61 60" fill="none" xmlns="http://www.w3.org/2000/svg">
<circle cx="30.9531" cy="30" r="30" fill="#EDF7F6"/>
<g clip-path="url(#clip0_1636_14223)">
<path d="M38.3231 40.1641H23.5831C21.6031 40.1641 19.9531 38.4161 19.9531 36.3231V27.9281C19.9531 26.8701 20.3931 25.8351 21.1631 25.1221L28.5331 18.1301C29.9631 16.8421 31.9431 16.8421 33.3731 18.1301L40.7431 25.1221C41.5131 25.8121 41.9531 26.8701 41.9531 27.9281V36.3231C41.8431 38.5311 40.3031 40.1641 38.3231 40.1641ZM30.9531 19.5331C30.6231 19.5331 30.2931 19.6481 29.9631 19.8781L22.5931 26.8701C22.2631 27.1001 22.1531 27.5601 22.1531 28.0431V36.4381C22.1531 37.2431 22.8131 37.9561 23.5831 37.9561H38.2131C38.9831 37.9561 39.6431 37.2661 39.6431 36.4381V28.0431C39.6431 27.5831 39.4231 27.2381 39.2031 26.8701L31.8331 19.8781C31.6131 19.6481 31.2831 19.5331 30.9531 19.5331Z" fill="#00968A"/>
</g>
<defs>
<clipPath id="clip0_1636_14223">
<rect width="22" height="23" fill="white" transform="translate(19.9531 17.1641)"/>
</clipPath>
</defs>
</svg>
