<svg width="25" height="24" viewBox="0 0 25 24" fill="none" xmlns="http://www.w3.org/2000/svg">
<path d="M7.72785 0.167969C7.26068 0.167969 6.88264 0.546002 6.88264 1.01318V1.77997H5.5587C3.16587 1.77997 1.21875 3.72627 1.21875 6.1191V19.4939C1.21875 21.8867 3.16587 23.8338 5.5587 23.8338H18.9335C21.3263 23.8338 23.2734 21.8867 23.2734 19.4939V6.1191C23.2734 3.72627 21.3263 1.77997 18.9335 1.77997H17.6095V1.01318C17.6095 0.546002 17.2315 0.167969 16.7643 0.167969C16.2972 0.167969 15.9191 0.546002 15.9191 1.01318V1.77997H8.57306V1.01318C8.57306 0.546002 8.19503 0.167969 7.72785 0.167969ZM15.9191 3.47039V4.23637C15.9191 4.70354 16.2972 5.08157 16.7643 5.08157C17.2315 5.08157 17.6095 4.70354 17.6095 4.23637V3.47039H18.9335C20.3944 3.47039 21.583 4.65897 21.583 6.1191V19.4939C21.583 20.9548 20.3944 22.1434 18.9335 22.1434H5.5587C4.09775 22.1434 2.90917 20.9548 2.90917 19.4939V6.1191C2.90917 4.65897 4.09775 3.47039 5.5587 3.47039H6.88264V4.23637C6.88264 4.70354 7.26068 5.08157 7.72785 5.08157C8.19503 5.08157 8.57306 4.70354 8.57306 4.23637V3.47039H15.9191Z" fill="#37474F"/>
<path d="M5.60088 11.1011C5.3417 11.8985 5.55383 12.7569 6.1539 13.3413L7.43244 14.5876C7.54882 14.7007 7.60165 14.8649 7.57441 15.0259L7.27314 16.784C7.13117 17.6102 7.46381 18.429 8.14146 18.9218C8.81911 19.4129 9.70147 19.4806 10.4452 19.0885L12.0241 18.2582C12.1678 18.1822 12.3411 18.1822 12.4847 18.2582L14.0645 19.0893C14.3873 19.2585 14.7356 19.3419 15.0831 19.3419C15.5354 19.3419 15.9836 19.1999 16.3674 18.9218C17.0451 18.429 17.3777 17.6102 17.2357 16.7848L16.9344 15.0251C16.9072 14.8649 16.96 14.7007 17.0772 14.5868L18.355 13.3421C18.955 12.7569 19.1672 11.8985 18.908 11.1011C18.6488 10.3038 17.9728 9.73343 17.1433 9.61375L15.3769 9.35705C15.216 9.33311 15.0765 9.23159 15.0038 9.08549L14.2148 7.48587C13.8441 6.73393 13.093 6.26758 12.2544 6.26758C11.4158 6.26758 10.6647 6.73393 10.2941 7.48587L9.50502 9.08549C9.43239 9.23159 9.29289 9.33311 9.13194 9.35705L7.36558 9.61375C6.53606 9.73343 5.86006 10.3038 5.60088 11.1011ZM11.0205 9.83331L11.8095 8.23368C11.9325 7.98441 12.162 7.958 12.2544 7.958C12.3469 7.958 12.5763 7.98441 12.6993 8.23368L13.4884 9.83331C13.807 10.4788 14.4219 10.9261 15.1342 11.0293L16.9006 11.286C17.1755 11.3265 17.2712 11.5353 17.3001 11.6236C17.329 11.7111 17.3736 11.9373 17.1746 12.1312L15.8977 13.3759C15.381 13.8786 15.1458 14.6025 15.2688 15.3115L15.5701 17.0712C15.6171 17.3436 15.4479 17.4996 15.3728 17.5541C15.2985 17.6086 15.0971 17.7241 14.8511 17.5929L13.2721 16.7625C12.9535 16.595 12.6036 16.5108 12.2544 16.5108C11.9053 16.5108 11.5553 16.595 11.2367 16.7625L9.65855 17.5921C9.41175 17.7225 9.21118 17.6086 9.13607 17.5541C9.06096 17.4996 8.89175 17.3436 8.9388 17.0704L9.24007 15.3123C9.36305 14.6025 9.12781 13.8786 8.61194 13.3767L7.33422 12.1304C7.1353 11.9373 7.17987 11.7111 7.20876 11.6236C7.23765 11.5353 7.33339 11.3265 7.60825 11.286L9.37461 11.0293C10.0869 10.9261 10.7019 10.4788 11.0205 9.83331Z" fill="#37474F"/>
</svg>
