<svg width="45" height="45" viewBox="0 0 45 45" fill="none" xmlns="http://www.w3.org/2000/svg">
<path d="M40.5 23.5954V6.96875C40.5 6.46399 40.3843 5.98807 40.188 5.55586C40.1847 5.5497 40.1817 5.54382 40.1782 5.53773C39.6333 4.35714 38.4457 3.53125 37.0625 3.53125H8.1875C6.80457 3.53125 5.61726 4.35681 5.07222 5.53702C5.06832 5.54364 5.06505 5.5502 5.0614 5.55695C4.86544 5.98886 4.75 6.46446 4.75 6.96875V23.5954C3.95147 23.8801 3.375 24.6362 3.375 25.5312V26.9062C3.375 27.8013 3.95147 28.5573 4.75 28.842V38.5938C4.75 40.4891 6.29217 42.0312 8.1875 42.0312H37.0625C38.9578 42.0312 40.5 40.4891 40.5 38.5938V28.8421C41.2985 28.5574 41.875 27.8013 41.875 26.9062V25.5312C41.875 24.6362 41.2985 23.8801 40.5 23.5954ZM38.4375 23.4688C34.2675 23.4688 30.875 20.0762 30.875 15.9062V10.5221C31.7258 10.8931 32.6582 11.0938 33.625 11.0938C35.8304 11.0938 37.8516 10.0251 39.125 8.32944V23.4688H38.4375ZM32.809 28.3086C31.8968 28.7904 31.118 29.4913 30.5462 30.3438H14.7037C14.1318 29.4913 13.353 28.7904 12.4409 28.3087C12.7849 27.94 13 27.4492 13 26.9062V25.5312C13 25.0847 12.8538 24.6738 12.6118 24.3358C17.3513 23.0625 21.1372 19.4452 22.625 14.7966C24.113 19.4452 27.8988 23.0624 32.6382 24.3358C32.3962 24.6738 32.25 25.0847 32.25 25.5312V26.9062C32.25 27.4491 32.465 27.9399 32.809 28.3086ZM33.625 40.6562H30.875V33.7812C30.875 31.1276 33.0342 28.9688 35.6875 28.9688H35.932C34.5268 30.104 33.625 31.8384 33.625 33.7812V40.6562ZM14.375 33.7812V40.6562H11.625V33.7812C11.625 31.8384 10.723 30.104 9.31787 28.9688H9.5625C12.2162 28.9688 14.375 31.1276 14.375 33.7812ZM15.75 34.4688H29.5V40.6562H15.75V34.4688ZM11.625 11.0938C12.5918 11.0938 13.5242 10.8932 14.375 10.5222V15.9062C14.375 20.0762 10.9825 23.4688 6.8125 23.4688H6.125V8.32923C7.39858 10.025 9.41995 11.0938 11.625 11.0938ZM28.1251 8.3226C28.5192 8.85287 28.9829 9.31458 29.5 9.70461V15.9062C29.5 18.8129 30.901 21.3919 33.0562 23.0252C27.6576 21.6033 23.6255 16.8145 23.3448 11.0441C25.2612 10.844 26.9841 9.85899 28.1251 8.3226ZM27.5134 6.73007C26.566 8.5737 24.6929 9.71875 22.625 9.71875C20.5571 9.71875 18.684 8.5737 17.735 6.72705C17.441 6.16233 17.2511 5.54264 17.1704 4.90625H28.0795C27.9987 5.54252 27.8085 6.16271 27.5134 6.73007ZM17.125 8.32256C18.267 9.85949 19.9893 10.844 21.9052 11.0441C21.6245 16.8145 17.5925 21.6032 12.194 23.0251C14.3491 21.3918 15.75 18.8129 15.75 15.9062V9.70478C16.2671 9.31471 16.7309 8.85296 17.125 8.32256ZM38.8359 5.93335C38.097 8.17037 35.9979 9.71875 33.625 9.71875C31.6617 9.71875 29.8839 8.6784 28.8973 6.99611C29.1923 6.33525 29.3853 5.63004 29.4587 4.90625H37.0625C37.8208 4.90625 38.4775 5.32213 38.8359 5.93335ZM8.1875 4.90625H15.7913C15.8647 5.63127 16.0578 6.33685 16.3524 6.99666C15.3658 8.67856 13.5881 9.71875 11.625 9.71875C9.25278 9.71875 7.15348 8.17044 6.4142 5.93322C6.77255 5.32204 7.42925 4.90625 8.1875 4.90625ZM8.1875 40.6562C7.05017 40.6562 6.125 39.7311 6.125 38.5938V29.0236C8.45329 29.359 10.25 31.3616 10.25 33.7812V40.6562H8.1875ZM37.0625 40.6562H35V33.7812C35 31.3616 36.797 29.3591 39.125 29.0237V38.5938C39.125 39.7311 38.1998 40.6562 37.0625 40.6562Z" fill="#37474F"/>
</svg>
