<svg width="21" height="21" viewBox="0 0 21 21" fill="none" xmlns="http://www.w3.org/2000/svg">
<g clip-path="url(#clip0_834_2937)">
<path d="M17.7031 2.50781H14.7734V1.92188C14.7734 0.952617 13.9849 0.164062 13.0156 0.164062H8.32812C7.35887 0.164062 6.57031 0.952617 6.57031 1.92188V2.50781H3.64062C2.67137 2.50781 1.88281 3.29637 1.88281 4.26562C1.88281 5.04406 2.3916 5.70551 3.09395 5.93598L4.13906 18.5522C4.21434 19.4561 4.98379 20.1641 5.89078 20.1641H15.453C16.36 20.1641 17.1295 19.4561 17.2048 18.5519L18.2498 5.93594C18.9521 5.70551 19.4609 5.04406 19.4609 4.26562C19.4609 3.29637 18.6724 2.50781 17.7031 2.50781ZM7.74219 1.92188C7.74219 1.59879 8.00504 1.33594 8.32812 1.33594H13.0156C13.3387 1.33594 13.6016 1.59879 13.6016 1.92188V2.50781H7.74219V1.92188ZM16.0369 18.4549C16.0118 18.7562 15.7553 18.9922 15.453 18.9922H5.89078C5.58848 18.9922 5.33199 18.7562 5.30695 18.4552L4.27711 6.02344H17.0666L16.0369 18.4549ZM17.7031 4.85156H3.64062C3.31754 4.85156 3.05469 4.58871 3.05469 4.26562C3.05469 3.94254 3.31754 3.67969 3.64062 3.67969H17.7031C18.0262 3.67969 18.2891 3.94254 18.2891 4.26562C18.2891 4.58871 18.0262 4.85156 17.7031 4.85156Z" fill="#E34061"/>
<path d="M8.32704 17.1981L7.7411 7.74502C7.72106 7.42201 7.44149 7.17635 7.12005 7.19646C6.79704 7.2165 6.55145 7.49455 6.57145 7.81752L7.15739 17.2707C7.17665 17.5813 7.43462 17.8204 7.74165 17.8204C8.08098 17.8204 8.34786 17.5346 8.32704 17.1981Z" fill="#E34061"/>
<path d="M10.6719 7.19531C10.3483 7.19531 10.0859 7.45766 10.0859 7.78125V17.2344C10.0859 17.558 10.3483 17.8203 10.6719 17.8203C10.9955 17.8203 11.2578 17.558 11.2578 17.2344V7.78125C11.2578 7.45766 10.9955 7.19531 10.6719 7.19531Z" fill="#E34061"/>
<path d="M14.2238 7.19646C13.9015 7.17642 13.6227 7.422 13.6027 7.74501L13.0168 17.1981C12.9968 17.5211 13.2424 17.7992 13.5654 17.8192C13.8885 17.8392 14.1664 17.5935 14.1864 17.2706L14.7723 7.81751C14.7923 7.4945 14.5468 7.21646 14.2238 7.19646Z" fill="#E34061"/>
</g>
<defs>
<clipPath id="clip0_834_2937">
<rect width="20" height="20" fill="white" transform="translate(0.671875 0.164062)"/>
</clipPath>
</defs>
</svg>
