<svg width="72" height="73" viewBox="0 0 72 73" fill="none" xmlns="http://www.w3.org/2000/svg">
<circle cx="36" cy="36.4141" r="36" fill="#EDF7F6"/>
<g clip-path="url(#clip0_818_2831)">
<path d="M51.6332 30.5544C51.5709 30.0468 51.1074 29.6864 50.5995 29.7514C49.4142 29.9038 48.4951 30.4913 47.907 30.9909C47.8693 30.6887 47.8203 30.3878 47.7602 30.0892C48.6448 29.6495 49.3261 28.9379 49.6847 28.0522C50.197 26.8179 50.0342 25.2951 49.2596 24.0771C48.8283 23.3979 48.3637 22.7728 47.8789 22.2192C47.5432 21.836 46.9607 21.7973 46.5773 22.1324C45.7428 22.862 45.181 23.9196 44.9527 25.1909C44.9521 25.1942 44.9514 25.1976 44.9509 25.201C44.7724 26.2621 44.8438 27.3802 45.289 28.3646C47.2969 32.7961 45.7795 38.2935 41.4511 41.032C41.1839 41.201 40.9717 41.4315 40.8278 41.6989H36.9228V37.9286L40.1709 39.6151C40.8448 39.965 41.631 39.3938 41.5065 38.6448L40.7361 34.0092L44.0835 30.7117C44.624 30.1794 44.3246 29.2549 43.5734 29.1417L38.9491 28.4451L36.8408 23.7845C36.5145 23.063 35.486 23.0621 35.1592 23.7845L33.0508 28.4451L28.4266 29.1417C27.6764 29.2547 27.3752 30.1786 27.9164 30.7117L31.2638 34.0092L30.4934 38.6448C30.369 39.3933 31.1547 39.9651 31.829 39.6151L35.0771 37.9286V41.6988H31.1528C30.9198 41.2965 30.5513 41.0423 30.2315 40.8215C26.4561 38.2175 24.6795 33.0342 26.7321 28.3542C27.1677 27.3601 27.2478 26.2836 27.0655 25.2009C27.065 25.1976 27.0644 25.1943 27.0638 25.1909C26.8355 23.9196 26.2737 22.862 25.4393 22.1324C25.0559 21.7971 24.4733 21.836 24.1377 22.2191C23.6527 22.7728 23.1881 23.3979 22.7572 24.0765C21.9823 25.295 21.8194 26.8178 22.3318 28.0521C22.6904 28.9378 23.3717 29.6495 24.2563 30.0892C24.196 30.3885 24.1469 30.6901 24.1092 30.9931C23.311 30.3187 22.3497 29.8734 21.4004 29.7514C20.8933 29.6861 20.429 30.0465 20.3668 30.5545C20.2637 31.396 20.2293 32.1523 20.2618 32.8663C20.3022 34.286 21.0432 35.6356 22.1983 36.3935C22.8363 36.8311 23.5905 37.0548 24.3785 37.0548C24.5585 37.0548 24.7403 37.0429 24.9228 37.0195C25.0376 37.2985 25.1627 37.5732 25.2977 37.8431C24.4726 37.7401 23.4328 37.7776 22.4248 38.2763C22.202 38.3865 22.0331 38.582 21.9564 38.8185C21.8796 39.0549 21.9015 39.3124 22.0171 39.5324C22.337 40.1416 22.718 40.8453 23.1952 41.4945C23.9748 42.6227 25.2636 43.4065 26.7724 43.4065C27.6903 43.4065 28.5761 43.0579 29.3055 42.4256C29.4033 42.4943 29.4966 42.5625 29.5398 42.6055C29.5399 42.6101 29.5401 42.6155 29.5401 42.6218V49.0817H28.6172C28.1076 49.0817 27.6944 49.4949 27.6944 50.0045C27.6944 50.5142 28.1076 50.9274 28.6172 50.9274H43.3828C43.8924 50.9274 44.3056 50.5142 44.3056 50.0045C44.3056 49.4949 43.8924 49.0817 43.3828 49.0817H42.4599V42.5778C42.5432 42.5248 42.6249 42.4702 42.7066 42.4154C43.4435 43.0614 44.3432 43.4109 45.3086 43.4123C45.3186 43.4123 45.3285 43.4124 45.3384 43.4124C46.6681 43.4124 48.0459 42.7153 48.9904 41.2767C49.3568 40.7186 49.7357 40.1416 50.0347 39.4922C50.2434 39.0387 50.0537 38.5014 49.6064 38.2796C48.7645 37.8621 47.8203 37.7222 46.7348 37.8541C46.8712 37.5817 46.9968 37.3039 47.1121 37.0212C47.286 37.043 47.4591 37.0538 47.6308 37.0538C48.4167 37.0538 49.1721 36.8266 49.8379 36.3792C50.9762 35.6099 51.7034 34.2625 51.7379 32.8606C51.7709 32.1525 51.7367 31.398 51.6332 30.5544ZM32.9003 33.0305L30.5263 30.6919L33.8222 30.1954C34.1317 30.1487 34.3965 29.9484 34.5255 29.6632L35.9999 26.4038L37.4743 29.6631C37.6034 29.9483 37.8682 30.1487 38.1777 30.1953L41.4736 30.6919L39.0996 33.0305C38.8856 33.2413 38.7876 33.543 38.8368 33.8392L39.3832 37.1264C39.3832 37.1264 36.439 35.5977 36.4382 35.5973C36.1554 35.4601 35.8627 35.441 35.5747 35.5905C34.2972 36.2539 34.7859 36.0001 32.6167 37.1263L33.163 33.8391C33.2123 33.543 33.1143 33.2413 32.9003 33.0305ZM46.7701 25.5122C46.8345 25.156 46.955 24.7172 47.1805 24.3005C47.3588 24.545 47.533 24.8009 47.7019 25.067C48.1593 25.7862 48.2655 26.6599 47.979 27.3471C47.9777 27.3503 47.9763 27.3537 47.975 27.357C47.8272 27.7235 47.5756 28.0311 47.241 28.2623C46.9732 27.541 46.5342 26.9234 46.7701 25.5122ZM24.7755 28.2623C24.441 28.031 24.1895 27.7235 24.0416 27.357C24.0403 27.3537 24.0389 27.3504 24.0375 27.3471C23.751 26.6599 23.8572 25.7862 24.315 25.0665C24.4837 24.8007 24.6577 24.545 24.836 24.3005C25.0614 24.7172 25.1819 25.156 25.2462 25.5121C25.4726 26.8653 25.0879 27.4206 24.7755 28.2623ZM23.2371 34.8679C23.2302 34.8632 23.2234 34.8586 23.2164 34.854C22.5636 34.4286 22.128 33.6257 22.1066 32.8083C22.1065 32.8021 22.1062 32.7959 22.1059 32.7897C22.0923 32.496 22.0923 32.1917 22.1059 31.8727C22.5029 32.0646 22.8836 32.3375 23.2034 32.6676C23.7052 33.1889 24.0294 33.7568 24.1697 34.357C24.2162 34.6438 24.2723 34.9287 24.3393 35.2107C23.9342 35.2045 23.5578 35.0895 23.2371 34.8679ZM24.6896 40.4112C24.5145 40.1739 24.3509 39.9203 24.198 39.664C24.5975 39.6215 25.0304 39.6474 25.4741 39.7437C26.2101 39.9168 26.7971 40.2164 27.2216 40.635C27.413 40.8431 27.6114 41.045 27.8178 41.2396C26.9713 41.7802 25.6533 41.7198 24.6896 40.4112ZM31.3857 49.0817V43.5446H40.6142V49.0817H31.3857ZM47.8324 39.6686C47.6681 39.9309 47.4905 40.1972 47.3216 40.4557C46.5679 41.4788 45.2655 41.924 44.1977 41.2359C44.4131 41.0359 44.6206 40.8288 44.8195 40.6149C45.6339 39.8835 46.8027 39.5683 47.8324 39.6686ZM49.8937 32.7841C49.8933 32.7921 49.893 32.8001 49.8929 32.8082C49.8755 33.6134 49.4481 34.4149 48.8063 34.8487C48.4617 35.0802 48.0875 35.2008 47.6873 35.2102C47.8745 34.4023 47.8472 33.6554 48.8108 32.6698C49.1348 32.3356 49.5068 32.0646 49.8943 31.8744C49.9079 32.1919 49.9076 32.4937 49.8937 32.7841Z" fill="#00968A"/>
<path d="M37.8486 45.3887H34.1572C33.6476 45.3887 33.2344 45.8019 33.2344 46.3115C33.2344 46.8212 33.6476 47.2344 34.1572 47.2344H37.8486C38.3583 47.2344 38.7715 46.8212 38.7715 46.3115C38.7715 45.8019 38.3583 45.3887 37.8486 45.3887Z" fill="#00968A"/>
</g>
<defs>
<clipPath id="clip0_818_2831">
<rect width="31.5" height="31.5" fill="white" transform="translate(20.25 20.666)"/>
</clipPath>
</defs>
</svg>
