<svg width="44" height="44" viewBox="0 0 44 44" fill="none" xmlns="http://www.w3.org/2000/svg">
<path d="M22 0C9.85159 0 0 9.85159 0 22C0 34.1484 9.85159 44 22 44C34.1484 44 44 34.1484 44 22C44 9.85159 34.1484 0 22 0ZM15.6071 33.2578H10.2491V17.1382H15.6071V33.2578ZM12.9282 14.937H12.8933C11.0953 14.937 9.9325 13.6993 9.9325 12.1524C9.9325 10.5706 11.1309 9.36719 12.9638 9.36719C14.7967 9.36719 15.9246 10.5706 15.9595 12.1524C15.9595 13.6993 14.7967 14.937 12.9282 14.937ZM34.9269 33.2578H29.5695V24.6342C29.5695 22.4669 28.7938 20.9889 26.8551 20.9889C25.3751 20.9889 24.4935 21.9859 24.1061 22.9483C23.9645 23.2928 23.9299 23.7741 23.9299 24.2559V33.2578H18.5722C18.5722 33.2578 18.6424 18.6505 18.5722 17.1382H23.9299V19.4205C24.6419 18.3221 25.9159 16.7598 28.7585 16.7598C32.2836 16.7598 34.9269 19.0637 34.9269 24.0148V33.2578Z" fill="#2E1E5A"/>
</svg>
