<svg width="36" height="35" viewBox="0 0 36 35" fill="none" xmlns="http://www.w3.org/2000/svg">
<g clip-path="url(#clip0_825_1725)">
<path d="M23.7977 0.628906H12.1523C10.0971 0.63117 8.43173 2.24897 8.42969 4.24541V31.0126C8.43173 33.009 10.0971 34.6268 12.1523 34.6288H23.7977C25.8529 34.6268 27.5183 33.009 27.5206 31.0126V4.24541C27.5183 2.24897 25.8529 0.63117 23.7977 0.628906ZM17.9751 31.5381C17.0963 31.5381 16.384 30.8462 16.384 29.9924C16.384 29.139 17.0963 28.4471 17.9751 28.4471C18.8537 28.4471 19.566 29.139 19.566 29.9924C19.566 30.8462 18.8537 31.5381 17.9751 31.5381ZM20.3615 5.26527H15.5888C15.1495 5.26527 14.7932 4.91918 14.7932 4.49245C14.7932 4.06571 15.1495 3.71991 15.5888 3.71991H20.3615C20.8008 3.71991 21.1568 4.06571 21.1568 4.49245C21.1568 4.91918 20.8008 5.26527 20.3615 5.26527Z" fill="#607D8B"/>
</g>
<defs>
<clipPath id="clip0_825_1725">
<rect width="35" height="34" fill="white" transform="translate(0.5 0.628906)"/>
</clipPath>
</defs>
</svg>
