<svg width="67" height="63" viewBox="0 0 67 63" fill="none" xmlns="http://www.w3.org/2000/svg">
<path d="M65.0751 24.2024L65.0748 24.2013C64.7697 23.2578 63.9339 22.5885 62.9438 22.4993L62.9431 22.4992L44.0647 20.785L43.4701 20.731L43.2355 20.182L35.7713 2.71136C35.378 1.79634 34.4846 1.20703 33.4932 1.20703C32.5026 1.20703 31.6097 1.79548 31.2159 2.71258C31.2158 2.71292 31.2156 2.71325 31.2155 2.71358L23.7509 20.1821L23.5164 20.731L22.9218 20.785L4.04199 22.4991C4.04165 22.4991 4.04132 22.4991 4.04098 22.4991C3.05228 22.5909 2.2184 23.2582 1.91121 24.2029C1.60383 25.1482 1.88817 26.1821 2.63422 26.833L2.63612 26.8347L16.906 39.3495L17.3536 39.742L17.2218 40.3227L13.0142 58.8573C13.0142 58.8574 13.0141 58.8576 13.0141 58.8578C12.7942 59.832 13.1721 60.834 13.9763 61.4154L65.0751 24.2024ZM65.0751 24.2024C65.3822 25.1485 65.097 26.1814 64.3483 26.8364L64.3475 26.8371L50.0776 39.3494L49.6299 39.742L49.7617 40.3227L53.9694 58.8577C54.1892 59.8284 53.8124 60.8318 53.006 61.4163L53.0059 61.4163C52.2014 61.9995 51.1337 62.045 50.2872 61.5357L50.2849 61.5343L34.0064 51.8017L33.4933 51.4949L32.9802 51.8016L16.6957 61.5343L16.6953 61.5345M65.0751 24.2024L16.6953 61.5345M16.6953 61.5345C16.2997 61.7713 15.8638 61.8887 15.4267 61.8887C14.9189 61.8887 14.413 61.7308 13.9765 61.4155L16.6953 61.5345Z" fill="white" stroke="#607D8B" stroke-width="2"/>
</svg>
