<svg width="67" height="63" viewBox="0 0 67 63" fill="none" xmlns="http://www.w3.org/2000/svg">
<path d="M64.6146 24.3551L64.6152 24.3567C64.8604 25.1124 64.633 25.9366 64.0346 26.4601L64.0334 26.4612L49.7636 38.9734L49.092 39.5623L49.2897 40.4334L53.4974 58.9682C53.4974 58.9682 53.4974 58.9683 53.4974 58.9684C53.673 59.7443 53.3721 60.5447 52.7282 61.0114L52.7281 61.0115C52.0855 61.4773 51.2347 61.5129 50.5606 61.1073L50.5571 61.1052L34.2786 51.3725L33.509 50.9124L32.7393 51.3724L16.4549 61.1051L16.4542 61.1055C16.136 61.2959 15.7888 61.3887 15.4423 61.3887C15.0392 61.3887 14.6358 61.2637 14.285 61.0103C13.644 60.547 13.3415 59.7484 13.5173 58.9685C13.5174 58.9681 13.5175 58.9678 13.5175 58.9675L17.725 40.4334L17.9228 39.5624L17.2513 38.9735L2.98142 26.4588L2.97858 26.4563C2.38424 25.9377 2.15659 25.1132 2.40233 24.3575C2.64783 23.6025 3.31304 23.0704 4.10266 22.997C4.10299 22.997 4.10332 22.997 4.10364 22.9969L22.9826 21.283L23.8745 21.202L24.2264 20.3785L31.6906 2.91064C31.6908 2.91019 31.691 2.90974 31.6912 2.90929C32.0066 2.17532 32.7193 1.70703 33.5089 1.70703C34.2993 1.70703 35.0124 2.17628 35.3273 2.90819C35.3274 2.9084 35.3275 2.90861 35.3276 2.90882L42.7914 20.3784L43.1432 21.202L44.0351 21.283L62.9135 22.9972L62.9145 22.9972C63.7047 23.0685 64.3712 23.6021 64.6146 24.3551Z" fill="#FFEFF2" stroke="#E34061" stroke-width="3"/>
</svg>
