<svg width="45" height="45" viewBox="0 0 45 45" fill="none" xmlns="http://www.w3.org/2000/svg">
<path d="M34.3125 3.53125H10.9375C9.04217 3.53125 7.5 5.07342 7.5 6.96875V38.5938C7.5 40.4891 9.04217 42.0312 10.9375 42.0312H34.3125C36.2078 42.0312 37.75 40.4891 37.75 38.5938V6.96875C37.75 5.07342 36.2078 3.53125 34.3125 3.53125ZM36.375 38.5938C36.375 39.7311 35.4498 40.6562 34.3125 40.6562H10.9375C9.80017 40.6562 8.875 39.7311 8.875 38.5938V6.96875C8.875 5.83142 9.80017 4.90625 10.9375 4.90625H34.3125C35.4498 4.90625 36.375 5.83142 36.375 6.96875V38.5938ZM14.375 18.6562C14.375 20.5516 15.9172 22.0938 17.8125 22.0938H27.4375C29.3328 22.0938 30.875 20.5516 30.875 18.6562V14.2535C31.3198 13.5159 31.5625 12.6695 31.5625 11.7812C31.5625 10.6439 30.6373 9.71875 29.5 9.71875H27.4375V9.03125C27.4375 7.89392 26.5123 6.96875 25.375 6.96875H19.875C18.7377 6.96875 17.8125 7.89392 17.8125 9.03125V9.71875H15.75C15.1927 9.71875 14.6738 9.93661 14.3005 10.3196C13.9054 10.705 13.6875 11.224 13.6875 11.7812C13.6875 12.6833 13.9415 13.525 14.375 14.2473V18.6562ZM27.4375 20.7188H17.8125C16.6752 20.7188 15.75 19.7936 15.75 18.6562V15.725C16.5304 16.2709 17.4775 16.5938 18.5 16.5938H19.875C19.875 17.7311 20.8002 18.6562 21.9375 18.6562H23.3125C24.4498 18.6562 25.375 17.7311 25.375 16.5938H26.75C27.7528 16.5938 28.7034 16.288 29.5 15.7283V18.6562C29.5 19.7936 28.5748 20.7188 27.4375 20.7188ZM19.1875 9.03125C19.1875 8.65225 19.496 8.34375 19.875 8.34375H25.375C25.7543 8.34375 26.0625 8.65225 26.0625 9.03125V9.71875H19.1875V9.03125ZM15.2726 11.2918C15.3972 11.1639 15.5667 11.0938 15.75 11.0938H29.5C29.8793 11.0938 30.1875 11.4023 30.1875 11.7812C30.1875 12.7031 29.8303 13.5651 29.1771 14.2123C28.5339 14.8612 27.6718 15.2188 26.75 15.2188H25.375C25.375 14.0814 24.4498 13.1562 23.3125 13.1562H21.9375C20.8002 13.1562 19.875 14.0814 19.875 15.2188H18.5C16.6047 15.2188 15.0625 13.6766 15.0625 11.7812C15.0625 11.598 15.1327 11.4284 15.2726 11.2918ZM10.9375 25.5312C10.9375 25.1516 11.2453 24.8438 11.625 24.8438H21.25C21.6297 24.8438 21.9375 25.1516 21.9375 25.5312C21.9375 25.9109 21.6297 26.2188 21.25 26.2188H11.625C11.2453 26.2188 10.9375 25.9109 10.9375 25.5312ZM10.9375 28.2812C10.9375 27.9016 11.2453 27.5938 11.625 27.5938H28.125C28.505 27.5938 28.8125 27.9016 28.8125 28.2812C28.8125 28.6609 28.505 28.9688 28.125 28.9688H11.625C11.2453 28.9688 10.9375 28.6609 10.9375 28.2812ZM19.1875 31.0312C19.1875 31.4109 18.8797 31.7188 18.5 31.7188H11.625C11.2453 31.7188 10.9375 31.4109 10.9375 31.0312C10.9375 30.6516 11.2453 30.3438 11.625 30.3438H18.5C18.8797 30.3438 19.1875 30.6516 19.1875 31.0312ZM31.9244 31.7188C31.6693 31.7188 31.445 31.5556 31.3665 31.3132C31.0986 30.4898 30.3661 29.957 29.5 29.957C28.6339 29.957 27.9014 30.4891 27.6336 31.3132C27.555 31.5556 27.3308 31.7188 27.0756 31.7188C26.2095 31.7188 25.4771 32.2508 25.2092 33.0746C24.942 33.8981 25.2213 34.7591 25.9222 35.268C26.1283 35.4184 26.2142 35.6819 26.135 35.925C25.8678 36.7488 26.1478 37.6098 26.848 38.1187C27.549 38.6277 28.454 38.628 29.1549 38.1184C29.3617 37.9687 29.6383 37.9684 29.8451 38.1187C30.1956 38.3732 30.5971 38.5004 30.9986 38.5004C31.4 38.5004 31.8015 38.3732 32.152 38.1187C32.8522 37.6098 33.1322 36.7488 32.865 35.9243C32.7858 35.682 32.8717 35.4184 33.0778 35.2684C33.7788 34.7591 34.0581 33.8981 33.7908 33.0746C33.523 32.2508 32.7905 31.7188 31.9244 31.7188Z" fill="#37474F"/>
</svg>
