<svg width="61" height="60" viewBox="0 0 61 60" fill="none" xmlns="http://www.w3.org/2000/svg">
<circle cx="30.9531" cy="30" r="30" fill="#EDF7F6"/>
<g clip-path="url(#clip0_1636_14212)">
<path d="M30.9511 29.9998C32.7535 29.9998 34.2146 28.5386 34.2146 26.7362C34.2146 24.9338 32.7535 23.4727 30.9511 23.4727C29.1486 23.4727 27.6875 24.9338 27.6875 26.7362C27.6875 28.5386 29.1486 29.9998 30.9511 29.9998Z" stroke="#00968A" stroke-width="2" stroke-miterlimit="10" stroke-linecap="round" stroke-linejoin="round"/>
<path d="M37.476 36.5271C37.476 32.9221 34.5538 30 30.9489 30C27.3441 30 24.4219 32.9221 24.4219 36.5271" stroke="#00968A" stroke-width="2" stroke-miterlimit="10" stroke-linecap="round" stroke-linejoin="round"/>
<path d="M44.0068 36.5278V21.4653C44.0068 20.9327 43.7952 20.422 43.4185 20.0455C43.0419 19.6684 42.5311 19.457 41.9984 19.457C37.1353 19.457 24.7699 19.457 19.9068 19.457C19.3741 19.457 18.8633 19.6684 18.4867 20.0455C18.11 20.422 17.8984 20.9327 17.8984 21.4653C17.8984 25.9781 17.8984 36.5278 17.8984 36.5278" stroke="#00968A" stroke-width="2" stroke-miterlimit="10" stroke-linecap="round" stroke-linejoin="round"/>
<path d="M33.9656 36.5312C33.6441 36.8526 33.2081 37.0333 32.7536 37.0333H29.1528C28.6982 37.0333 28.2621 36.8526 27.9408 36.5312H27.9407H15.8906V38.5396C15.8906 39.0722 16.1022 39.5829 16.4789 39.9594C16.8555 40.3365 17.3663 40.5479 17.8989 40.5479C23.3763 40.5479 38.5299 40.5479 44.0072 40.5479C44.5399 40.5479 45.0508 40.3365 45.4273 39.9594C45.804 39.5829 46.0156 39.0722 46.0156 38.5396C46.0156 37.5354 46.0156 36.5312 46.0156 36.5312H33.9656Z" stroke="#00968A" stroke-width="2" stroke-miterlimit="10" stroke-linecap="round" stroke-linejoin="round"/>
</g>
<defs>
<clipPath id="clip0_1636_14212">
<rect width="32" height="32" fill="white" transform="translate(14.9531 14)"/>
</clipPath>
</defs>
</svg>
