<svg width="23" height="23" viewBox="0 0 23 23" fill="none" xmlns="http://www.w3.org/2000/svg">
<mask id="path-1-inside-1_1636_13948" fill="white">
<path fill-rule="evenodd" clip-rule="evenodd" d="M3.92188 9.72045C3.92188 5.32716 7.4961 1.75293 11.8894 1.75293C16.2827 1.75293 19.8569 5.32716 19.857 9.72045C19.857 14.6613 14.0017 20.0553 12.6773 21.2754C12.5403 21.4017 12.4517 21.4832 12.4232 21.5149C12.1386 21.832 11.6408 21.8325 11.3556 21.5149C11.3272 21.4832 11.2386 21.4017 11.1015 21.2754C9.77717 20.0553 3.92188 14.6613 3.92188 9.72045ZM11.8953 11.395C12.5796 11.395 13.1343 10.8403 13.1343 10.156C13.1343 9.47172 12.5796 8.91699 11.8953 8.91699C11.211 8.91699 10.6562 9.47172 10.6562 10.156C10.6562 10.8403 11.211 11.395 11.8953 11.395Z"/>
</mask>
<path fill-rule="evenodd" clip-rule="evenodd" d="M3.92188 9.72045C3.92188 5.32716 7.4961 1.75293 11.8894 1.75293C16.2827 1.75293 19.8569 5.32716 19.857 9.72045C19.857 14.6613 14.0017 20.0553 12.6773 21.2754C12.5403 21.4017 12.4517 21.4832 12.4232 21.5149C12.1386 21.832 11.6408 21.8325 11.3556 21.5149C11.3272 21.4832 11.2386 21.4017 11.1015 21.2754C9.77717 20.0553 3.92188 14.6613 3.92188 9.72045ZM11.8953 11.395C12.5796 11.395 13.1343 10.8403 13.1343 10.156C13.1343 9.47172 12.5796 8.91699 11.8953 8.91699C11.211 8.91699 10.6562 9.47172 10.6562 10.156C10.6562 10.8403 11.211 11.395 11.8953 11.395Z" fill="white"/>
<path d="M19.857 9.72045H21.857L21.857 9.72042L19.857 9.72045ZM12.6773 21.2754L14.0324 22.7463L14.0324 22.7463L12.6773 21.2754ZM12.4232 21.5149L10.9351 20.1787L10.935 20.1788L12.4232 21.5149ZM11.3556 21.5149L12.8438 20.1788L12.8437 20.1787L11.3556 21.5149ZM11.1015 21.2754L12.4566 19.8044L12.4566 19.8044L11.1015 21.2754ZM11.8894 -0.24707C6.39154 -0.24707 1.92188 4.22258 1.92188 9.72045H5.92188C5.92188 6.43173 8.60066 3.75293 11.8894 3.75293V-0.24707ZM21.857 9.72042C21.8569 4.2226 17.3873 -0.24707 11.8894 -0.24707V3.75293C15.1781 3.75293 17.8569 6.43171 17.857 9.72049L21.857 9.72042ZM14.0324 22.7463C14.7051 22.1267 16.6085 20.3759 18.3492 18.1125C20.0303 15.9266 21.857 12.8894 21.857 9.72045H17.857C17.857 11.4923 16.7561 13.6226 15.1784 15.6739C13.6604 17.6478 11.974 19.204 11.3223 19.8044L14.0324 22.7463ZM13.9113 22.8512C13.8878 22.8774 13.8698 22.8958 13.8635 22.9022C13.8594 22.9064 13.8563 22.9095 13.8546 22.9112C13.8527 22.9131 13.8517 22.9141 13.8516 22.9142C13.8515 22.9143 13.8535 22.9123 13.8583 22.9078C13.8629 22.9034 13.8691 22.8975 13.8772 22.8899C13.9123 22.857 13.9613 22.8118 14.0324 22.7463L11.3223 19.8044C11.246 19.8747 11.0467 20.0545 10.9351 20.1787L13.9113 22.8512ZM9.86746 22.8511C10.9482 24.0548 12.8331 24.0522 13.9115 22.851L10.935 20.1788C11.4442 19.6117 12.3333 19.6102 12.8438 20.1788L9.86746 22.8511ZM9.74644 22.7463C9.81755 22.8118 9.86655 22.857 9.90165 22.8899C9.90976 22.8975 9.91597 22.9033 9.92061 22.9078C9.92537 22.9123 9.92739 22.9143 9.92732 22.9142C9.9272 22.9141 9.92615 22.913 9.92432 22.9112C9.92253 22.9095 9.91945 22.9064 9.91534 22.9022C9.90904 22.8958 9.89109 22.8774 9.86753 22.8512L12.8437 20.1787C12.7322 20.0545 12.5329 19.8747 12.4566 19.8044L9.74644 22.7463ZM1.92188 9.72045C1.92188 12.8894 3.74861 15.9266 5.4297 18.1125C7.17042 20.3759 9.07379 22.1266 9.74645 22.7463L12.4566 19.8044C11.8049 19.204 10.1185 17.6478 8.60044 15.6739C7.02279 13.6226 5.92188 11.4923 5.92188 9.72045H1.92188ZM11.1343 10.156C11.1343 9.73572 11.475 9.39502 11.8953 9.39502V13.395C13.6841 13.395 15.1343 11.9449 15.1343 10.156H11.1343ZM11.8953 10.917C11.475 10.917 11.1343 10.5763 11.1343 10.156H15.1343C15.1343 8.36715 13.6841 6.91699 11.8953 6.91699V10.917ZM12.6562 10.156C12.6562 10.5763 12.3155 10.917 11.8953 10.917V6.91699C10.1064 6.91699 8.65625 8.36715 8.65625 10.156H12.6562ZM11.8953 9.39502C12.3155 9.39502 12.6562 9.73572 12.6562 10.156H8.65625C8.65625 11.9449 10.1064 13.395 11.8953 13.395V9.39502Z" fill="#78909C" mask="url(#path-1-inside-1_1636_13948)"/>
</svg>
