<svg width="18" height="23" viewBox="0 0 18 23" fill="none" xmlns="http://www.w3.org/2000/svg">
<mask id="path-1-inside-1_1636_13922" fill="white">
<path fill-rule="evenodd" clip-rule="evenodd" d="M0.46875 9.65083C0.46875 4.85814 4.36791 0.958984 9.16064 0.958984C13.9533 0.958984 17.8524 4.85814 17.8525 9.65083C17.8525 15.0408 11.4649 20.9252 10.0202 22.2562C9.87062 22.394 9.77403 22.4829 9.74297 22.5175C9.43247 22.8634 8.88938 22.864 8.57831 22.5175C8.54725 22.4829 8.45066 22.394 8.30111 22.2562C6.85634 20.9252 0.46875 15.0408 0.46875 9.65083ZM9.16024 11.9893C10.1893 11.9893 11.0234 11.1551 11.0234 10.1261C11.0234 9.09705 10.1893 8.26287 9.16024 8.26287C8.13123 8.26287 7.29705 9.09705 7.29705 10.1261C7.29705 11.1551 8.13123 11.9893 9.16024 11.9893Z"/>
</mask>
<path fill-rule="evenodd" clip-rule="evenodd" d="M0.46875 9.65083C0.46875 4.85814 4.36791 0.958984 9.16064 0.958984C13.9533 0.958984 17.8524 4.85814 17.8525 9.65083C17.8525 15.0408 11.4649 20.9252 10.0202 22.2562C9.87062 22.394 9.77403 22.4829 9.74297 22.5175C9.43247 22.8634 8.88938 22.864 8.57831 22.5175C8.54725 22.4829 8.45066 22.394 8.30111 22.2562C6.85634 20.9252 0.46875 15.0408 0.46875 9.65083ZM9.16024 11.9893C10.1893 11.9893 11.0234 11.1551 11.0234 10.1261C11.0234 9.09705 10.1893 8.26287 9.16024 8.26287C8.13123 8.26287 7.29705 9.09705 7.29705 10.1261C7.29705 11.1551 8.13123 11.9893 9.16024 11.9893Z" fill="#ECEFF1"/>
<path d="M17.8525 9.65083H19.6025V9.65079L17.8525 9.65083ZM10.0202 22.2562L8.83447 20.9691H8.83447L10.0202 22.2562ZM9.74297 22.5175L8.44086 21.3483L8.44078 21.3484L9.74297 22.5175ZM8.57831 22.5175L9.88047 21.3484L9.88042 21.3483L8.57831 22.5175ZM8.30111 22.2562L7.11541 23.5433L7.11541 23.5433L8.30111 22.2562ZM9.16064 -0.791016C3.40141 -0.791016 -1.28125 3.89164 -1.28125 9.65083H2.21875C2.21875 5.82465 5.3344 2.70898 9.16064 2.70898V-0.791016ZM19.6025 9.65079C19.6024 3.89165 14.9198 -0.791016 9.16064 -0.791016V2.70898C12.9868 2.70898 16.1025 5.82463 16.1025 9.65086L19.6025 9.65079ZM11.2059 23.5433C11.9374 22.8694 13.9904 20.9804 15.8653 18.5425C17.6881 16.1724 19.6025 12.9571 19.6025 9.65083H16.1025C16.1025 11.7345 14.8232 14.1564 13.0909 16.4088C11.4109 18.5933 9.54768 20.3121 8.83447 20.9691L11.2059 23.5433ZM11.0451 23.6867C11.0252 23.7088 11.0105 23.7239 11.0062 23.7283C11.0006 23.734 10.998 23.7365 10.9998 23.7347C11.0038 23.7309 11.014 23.721 11.0338 23.7024C11.0738 23.665 11.1289 23.6142 11.2059 23.5433L8.83447 20.9691C8.73813 21.0578 8.54459 21.2328 8.44086 21.3483L11.0451 23.6867ZM7.27616 23.6867C8.2834 24.8085 10.0401 24.8061 11.0452 23.6866L8.44078 21.3484C8.82484 20.9206 9.49535 20.9195 9.88047 21.3484L7.27616 23.6867ZM7.11541 23.5433C7.19243 23.6142 7.24748 23.665 7.28744 23.7024C7.30724 23.721 7.31753 23.7309 7.32153 23.7347C7.32333 23.7365 7.32071 23.734 7.31513 23.7283C7.31079 23.7239 7.29605 23.7088 7.2762 23.6867L9.88042 21.3483C9.77669 21.2328 9.58316 21.0578 9.48682 20.9691L7.11541 23.5433ZM-1.28125 9.65083C-1.28125 12.9571 0.633192 16.1724 2.45594 18.5425C4.33087 20.9804 6.38385 22.8694 7.11541 23.5433L9.48682 20.9691C8.7736 20.3121 6.91041 18.5933 5.23034 16.4088C3.4981 14.1564 2.21875 11.7345 2.21875 9.65083H-1.28125ZM9.27344 10.1261C9.27344 10.1886 9.22276 10.2393 9.16024 10.2393V13.7393C11.1558 13.7393 12.7734 12.1216 12.7734 10.1261H9.27344ZM9.16024 10.0129C9.22276 10.0129 9.27344 10.0636 9.27344 10.1261H12.7734C12.7734 8.13055 11.1558 6.51287 9.16024 6.51287V10.0129ZM9.04705 10.1261C9.04705 10.0636 9.09773 10.0129 9.16024 10.0129V6.51287C7.16473 6.51287 5.54705 8.13055 5.54705 10.1261H9.04705ZM9.16024 10.2393C9.09773 10.2393 9.04705 10.1886 9.04705 10.1261H5.54705C5.54705 12.1216 7.16473 13.7393 9.16024 13.7393V10.2393Z" fill="#37474F" mask="url(#path-1-inside-1_1636_13922)"/>
</svg>
