<svg width="25" height="24" viewBox="0 0 25 24" fill="none" xmlns="http://www.w3.org/2000/svg">
<g clip-path="url(#clip0_3421_1045)">
<mask id="path-1-outside-1_3421_1045" maskUnits="userSpaceOnUse" x="4.14062" y="0.387207" width="21" height="24" fill="black">
<rect fill="white" x="4.14062" y="0.387207" width="21" height="24"/>
<path fill-rule="evenodd" clip-rule="evenodd" d="M14.5125 9.56852C16.4956 9.56852 18.1032 7.96093 18.1032 5.97787C18.1032 3.9948 16.4956 2.38721 14.5125 2.38721C12.5295 2.38721 10.9219 3.9948 10.9219 5.97787C10.9219 7.96093 12.5295 9.56852 14.5125 9.56852ZM9.36432 15.6842C7.58392 15.6842 6.14062 17.1275 6.14062 18.9079C6.14062 20.6883 7.58392 22.1316 9.36432 22.1316H19.6562C21.4366 22.1316 22.8799 20.6883 22.8799 18.9079C22.8799 17.1275 21.4366 15.6842 19.6562 15.6842H9.36432Z"/>
</mask>
<path d="M16.1032 5.97787C16.1032 6.85636 15.391 7.56852 14.5125 7.56852V11.5685C17.6002 11.5685 20.1032 9.0655 20.1032 5.97787H16.1032ZM14.5125 4.38721C15.391 4.38721 16.1032 5.09937 16.1032 5.97787H20.1032C20.1032 2.89023 17.6002 0.387207 14.5125 0.387207V4.38721ZM12.9219 5.97787C12.9219 5.09937 13.634 4.38721 14.5125 4.38721V0.387207C11.4249 0.387207 8.92188 2.89023 8.92188 5.97787H12.9219ZM14.5125 7.56852C13.634 7.56852 12.9219 6.85636 12.9219 5.97787H8.92188C8.92188 9.0655 11.4249 11.5685 14.5125 11.5685V7.56852ZM8.14062 18.9079C8.14062 18.2321 8.68849 17.6842 9.36432 17.6842V13.6842C6.47935 13.6842 4.14062 16.023 4.14062 18.9079H8.14062ZM9.36432 20.1316C8.68849 20.1316 8.14062 19.5837 8.14062 18.9079H4.14062C4.14062 21.7929 6.47935 24.1316 9.36432 24.1316V20.1316ZM19.6562 20.1316H9.36432V24.1316H19.6562V20.1316ZM20.8799 18.9079C20.8799 19.5837 20.332 20.1316 19.6562 20.1316V24.1316C22.5412 24.1316 24.8799 21.7929 24.8799 18.9079H20.8799ZM19.6562 17.6842C20.332 17.6842 20.8799 18.2321 20.8799 18.9079H24.8799C24.8799 16.023 22.5412 13.6842 19.6562 13.6842V17.6842ZM9.36432 17.6842H19.6562V13.6842H9.36432V17.6842Z" fill="white" mask="url(#path-1-outside-1_3421_1045)"/>
</g>
<defs>
<clipPath id="clip0_3421_1045">
<rect width="24" height="24" fill="white" transform="translate(0.859375)"/>
</clipPath>
</defs>
</svg>
