<svg width="26" height="25" viewBox="0 0 26 25" fill="none" xmlns="http://www.w3.org/2000/svg">
<path d="M22.5861 16.215C22.4213 16.215 22.2598 16.1684 22.1203 16.0807C21.9807 15.9929 21.8688 15.8675 21.7974 15.719C21.726 15.5704 21.6979 15.4047 21.7165 15.2409C21.7351 15.0771 21.7996 14.9219 21.9025 14.7932L23.7984 12.4234L21.9025 10.0536C21.7581 9.87221 21.6915 9.64097 21.7174 9.41058C21.7433 9.1802 21.8595 8.96947 22.0405 8.82465C22.2215 8.67982 22.4526 8.61272 22.6831 8.63806C22.9135 8.6634 23.1245 8.77912 23.2697 8.95982L25.6031 11.8765C25.727 12.0318 25.7945 12.2247 25.7945 12.4234C25.7945 12.6221 25.727 12.8149 25.6031 12.9702L23.2697 15.8869C23.1877 15.9894 23.0837 16.0722 22.9654 16.129C22.847 16.1858 22.7174 16.2152 22.5861 16.215Z" fill="#E34061"/>
<path d="M23.75 13.2969H20.25C20.0179 13.2969 19.7954 13.2047 19.6313 13.0406C19.4672 12.8765 19.375 12.6539 19.375 12.4219C19.375 12.1898 19.4672 11.9673 19.6313 11.8032C19.7954 11.6391 20.0179 11.5469 20.25 11.5469H23.75C23.9821 11.5469 24.2046 11.6391 24.3687 11.8032C24.5328 11.9673 24.625 12.1898 24.625 12.4219C24.625 12.6539 24.5328 12.8765 24.3687 13.0406C24.2046 13.2047 23.9821 13.2969 23.75 13.2969Z" fill="#E34061"/>
<path d="M15 21.4642H13.25C13.018 21.4641 12.7954 21.3719 12.6313 21.2078C12.4673 21.0438 12.3751 20.8212 12.375 20.5892V4.25586C12.3751 4.02381 12.4673 3.80129 12.6313 3.63721C12.7954 3.47313 13.018 3.38092 13.25 3.38086H15C15.6959 3.38172 16.3631 3.65856 16.8552 4.15065C17.3473 4.64275 17.6241 5.30993 17.625 6.00586V18.8392C17.6241 19.5351 17.3473 20.2023 16.8552 20.6944C16.3631 21.1865 15.6959 21.4633 15 21.4642ZM14.125 19.7142H15C15.232 19.7138 15.4543 19.6215 15.6183 19.4575C15.7824 19.2935 15.8747 19.0712 15.875 18.8392V6.00586C15.8747 5.7739 15.7824 5.55155 15.6183 5.38753C15.4543 5.22351 15.232 5.13121 15 5.13086H14.125V19.7142Z" fill="#E34061"/>
<path d="M10.9296 24.1639C10.6139 24.1637 10.2999 24.1172 9.99764 24.026L2.99764 21.9262C2.33505 21.7307 1.75385 21.3253 1.34147 20.7711C0.929091 20.2168 0.70783 19.5437 0.71097 18.8529V5.99218C0.70783 5.30136 0.929091 4.6282 1.34147 4.07395C1.75385 3.51971 2.33505 3.11435 2.99764 2.91886L9.99764 0.81909C10.4767 0.675256 10.9827 0.645437 11.4753 0.732017C11.9679 0.818597 12.4335 1.01917 12.8347 1.31773C13.236 1.61629 13.5619 2.00454 13.7864 2.45149C14.0109 2.89844 14.1277 3.3917 14.1276 3.89186V20.9532C14.1272 21.8024 13.7905 22.6169 13.1912 23.2185C12.5919 23.8202 11.7788 24.1601 10.9296 24.1639ZM10.9239 2.43236C10.7807 2.43251 10.6383 2.45362 10.5012 2.49502L3.50117 4.5948C3.19983 4.68362 2.93547 4.8679 2.74788 5.11991C2.56029 5.37191 2.4596 5.67802 2.46097 5.99218V18.8529C2.45961 19.167 2.56029 19.4731 2.74788 19.7251C2.93548 19.9771 3.19983 20.1614 3.50117 20.2502L10.5012 22.35C10.7189 22.4152 10.9488 22.4287 11.1726 22.3893C11.3964 22.3498 11.6079 22.2586 11.7902 22.1229C11.9725 21.9872 12.1206 21.8108 12.2226 21.6077C12.3246 21.4046 12.3777 21.1805 12.3776 20.9532V3.89186C12.3773 3.50586 12.2243 3.13567 11.9518 2.86219C11.6794 2.58871 11.3099 2.43418 10.9239 2.43236Z" fill="#E34061"/>
<path d="M9.75 15.0469C9.51795 15.0468 9.29543 14.9546 9.13135 14.7905C8.96727 14.6264 8.87506 14.4039 8.875 14.1719V10.6719C8.875 10.4398 8.96719 10.2173 9.13128 10.0532C9.29538 9.88906 9.51794 9.79688 9.75 9.79688C9.98206 9.79688 10.2046 9.88906 10.3687 10.0532C10.5328 10.2173 10.625 10.4398 10.625 10.6719V14.1719C10.6249 14.4039 10.5327 14.6264 10.3687 14.7905C10.2046 14.9546 9.98205 15.0468 9.75 15.0469Z" fill="#E34061"/>
</svg>
