<svg width="23" height="22" viewBox="0 0 23 22" fill="none" xmlns="http://www.w3.org/2000/svg">
<mask id="path-1-inside-1_1636_14190" fill="white">
<path fill-rule="evenodd" clip-rule="evenodd" d="M4.60938 9.15893C4.60938 4.76563 8.1836 1.19141 12.5769 1.19141C16.9702 1.19141 20.5444 4.76563 20.5445 9.15893C20.5445 14.0997 14.6892 19.4938 13.3648 20.7138C13.2278 20.8401 13.1392 20.9217 13.1107 20.9534C12.8261 21.2704 12.3283 21.271 12.0431 20.9534C12.0147 20.9217 11.9261 20.8401 11.789 20.7138C10.4647 19.4938 4.60938 14.0997 4.60938 9.15893ZM12.5828 10.8335C13.2671 10.8335 13.8218 10.2788 13.8218 9.59448C13.8218 8.91019 13.2671 8.35547 12.5828 8.35547C11.8985 8.35547 11.3438 8.91019 11.3438 9.59448C11.3438 10.2788 11.8985 10.8335 12.5828 10.8335Z"/>
</mask>
<path fill-rule="evenodd" clip-rule="evenodd" d="M4.60938 9.15893C4.60938 4.76563 8.1836 1.19141 12.5769 1.19141C16.9702 1.19141 20.5444 4.76563 20.5445 9.15893C20.5445 14.0997 14.6892 19.4938 13.3648 20.7138C13.2278 20.8401 13.1392 20.9217 13.1107 20.9534C12.8261 21.2704 12.3283 21.271 12.0431 20.9534C12.0147 20.9217 11.9261 20.8401 11.789 20.7138C10.4647 19.4938 4.60938 14.0997 4.60938 9.15893ZM12.5828 10.8335C13.2671 10.8335 13.8218 10.2788 13.8218 9.59448C13.8218 8.91019 13.2671 8.35547 12.5828 8.35547C11.8985 8.35547 11.3438 8.91019 11.3438 9.59448C11.3438 10.2788 11.8985 10.8335 12.5828 10.8335Z" fill="white"/>
<path d="M20.5445 9.15893H22.5445L22.5445 9.15889L20.5445 9.15893ZM13.3648 20.7138L14.7199 22.1848L14.7199 22.1848L13.3648 20.7138ZM13.1107 20.9534L11.6226 19.6172L11.6225 19.6173L13.1107 20.9534ZM12.0431 20.9534L13.5313 19.6172L13.5312 19.6172L12.0431 20.9534ZM11.789 20.7138L13.1441 19.2429L13.1441 19.2429L11.789 20.7138ZM12.5769 -0.808594C7.07904 -0.808594 2.60938 3.66106 2.60938 9.15893H6.60938C6.60938 5.87021 9.28816 3.19141 12.5769 3.19141V-0.808594ZM22.5445 9.15889C22.5444 3.66108 18.0748 -0.808594 12.5769 -0.808594V3.19141C15.8656 3.19141 18.5444 5.87019 18.5445 9.15897L22.5445 9.15889ZM14.7199 22.1848C15.3926 21.5651 17.296 19.8143 19.0367 17.5509C20.7178 15.3651 22.5445 12.3279 22.5445 9.15893H18.5445C18.5445 10.9307 17.4436 13.061 15.8659 15.1124C14.3479 17.0863 12.6615 18.6425 12.0098 19.2429L14.7199 22.1848ZM14.5988 22.2897C14.5753 22.3159 14.5573 22.3343 14.551 22.3407C14.5469 22.3449 14.5438 22.3479 14.5421 22.3497C14.5402 22.3515 14.5392 22.3526 14.5391 22.3527C14.539 22.3527 14.541 22.3508 14.5458 22.3463C14.5504 22.3418 14.5566 22.336 14.5647 22.3284C14.5998 22.2955 14.6488 22.2503 14.7199 22.1848L12.0098 19.2429C11.9335 19.3132 11.7342 19.493 11.6226 19.6172L14.5988 22.2897ZM10.555 22.2896C11.6357 23.4933 13.5206 23.4907 14.599 22.2895L11.6225 19.6173C12.1317 19.0502 13.0208 19.0487 13.5313 19.6172L10.555 22.2896ZM10.4339 22.1848C10.5051 22.2503 10.5541 22.2955 10.5892 22.3284C10.5973 22.336 10.6035 22.3418 10.6081 22.3462C10.6129 22.3508 10.6149 22.3527 10.6148 22.3527C10.6147 22.3525 10.6136 22.3515 10.6118 22.3497C10.61 22.3479 10.6069 22.3449 10.6028 22.3407C10.5965 22.3343 10.5786 22.3159 10.555 22.2896L13.5312 19.6172C13.4197 19.493 13.2204 19.3132 13.1441 19.2429L10.4339 22.1848ZM2.60938 9.15893C2.60938 12.3279 4.43611 15.3651 6.1172 17.5509C7.85792 19.8143 9.76129 21.5651 10.434 22.1848L13.1441 19.2429C12.4924 18.6425 10.806 17.0862 9.28794 15.1124C7.71029 13.061 6.60938 10.9307 6.60938 9.15893H2.60938ZM11.8218 9.59448C11.8218 9.1742 12.1625 8.8335 12.5828 8.8335V12.8335C14.3716 12.8335 15.8218 11.3833 15.8218 9.59448H11.8218ZM12.5828 10.3555C12.1625 10.3555 11.8218 10.0148 11.8218 9.59448H15.8218C15.8218 7.80562 14.3716 6.35547 12.5828 6.35547V10.3555ZM13.3438 9.59448C13.3438 10.0148 13.003 10.3555 12.5828 10.3555V6.35547C10.7939 6.35547 9.34375 7.80562 9.34375 9.59448H13.3438ZM12.5828 8.8335C13.003 8.8335 13.3438 9.1742 13.3438 9.59448H9.34375C9.34375 11.3833 10.7939 12.8335 12.5828 12.8335V8.8335Z" fill="#78909C" mask="url(#path-1-inside-1_1636_14190)"/>
</svg>
