<svg width="54" height="55" viewBox="0 0 54 55" fill="none" xmlns="http://www.w3.org/2000/svg">
<g clip-path="url(#clip0_1636_14352)">
<mask id="mask0_1636_14352" style="mask-type:luminance" maskUnits="userSpaceOnUse" x="0" y="0" width="54" height="55">
<path d="M54 0.6875H0V54.6875H54V0.6875Z" fill="white"/>
<path d="M29.6406 27.6875C29.6406 29.1437 28.4601 30.3242 27.0039 30.3242C25.5477 30.3242 24.3672 29.1437 24.3672 27.6875C24.3672 26.2313 25.5477 25.0508 27.0039 25.0508C28.4601 25.0508 29.6406 26.2313 29.6406 27.6875Z" fill="white"/>
<path d="M40.1875 27.6875C40.1875 29.1437 39.007 30.3242 37.5508 30.3242C36.0946 30.3242 34.9141 29.1437 34.9141 27.6875C34.9141 26.2313 36.0946 25.0508 37.5508 25.0508C39.007 25.0508 40.1875 26.2313 40.1875 27.6875Z" fill="white"/>
<path d="M19.0937 27.6875C19.0937 29.1437 17.9132 30.3242 16.457 30.3242C15.0008 30.3242 13.8203 29.1437 13.8203 27.6875C13.8203 26.2313 15.0008 25.0508 16.457 25.0508C17.9132 25.0508 19.0937 26.2313 19.0937 27.6875Z" fill="white"/>
</mask>
<g mask="url(#mask0_1636_14352)">
<mask id="mask1_1636_14352" style="mask-type:luminance" maskUnits="userSpaceOnUse" x="0" y="0" width="54" height="55">
<path d="M0 0.687508H54V54.6875H0V0.687508Z" fill="white"/>
</mask>
<g mask="url(#mask1_1636_14352)">
<path d="M27 2.79688C13.2533 2.79688 2.10938 13.9408 2.10938 27.6875C2.10938 32.5269 3.49197 37.0428 5.88157 40.8645L2.10938 52.5781L13.8231 48.8059C17.6447 51.1955 22.1606 52.5781 27 52.5781C40.7467 52.5781 51.8906 41.4342 51.8906 27.6875C51.8906 13.9408 40.7467 2.79688 27 2.79688Z" stroke="white" stroke-width="4" stroke-miterlimit="10" stroke-linecap="round" stroke-linejoin="round"/>
<path d="M29.6406 27.6875C29.6406 29.1437 28.4601 30.3242 27.0039 30.3242C25.5477 30.3242 24.3672 29.1437 24.3672 27.6875C24.3672 26.2313 25.5477 25.0508 27.0039 25.0508C28.4601 25.0508 29.6406 26.2313 29.6406 27.6875Z" fill="white"/>
<path d="M40.1875 27.6875C40.1875 29.1437 39.007 30.3242 37.5508 30.3242C36.0946 30.3242 34.9141 29.1437 34.9141 27.6875C34.9141 26.2313 36.0946 25.0508 37.5508 25.0508C39.007 25.0508 40.1875 26.2313 40.1875 27.6875Z" fill="white"/>
<path d="M19.0937 27.6875C19.0937 29.1437 17.9132 30.3242 16.457 30.3242C15.0008 30.3242 13.8203 29.1437 13.8203 27.6875C13.8203 26.2313 15.0008 25.0508 16.457 25.0508C17.9132 25.0508 19.0937 26.2313 19.0937 27.6875Z" fill="white"/>
</g>
</g>
</g>
<defs>
<clipPath id="clip0_1636_14352">
<rect width="54" height="54" fill="white" transform="translate(0 0.6875)"/>
</clipPath>
</defs>
</svg>
