<svg width="27" height="27" viewBox="0 0 27 27" fill="none" xmlns="http://www.w3.org/2000/svg">
<path d="M21.6418 15.6557C21.6418 21.3363 17.0367 25.9414 11.356 25.9414C5.67538 25.9414 1.07031 21.3363 1.07031 15.6557C1.07031 9.97507 5.67538 5.37001 11.356 5.37001C17.0367 5.37001 21.6418 9.97507 21.6418 15.6557Z" stroke="#37474F" stroke-width="2" stroke-miterlimit="10"/>
<path d="M4.5 15.6553C4.5 11.8682 7.57006 8.79809 11.3571 8.79809" stroke="#37474F" stroke-width="2" stroke-miterlimit="10"/>
<path d="M14.7868 15.6554C14.7868 17.5489 13.2518 19.084 11.3583 19.084C9.46469 19.084 7.92969 17.5489 7.92969 15.6554C7.92969 13.7619 9.46469 12.2269 11.3583 12.2269C13.2518 12.2269 14.7868 13.7619 14.7868 15.6554Z" stroke="#37474F" stroke-width="2" stroke-miterlimit="10"/>
<path d="M25.0692 5.37012H21.6406V1.94155H25.0692V5.37012Z" stroke="#37474F" stroke-width="2" stroke-miterlimit="10"/>
<path d="M23.3556 5.37018V10.513L17.3516 17.5479" stroke="#37474F" stroke-width="2" stroke-miterlimit="10"/>
</svg>
