<svg width="25" height="25" viewBox="0 0 25 25" fill="none" xmlns="http://www.w3.org/2000/svg">
<g clip-path="url(#clip0_1636_14316)">
<path d="M23.4794 17.7502C23.4396 17.7172 18.9426 14.5177 17.7284 14.7134C17.1426 14.8169 16.8081 15.2167 16.1369 16.0162C16.0289 16.1452 15.7686 16.4534 15.5676 16.6732C15.1434 16.535 14.7296 16.3665 14.3294 16.1692C12.2635 15.1634 10.5944 13.4943 9.58862 11.4284C9.39127 11.0283 9.22284 10.6144 9.08463 10.1902C9.30513 9.98844 9.61412 9.72819 9.74613 9.61719C10.5419 8.94969 10.9409 8.61444 11.0444 8.02794C11.2566 6.81369 8.04063 2.31819 8.00763 2.27769C7.86117 2.06998 7.67042 1.89738 7.44915 1.77235C7.22788 1.64732 6.98162 1.57298 6.72812 1.55469C5.42462 1.55469 1.70312 6.38169 1.70312 7.19544C1.70312 7.24269 1.77138 12.0457 7.69413 18.0704C13.7121 23.9864 18.5151 24.0547 18.5624 24.0547C19.3754 24.0547 24.2031 20.3332 24.2031 19.0297C24.1846 18.7762 24.1101 18.5299 23.985 18.3086C23.8598 18.0874 23.6871 17.8966 23.4794 17.7502ZM18.4791 22.5502C17.8281 22.4947 13.7931 21.9629 8.75312 17.0122C3.77837 11.9474 3.26012 7.90569 3.20837 7.27944C4.19146 5.73642 5.37872 4.33345 6.73787 3.10869C6.76787 3.13869 6.80762 3.18369 6.85862 3.24219C7.90099 4.66511 8.79893 6.18839 9.53912 7.78944C9.29842 8.03159 9.044 8.25972 8.77713 8.47269C8.36327 8.78803 7.98324 9.14544 7.64313 9.53919C7.58558 9.61993 7.54461 9.71129 7.5226 9.80797C7.50058 9.90465 7.49796 10.0047 7.51487 10.1024C7.6736 10.79 7.91669 11.4553 8.23862 12.0832C9.39204 14.4517 11.3059 16.3653 13.6746 17.5184C14.3024 17.8408 14.9677 18.0842 15.6554 18.2429C15.7531 18.2602 15.8532 18.2578 15.95 18.2358C16.0467 18.2137 16.1381 18.1726 16.2186 18.1147C16.6138 17.7732 16.9724 17.3917 17.2889 16.9762C17.5244 16.6957 17.8386 16.3214 17.9579 16.2157C19.563 16.9552 21.0897 17.8542 22.5149 18.8992C22.5771 18.9517 22.6214 18.9922 22.6506 19.0184C21.4258 20.378 20.0226 21.5656 18.4791 22.5487V22.5502Z" fill="#E34061"/>
<path d="M18.2031 12.0547H19.7031C19.7013 10.4639 19.0686 8.93885 17.9438 7.81402C16.819 6.68919 15.2939 6.05647 13.7031 6.05469V7.55469C14.8962 7.55588 16.0401 8.03037 16.8838 8.87402C17.7274 9.71768 18.2019 10.8616 18.2031 12.0547Z" fill="#E34061"/>
<path d="M21.9531 12.0547H23.4531C23.4501 9.46974 22.422 6.99152 20.5941 5.16368C18.7663 3.33585 16.2881 2.30766 13.7031 2.30469V3.80469C15.8904 3.80727 17.9873 4.67729 19.5339 6.22391C21.0805 7.77052 21.9505 9.86744 21.9531 12.0547Z" fill="#E34061"/>
</g>
<defs>
<clipPath id="clip0_1636_14316">
<rect width="24" height="24" fill="white" transform="translate(0.953125 0.804688)"/>
</clipPath>
</defs>
</svg>
