<svg width="22" height="22" viewBox="0 0 22 22" fill="none" xmlns="http://www.w3.org/2000/svg">
<g clip-path="url(#clip0_1_176)">
<path d="M19.9375 0H2.0625C0.923398 0 0 0.923398 0 2.0625V19.9375C0 21.0766 0.923398 22 2.0625 22H19.9375C21.0766 22 22 21.0766 22 19.9375V2.0625C22 0.923398 21.0766 0 19.9375 0ZM4.8125 20.625H2.0625C1.68279 20.625 1.375 20.3172 1.375 19.9375V2.0625C1.375 1.68279 1.68279 1.375 2.0625 1.375H3.4375V11.6875C3.4375 12.0672 3.74529 12.375 4.125 12.375H4.8125V20.625ZM10.3125 20.625H6.1875V12.375H6.875C7.25471 12.375 7.5625 12.0672 7.5625 11.6875V1.375H8.9375V11.6875C8.9375 12.0672 9.24529 12.375 9.625 12.375H10.3125V20.625ZM15.8125 20.625H11.6875V12.375H12.375C12.7547 12.375 13.0625 12.0672 13.0625 11.6875V1.375H14.4375V11.6875C14.4375 12.0672 14.7453 12.375 15.125 12.375H15.8125V20.625ZM20.625 19.9375C20.625 20.3172 20.3172 20.625 19.9375 20.625H17.1875V12.375H17.875C18.2547 12.375 18.5625 12.0672 18.5625 11.6875V1.375H19.9375C20.3172 1.375 20.625 1.68279 20.625 2.0625V19.9375Z" fill="#455A64"/>
</g>
<defs>
<clipPath id="clip0_1_176">
<rect width="22" height="22" fill="white"/>
</clipPath>
</defs>
</svg>
