<svg width="23" height="23" viewBox="0 0 23 23" fill="none" xmlns="http://www.w3.org/2000/svg">
<path d="M20.6094 0.941406H2.73438C1.59527 0.941406 0.671875 1.8648 0.671875 3.00391V20.8789C0.671875 22.018 1.59527 22.9414 2.73438 22.9414H20.6094C21.7485 22.9414 22.6719 22.018 22.6719 20.8789V3.00391C22.6719 1.8648 21.7485 0.941406 20.6094 0.941406ZM5.48438 21.5664H2.73438C2.35466 21.5664 2.04688 21.2586 2.04688 20.8789V3.00391C2.04688 2.62419 2.35466 2.31641 2.73438 2.31641H4.10938V12.6289C4.10938 13.0086 4.41716 13.3164 4.79688 13.3164H5.48438V21.5664ZM10.9844 21.5664H6.85938V13.3164H7.54688C7.92659 13.3164 8.23438 13.0086 8.23438 12.6289V2.31641H9.60938V12.6289C9.60938 13.0086 9.91716 13.3164 10.2969 13.3164H10.9844V21.5664ZM16.4844 21.5664H12.3594V13.3164H13.0469C13.4266 13.3164 13.7344 13.0086 13.7344 12.6289V2.31641H15.1094V12.6289C15.1094 13.0086 15.4172 13.3164 15.7969 13.3164H16.4844V21.5664ZM21.2969 20.8789C21.2969 21.2586 20.9891 21.5664 20.6094 21.5664H17.8594V13.3164H18.5469C18.9266 13.3164 19.2344 13.0086 19.2344 12.6289V2.31641H20.6094C20.9891 2.31641 21.2969 2.62419 21.2969 3.00391V20.8789Z" fill="white"/>
</svg>
