<svg width="29" height="29" viewBox="0 0 29 29" fill="none" xmlns="http://www.w3.org/2000/svg">
<path d="M13.0212 2.7085C7.23599 2.7085 2.52344 7.42104 2.52344 13.2062C2.52344 18.9914 7.23599 23.7131 13.0212 23.7131C15.4922 23.7131 17.7648 22.8471 19.5609 21.4094L23.9336 25.7798C24.1543 25.9913 24.449 26.108 24.7547 26.1049C25.0603 26.1018 25.3526 25.9791 25.5689 25.7631C25.7852 25.5471 25.9083 25.255 25.9119 24.9494C25.9154 24.6437 25.7991 24.3488 25.5879 24.1279L21.2152 19.7551C22.6542 17.9563 23.5212 15.6801 23.5212 13.2062C23.5212 7.42104 18.8063 2.7085 13.0212 2.7085ZM13.0212 5.04186C17.5453 5.04186 21.1855 8.6821 21.1855 13.2062C21.1855 17.7304 17.5453 21.3798 13.0212 21.3798C8.49701 21.3798 4.85677 17.7304 4.85677 13.2062C4.85677 8.6821 8.49701 5.04186 13.0212 5.04186Z" fill="white"/>
</svg>
