<svg width="21" height="21" viewBox="0 0 21 21" fill="none" xmlns="http://www.w3.org/2000/svg">
<path d="M9.94336 0.931152C4.98464 0.931152 0.945312 4.97047 0.945312 9.92921C0.945312 14.8879 4.98464 18.9351 9.94336 18.9351C12.0614 18.9351 14.0093 18.1929 15.5488 16.9605L19.2969 20.7065C19.486 20.8879 19.7386 20.9879 20.0006 20.9852C20.2626 20.9825 20.5132 20.8774 20.6986 20.6922C20.884 20.5071 20.9895 20.2568 20.9925 19.9948C20.9956 19.7328 20.8959 19.48 20.7148 19.2906L16.9668 15.5426C18.2002 14.0007 18.9434 12.0497 18.9434 9.92921C18.9434 4.97047 14.9021 0.931152 9.94336 0.931152ZM9.94336 2.93118C13.8212 2.93118 16.9414 6.05138 16.9414 9.92921C16.9414 13.807 13.8212 16.9351 9.94336 16.9351C6.06552 16.9351 2.94531 13.807 2.94531 9.92921C2.94531 6.05138 6.06552 2.93118 9.94336 2.93118Z" fill="#37474F"/>
</svg>
