<svg width="25" height="25" viewBox="0 0 25 25" fill="none" xmlns="http://www.w3.org/2000/svg">
<path fill-rule="evenodd" clip-rule="evenodd" d="M13.0731 4.12113C13.3418 3.99983 13.6566 4.0472 13.8777 4.24219L22.0987 11.4922C22.8887 12.1889 22.8887 13.4205 22.0987 14.1172L13.8777 21.3672C13.6566 21.5622 13.3418 21.6096 13.0731 21.4883C12.8044 21.367 12.6317 21.0995 12.6317 20.8047V17.0555C10.684 17.0619 9.01853 17.1155 7.50643 17.5488C5.8966 18.0101 4.43478 18.9125 3.05312 20.7547C2.85943 21.013 2.52222 21.1183 2.21596 21.0162C1.9097 20.9142 1.70312 20.6276 1.70312 20.3047C1.70312 15.686 3.23207 12.7108 5.51982 10.9069C7.61382 9.25576 10.242 8.66733 12.6317 8.56984V4.8047C12.6317 4.50989 12.8044 4.24242 13.0731 4.12113ZM14.1317 6.46611V9.1047C14.1317 9.6281 13.7101 10.05 13.1907 10.0557C10.8292 10.0818 8.33712 10.5957 6.4486 12.0848C4.92103 13.2893 3.70797 15.196 3.32773 18.2119C4.49503 17.1429 5.74632 16.4928 7.09324 16.1068C8.98271 15.5654 11.0338 15.5552 13.1808 15.5547C13.7024 15.5546 14.1317 15.9768 14.1317 16.5047V19.1433L21.1066 12.9922C21.2194 12.8927 21.2194 12.7167 21.1066 12.6172L14.1317 6.46611Z" fill="#E34061"/>
</svg>
