<svg width="25" height="25" viewBox="0 0 25 25" fill="none" xmlns="http://www.w3.org/2000/svg">
<g clip-path="url(#clip0_1636_13626)">
<path d="M19.9295 5.01074C19.3179 5.01074 18.8203 5.50945 18.8203 6.12248V19.769C18.8763 21.2443 20.9873 21.239 21.0429 19.769V6.12248C21.0429 5.50949 20.5435 5.01074 19.9295 5.01074Z" fill="#37474F"/>
<path d="M12.6681 5.01074C12.0541 5.01074 11.5547 5.50945 11.5547 6.12248V19.769C11.6108 21.2422 13.726 21.2411 13.7816 19.769V6.12248C13.7816 5.50949 13.2821 5.01074 12.6681 5.01074Z" fill="#37474F"/>
<path d="M16.3044 9.0752C15.6928 9.0752 15.1953 9.5739 15.1953 10.1869V15.7035C15.2513 17.1789 17.3623 17.1734 17.4179 15.7035V10.1869C17.4179 9.5739 16.9184 9.0752 16.3044 9.0752Z" fill="#37474F"/>
<path d="M23.5623 11.1074C22.9507 11.1074 22.4531 11.6061 22.4531 12.2192V13.6707C22.5091 15.146 24.6201 15.1406 24.6757 13.6707V12.2192C24.6757 11.6061 24.1763 11.1074 23.5623 11.1074Z" fill="#37474F"/>
<path d="M1.78534 11.1074C1.17137 11.1074 0.671875 11.6061 0.671875 12.2191V13.6706C0.728031 15.1417 2.83905 15.1449 2.89445 13.6706V12.2191C2.89445 11.6061 2.39692 11.1074 1.78534 11.1074Z" fill="#37474F"/>
<path d="M5.41034 7.04297C4.79637 7.04297 4.29688 7.54167 4.29688 8.1547V17.7362C4.35303 19.2074 6.46409 19.2105 6.51955 17.7362V8.1547C6.51955 7.54167 6.02197 7.04297 5.41034 7.04297Z" fill="#37474F"/>
<path d="M9.04311 0.945312C8.42914 0.945312 7.92969 1.44402 7.92969 2.05705V23.8336C7.9858 25.3047 10.0968 25.3078 10.1523 23.8336V2.05705C10.1523 1.44402 9.65469 0.945312 9.04311 0.945312Z" fill="#37474F"/>
</g>
<defs>
<clipPath id="clip0_1636_13626">
<rect width="24" height="24" fill="white" transform="translate(0.671875 0.941406)"/>
</clipPath>
</defs>
</svg>
