<svg width="20" height="21" viewBox="0 0 20 21" fill="none" xmlns="http://www.w3.org/2000/svg">
<g clip-path="url(#clip0_1636_13729)">
<path d="M19.9479 8.36777C19.8169 7.96279 19.4577 7.67516 19.0328 7.63686L13.2602 7.1127L10.9776 1.77001C10.8093 1.37846 10.426 1.125 10.0001 1.125C9.57422 1.125 9.19091 1.37845 9.0226 1.77092L6.73998 7.1127L0.966514 7.63686C0.542309 7.67607 0.184023 7.96279 0.0523365 8.36777C-0.0793503 8.77275 0.0422654 9.21694 0.363166 9.49695L4.72653 13.3236L3.43987 18.9914C3.34573 19.4081 3.50747 19.8389 3.85325 20.0888C4.0391 20.2231 4.25655 20.2914 4.47582 20.2914C4.66488 20.2914 4.85242 20.2405 5.02073 20.1398L10.0001 17.1638L14.9776 20.1398C15.3419 20.3589 15.801 20.3389 16.146 20.0888C16.492 19.8381 16.6536 19.4072 16.5594 18.9914L15.2728 13.3236L19.6361 9.49771C19.957 9.21694 20.0796 8.77351 19.9479 8.36777Z" fill="#FFC107"/>
</g>
<defs>
<clipPath id="clip0_1636_13729">
<rect width="20" height="20" fill="white" transform="translate(0 0.696289)"/>
</clipPath>
</defs>
</svg>
