<svg width="34" height="33" viewBox="0 0 34 33" fill="none" xmlns="http://www.w3.org/2000/svg">
<g clip-path="url(#clip0_1636_14204)">
<path d="M32.7626 13.5362L32.7623 13.5353C32.6603 13.2319 32.3694 12.9913 31.9934 12.9587L31.9929 12.9586L22.3874 12.12L21.8733 12.0751L21.6638 11.6036L17.8664 3.05708C17.8663 3.057 17.8663 3.05693 17.8663 3.05685C17.7324 2.75758 17.4155 2.54297 17.0386 2.54297C16.6621 2.54297 16.3454 2.75721 16.2113 3.05757C16.2112 3.05767 16.2112 3.05776 16.2112 3.05785L12.4134 11.6036L12.2038 12.0751L11.6899 12.12L2.08419 12.9585C2.08393 12.9585 2.08367 12.9585 2.08341 12.9586C1.70785 12.9923 1.41741 13.2321 1.31441 13.5367C1.21308 13.8363 1.3018 14.1718 1.56515 14.3928L1.56682 14.3942L8.82746 20.5169L9.23852 20.8635L9.11497 21.3869L6.97419 30.4543C6.97416 30.4544 6.97412 30.4546 6.97409 30.4547C6.90193 30.7626 7.02135 31.0912 7.30963 31.2916C7.46951 31.4026 7.65644 31.4593 7.8462 31.4593C8.00892 31.4593 8.17034 31.4173 8.31656 31.3332L8.31695 31.333L16.6026 26.5714L17.0387 26.3208L17.4747 26.5714L25.7573 31.333L25.7594 31.3342C26.0718 31.5149 26.4699 31.498 26.7651 31.2922L26.7652 31.2922C27.055 31.0902 27.1735 30.7609 27.1017 30.4552L32.7626 13.5362ZM32.7626 13.5362C32.8637 13.8356 32.7754 14.1712 32.5096 14.3947L32.5089 14.3953L25.2483 20.5168L24.8372 20.8635L24.9607 21.3869L27.1016 30.4547L32.7626 13.5362Z" stroke="#E34061" stroke-width="1.75"/>
</g>
<defs>
<clipPath id="clip0_1636_14204">
<rect width="33.28" height="32" fill="white" transform="translate(0.398438 0.984375)"/>
</clipPath>
</defs>
</svg>
