<svg width="28" height="29" viewBox="0 0 28 29" fill="none" xmlns="http://www.w3.org/2000/svg">
<g clip-path="url(#clip0_1636_14389)">
<path d="M26.9755 11.5022L26.9759 11.5033C27.0366 11.6905 26.9806 11.894 26.8321 12.0239L26.8313 12.0246L20.7226 17.3809L20.2748 17.7735L20.4067 18.3542L22.2079 26.2884C22.2515 26.4813 22.177 26.6788 22.0176 26.7943L22.0175 26.7944C21.8583 26.9098 21.6494 26.9179 21.4842 26.8185L21.4819 26.8171L14.5133 22.6507L14.0002 22.3439L13.4871 22.6506L6.516 26.817L6.51555 26.8173C6.43473 26.8656 6.34957 26.8877 6.26615 26.8877C6.16844 26.8877 6.06922 26.8577 5.98037 26.7936C5.82277 26.6797 5.74729 26.4832 5.79115 26.2884C5.79118 26.2882 5.79121 26.2881 5.79124 26.288L7.59233 18.3542L7.72414 17.7735L7.2765 17.381L1.16779 12.0236L1.1659 12.0219C1.02006 11.8947 0.963184 11.6916 1.02426 11.5038C1.0852 11.3164 1.24919 11.1853 1.4447 11.1671C1.44486 11.1671 1.44501 11.1671 1.44517 11.167L9.52638 10.4334L10.1209 10.3794L10.3555 9.83041L13.5507 2.35311C13.5508 2.35296 13.5508 2.35282 13.5509 2.35267C13.6297 2.16932 13.8059 2.05469 14.0001 2.05469C14.1947 2.05469 14.3709 2.1696 14.4496 2.3518C14.4497 2.35207 14.4498 2.35234 14.4499 2.35261L17.6447 9.83036L17.8793 10.3794L18.4739 10.4334L26.5555 11.1672L26.5561 11.1672C26.7513 11.1848 26.9154 11.3162 26.9755 11.5022Z" fill="#FFE4EA" stroke="#E34061" stroke-width="2"/>
</g>
<defs>
<clipPath id="clip0_1636_14389">
<rect width="28" height="28" fill="white" transform="translate(0 0.453125)"/>
</clipPath>
</defs>
</svg>
