<svg width="64" height="64" viewBox="0 0 64 64" fill="none" xmlns="http://www.w3.org/2000/svg">
<path d="M21.2702 34.9543H17.2615C16.5055 34.9543 15.8906 34.3329 15.8906 33.5692V30.1859L12.949 31.8794C12.6723 32.0581 12.2822 32.1193 11.9177 32.025C11.5515 31.9295 11.2394 31.6827 11.0616 31.3481L9.07307 27.9129C8.88603 27.6 8.83226 27.2066 8.93244 26.8454C9.03171 26.4883 9.27619 26.1836 9.60248 26.0094L12.5018 24.3343L9.57491 22.6436C9.27574 22.4851 9.03171 22.1804 8.93244 21.8228C8.83226 21.4612 8.88649 21.0678 9.08088 20.7438L11.0777 17.2911C11.2403 16.9855 11.5528 16.7387 11.9196 16.6436C12.284 16.5485 12.6742 16.6114 12.989 16.8146L15.8906 18.4837V15.0995C15.8906 14.3362 16.5055 13.7148 17.2615 13.7148H21.2702C22.034 13.7148 22.6553 14.3362 22.6553 15.0995V18.4805L25.5818 16.7907C25.8828 16.6082 26.2509 16.5517 26.6066 16.6404C26.9642 16.7295 27.2675 16.9561 27.4605 17.2787L29.4729 20.7562C29.8415 21.4465 29.6071 22.2815 28.9665 22.6464L26.0345 24.3343L28.9701 26.0241C29.6075 26.3899 29.8405 27.2231 29.489 27.8835L27.4683 31.3775C27.2721 31.7052 26.9761 31.9304 26.6273 32.0232C26.2688 32.1183 25.8925 32.0646 25.5685 31.8706L22.6553 30.1886V33.5692C22.6553 34.3329 22.034 34.9543 21.2702 34.9543ZM17.773 33.0719H20.773V28.5581C20.773 28.2217 20.9522 27.9111 21.2436 27.7429C21.5349 27.5747 21.8934 27.5751 22.1847 27.7433L26.091 29.9988L27.5928 27.4033L23.6783 25.15C23.3865 24.9818 23.2068 24.6712 23.2068 24.3343C23.2068 23.9975 23.3865 23.6868 23.6783 23.5186L27.5928 21.2654L26.091 18.6698L22.1847 20.9258C21.8934 21.094 21.5349 21.0944 21.2436 20.9262C20.9522 20.758 20.773 20.4474 20.773 20.111V15.5972H17.773V20.111C17.773 20.4469 17.5937 20.7576 17.3028 20.9258C17.0119 21.094 16.654 21.094 16.3621 20.9267L12.4513 18.6753L10.9527 21.2663L14.8543 23.5195C15.1457 23.6873 15.3249 23.9979 15.3249 24.3343C15.3249 24.6707 15.1457 24.9814 14.8543 25.1491L10.9527 27.4028L12.4522 29.9943L16.3621 27.7424C16.654 27.5747 17.0119 27.5756 17.3028 27.7433C17.5937 27.9115 17.773 28.2222 17.773 28.5581V33.0719ZM12.6944 30.4125L12.7073 30.4345C12.7031 30.4272 12.699 30.4198 12.6944 30.4125ZM12.0156 30.2461C12.0005 30.2539 11.9853 30.2622 11.9706 30.2718L12.0156 30.2461ZM26.5119 30.242L26.523 30.2488C26.5193 30.2466 26.5156 30.2443 26.5119 30.242ZM10.5377 27.6422L10.5161 27.6546C10.5234 27.651 10.5308 27.6468 10.5377 27.6422ZM10.6953 26.9584L10.7027 26.9704C10.7004 26.9662 10.6981 26.9621 10.6953 26.9584ZM10.7091 21.6877L10.7027 21.6992C10.7045 21.6955 10.7068 21.6919 10.7091 21.6877ZM10.4885 20.9984L10.5188 21.0159C10.5087 21.0099 10.4986 21.0039 10.4885 20.9984ZM28.0308 21.0131C28.0294 21.014 28.028 21.0149 28.0267 21.0154L28.0308 21.0131ZM12.0097 18.4212C12.0184 18.4272 12.028 18.4327 12.0381 18.4377L12.0097 18.4212ZM26.5377 18.412L26.523 18.4203C26.528 18.4175 26.5326 18.4148 26.5377 18.412ZM12.7229 18.2057L12.705 18.2364C12.7114 18.2263 12.7174 18.2158 12.7229 18.2057Z" fill="#E34061"/>
<path d="M59.3984 41.6427H4.59972C3.10156 41.6427 1.88281 40.4239 1.88281 38.9258V8.79894C1.88281 7.30078 3.10156 6.08203 4.59972 6.08203H59.3984C60.8966 6.08203 62.1158 7.30078 62.1158 8.79894V38.9258C62.1158 40.4239 60.8966 41.6427 59.3984 41.6427ZM4.59972 7.96438C4.13971 7.96438 3.76517 8.33892 3.76517 8.79894V38.9258C3.76517 39.3858 4.13971 39.7603 4.59972 39.7603H59.3984C59.8589 39.7603 60.2335 39.3858 60.2335 38.9258V8.79894C60.2335 8.33892 59.8589 7.96438 59.3984 7.96438H4.59972Z" fill="#E34061"/>
<path d="M35.2983 56.4979H28.7146C28.1949 56.4979 27.7734 56.0765 27.7734 55.5568V40.6951C27.7734 40.1753 28.1949 39.7539 28.7146 39.7539H35.2983C35.818 39.7539 36.2394 40.1753 36.2394 40.6951V55.5568C36.2394 56.0765 35.818 56.4979 35.2983 56.4979ZM29.6558 54.6156H34.3571V41.6363H29.6558V54.6156Z" fill="#E34061"/>
<path d="M17.1151 7.96402C16.6951 7.96448 16.3122 7.68139 16.2038 7.25538L15.4225 4.1938C15.3426 3.96632 15.1188 3.8404 14.9938 3.79122C14.8702 3.74343 14.6192 3.68323 14.3449 3.83213C13.8881 4.08075 13.3168 3.91255 13.0682 3.45621C12.8191 2.99986 12.9878 2.42817 13.4441 2.17955C14.1339 1.80409 14.9487 1.7517 15.6804 2.03893C16.412 2.32523 16.9754 2.91622 17.2263 3.66071L18.0273 6.79031C18.156 7.29398 17.8518 7.80639 17.3481 7.93461C17.2704 7.95483 17.1918 7.96402 17.1151 7.96402Z" fill="#E34061"/>
<path d="M19.7679 7.96438H14.4568C13.937 7.96438 13.5156 7.54297 13.5156 7.02321C13.5156 6.50345 13.937 6.08203 14.4568 6.08203H19.7679C20.2877 6.08203 20.7091 6.50345 20.7091 7.02321C20.7091 7.54297 20.2877 7.96438 19.7679 7.96438Z" fill="#E34061"/>
<path d="M35.3573 7.96425C34.9372 7.96471 34.5544 7.68162 34.446 7.25561L33.6647 4.19403C33.5848 3.96655 33.3605 3.84063 33.236 3.79146C33.111 3.74366 32.8605 3.68346 32.5871 3.83236C32.1307 4.08098 31.5586 3.91278 31.3104 3.45644C31.0613 3.00009 31.23 2.4284 31.6863 2.17978C32.3757 1.80386 33.1891 1.75193 33.9221 2.0387C34.6532 2.325 35.2171 2.916 35.468 3.66048L36.2695 6.79054C36.3982 7.29421 36.094 7.80662 35.5903 7.93484C35.5126 7.95506 35.434 7.96425 35.3573 7.96425Z" fill="#E34061"/>
<path d="M38.0184 7.96438H32.7068C32.187 7.96438 31.7656 7.54297 31.7656 7.02321C31.7656 6.50345 32.187 6.08203 32.7068 6.08203H38.0184C38.5381 6.08203 38.9596 6.50345 38.9596 7.02321C38.9596 7.54297 38.5381 7.96438 38.0184 7.96438Z" fill="#E34061"/>
<path d="M53.6073 7.96402C53.1872 7.96448 52.8044 7.68139 52.696 7.25538L51.9147 4.1938C51.8348 3.96632 51.611 3.8404 51.486 3.79122C51.3614 3.74343 51.1114 3.68323 50.8371 3.83213C50.3803 4.08075 49.809 3.91255 49.5604 3.45621C49.3113 2.99986 49.48 2.42817 49.9363 2.17955C50.6257 1.80409 51.4409 1.7517 52.1725 2.03893C52.9042 2.32523 53.4676 2.91622 53.7185 3.66071L54.5195 6.79031C54.6482 7.29398 54.344 7.80639 53.8403 7.93461C53.7626 7.95483 53.684 7.96402 53.6073 7.96402Z" fill="#E34061"/>
<path d="M56.2684 7.96438H50.9568C50.437 7.96438 50.0156 7.54297 50.0156 7.02321C50.0156 6.50345 50.437 6.08203 50.9568 6.08203H56.2684C56.7881 6.08203 57.2096 6.50345 57.2096 7.02321C57.2096 7.54297 56.7881 7.96438 56.2684 7.96438Z" fill="#E34061"/>
<path d="M60.5754 62.1402H3.44118C2.92142 62.1402 2.5 61.7188 2.5 61.199C2.5 60.6792 2.92142 60.2578 3.44118 60.2578H60.5754C61.0951 60.2578 61.5165 60.6792 61.5165 61.199C61.5165 61.7188 61.0951 62.1402 60.5754 62.1402Z" fill="#E34061"/>
<path d="M54.6985 21.189H34.4568C33.937 21.189 33.5156 20.7676 33.5156 20.2478C33.5156 19.7281 33.937 19.3066 34.4568 19.3066H54.6985C55.2183 19.3066 55.6397 19.7281 55.6397 20.2478C55.6397 20.7676 55.2183 21.189 54.6985 21.189Z" fill="#E34061"/>
<path d="M54.6985 14.6519H34.4568C33.937 14.6519 33.5156 14.2305 33.5156 13.7107C33.5156 13.1909 33.937 12.7695 34.4568 12.7695H54.6985C55.2183 12.7695 55.6397 13.1909 55.6397 13.7107C55.6397 14.2305 55.2183 14.6519 54.6985 14.6519Z" fill="#E34061"/>
<path d="M54.6985 28.0738H34.4568C33.937 28.0738 33.5156 27.6523 33.5156 27.1326C33.5156 26.6128 33.937 26.1914 34.4568 26.1914H54.6985C55.2183 26.1914 55.6397 26.6128 55.6397 27.1326C55.6397 27.6523 55.2183 28.0738 54.6985 28.0738Z" fill="#E34061"/>
<path d="M54.6985 34.9546H34.4568C33.937 34.9546 33.5156 34.5332 33.5156 34.0134C33.5156 33.4937 33.937 33.0723 34.4568 33.0723H54.6985C55.2183 33.0723 55.6397 33.4937 55.6397 34.0134C55.6397 34.5332 55.2183 34.9546 54.6985 34.9546Z" fill="#E34061"/>
<path d="M37.3718 62.137H26.6365C26.1167 62.137 25.6953 61.7155 25.6953 61.1958V55.5584C25.6953 55.0386 26.1167 54.6172 26.6365 54.6172H37.3718C37.8915 54.6172 38.313 55.0386 38.313 55.5584V61.1958C38.313 61.7155 37.8915 62.137 37.3718 62.137ZM27.5777 60.2546H36.4306V56.4995H27.5777V60.2546Z" fill="#E34061"/>
</svg>
