<svg width="44" height="44" viewBox="0 0 44 44" fill="none" xmlns="http://www.w3.org/2000/svg">
<path d="M22 0C17.6488 0 13.3953 1.29028 9.77746 3.70767C6.15958 6.12506 3.33979 9.56099 1.67466 13.581C0.0095322 17.6009 -0.426141 22.0244 0.422734 26.292C1.27161 30.5596 3.3669 34.4796 6.44366 37.5563C9.52041 40.6331 13.4404 42.7284 17.708 43.5773C21.9756 44.4261 26.3991 43.9905 30.419 42.3253C34.439 40.6602 37.8749 37.8404 40.2923 34.2225C42.7097 30.6047 44 26.3512 44 22C44 16.1652 41.6821 10.5694 37.5563 6.44365C33.4305 2.31785 27.8348 0 22 0ZM32.9566 15.3421C32.4366 16.1232 31.8012 16.8211 31.0721 17.4118C30.9802 17.4884 30.9065 17.5846 30.8564 17.6932C30.8064 17.8019 30.7812 17.9204 30.7826 18.04V18.1124C30.7741 19.6811 30.4859 21.2358 29.9316 22.7034C29.3604 24.2438 28.5117 25.6664 27.4276 26.9008C25.9709 28.5592 24.0968 29.7975 22 30.4874C20.6222 30.9345 19.1817 31.1583 17.7332 31.1503C15.4351 31.15 13.1781 30.5418 11.1911 29.3874C11.1199 29.3469 11.0638 29.2843 11.0314 29.209C10.999 29.1338 10.9921 29.0501 11.0116 28.9705C11.0316 28.8922 11.0773 28.8229 11.1413 28.7736C11.2053 28.7243 11.2839 28.6978 11.3647 28.6984H11.9147C13.6609 28.7015 15.3683 28.1834 16.8184 27.2105C15.9546 27.0695 15.1463 26.6931 14.4825 26.1226C13.8186 25.5522 13.3248 24.8099 13.0553 23.9771C13.0415 23.9354 13.039 23.8908 13.048 23.8478C13.0571 23.8048 13.0773 23.765 13.1067 23.7324C13.1361 23.6997 13.1736 23.6755 13.2154 23.662C13.2572 23.6486 13.3018 23.6464 13.3447 23.6558C13.6082 23.7053 13.8756 23.7305 14.1437 23.731H14.245C13.4099 23.3478 12.7037 22.7306 12.2121 21.9544C11.7204 21.1781 11.4643 20.2759 11.4747 19.3571C11.475 19.3141 11.4865 19.2719 11.5079 19.2347C11.5294 19.1974 11.5601 19.1663 11.5971 19.1445C11.6341 19.1226 11.6762 19.1107 11.7191 19.1099C11.7621 19.1091 11.8046 19.1195 11.8424 19.14C12.182 19.3296 12.5464 19.4709 12.925 19.5597C12.1773 18.8195 11.6963 17.852 11.5574 16.809C11.4186 15.766 11.6298 14.7064 12.1579 13.7963C12.1782 13.7615 12.2066 13.7322 12.2406 13.7108C12.2747 13.6894 12.3135 13.6766 12.3536 13.6734C12.3938 13.6703 12.4341 13.677 12.4711 13.6928C12.508 13.7087 12.5406 13.7333 12.5661 13.7645C13.6126 15.0576 14.9078 16.1278 16.375 16.9119C17.8422 17.696 19.4517 18.178 21.1084 18.3295H21.1316C21.1559 18.3288 21.1799 18.3231 21.202 18.3128C21.2241 18.3026 21.2438 18.2879 21.2601 18.2698C21.2763 18.2517 21.2887 18.2304 21.2965 18.2073C21.3043 18.1842 21.3072 18.1598 21.3053 18.1355C21.2408 17.5546 21.278 16.9668 21.4153 16.3987C21.602 15.6264 21.9854 14.9156 22.5282 14.3353C23.0709 13.755 23.7546 13.325 24.5126 13.0871C24.999 12.9352 25.5054 12.8571 26.015 12.8555C27.1704 12.8542 28.2864 13.2753 29.1529 14.0395C29.2652 14.1399 29.4104 14.1955 29.5611 14.1958C29.6099 14.1947 29.6585 14.1879 29.7058 14.1755C30.5195 13.9695 31.2993 13.6478 32.0216 13.2203C32.0648 13.1936 32.1151 13.181 32.1658 13.1841C32.2164 13.1872 32.2648 13.2058 32.3045 13.2375C32.3441 13.2692 32.3729 13.3124 32.3871 13.3611C32.4012 13.4099 32.3999 13.4618 32.3834 13.5097C32.1425 14.2675 31.7133 14.9518 31.1358 15.4984C31.6564 15.3757 32.1643 15.2042 32.6526 14.986C32.7005 14.9681 32.7528 14.9653 32.8023 14.9781C32.8519 14.9908 32.8963 15.0186 32.9295 15.0575C32.9627 15.0964 32.9831 15.1446 32.988 15.1955C32.9928 15.2464 32.9819 15.2976 32.9566 15.3421Z" fill="#2E1E5A"/>
</svg>
