<svg width="25" height="24" viewBox="0 0 25 24" fill="none" xmlns="http://www.w3.org/2000/svg">
<path fill-rule="evenodd" clip-rule="evenodd" d="M12.2059 3.05879C12.5957 3.05879 12.9118 2.74275 12.9118 2.35292V0.705876C12.9118 0.316044 12.5957 0 12.2059 0C11.816 0 11.5 0.316044 11.5 0.705876V2.35292C11.5 2.74275 11.816 3.05879 12.2059 3.05879ZM12.2108 5.79487C17.2511 5.79487 21.8693 8.89625 24.0506 11.5538L24.0718 11.5796C24.1749 11.7045 24.2974 11.8529 24.2975 12.0013C24.2975 12.15 24.1748 12.2987 24.0715 12.4239L24.0506 12.4493C21.964 14.9915 17.3655 18.2083 12.2108 18.2083C7.23311 18.2083 2.60412 15.1711 0.371101 12.4492C0.15755 12.189 0.15755 11.8141 0.371101 11.5538C2.53414 8.91733 7.1525 5.79487 12.2108 5.79487ZM12.2108 16.7965C14.8548 16.7965 17.0058 14.6455 17.0058 12.0015C17.0058 9.35789 14.855 7.20662 12.2108 7.20657C9.56682 7.20657 7.41583 9.35761 7.41583 12.0015C7.41583 14.6453 9.56678 16.7965 12.2108 16.7965ZM7.26962 8.25018C4.58047 9.39394 2.66482 11.176 1.87033 12.0017C3.32481 13.5162 5.22418 14.8853 7.26882 15.7519C5.58136 13.5336 5.58202 10.4677 7.26962 8.25018ZM17.1529 8.25122C18.8403 10.4695 18.8397 13.5354 17.1521 15.7529C19.8412 14.6091 21.7569 12.8271 22.5514 12.0013C21.0968 10.487 19.1974 9.1178 17.1529 8.25122ZM12.2125 14.4015C10.8891 14.4015 9.8125 13.3249 9.8125 12.0015C9.8125 10.6782 10.8891 9.60156 12.2125 9.60156C13.5358 9.60156 14.6125 10.6782 14.6125 12.0015C14.6125 13.3249 13.5358 14.4015 12.2125 14.4015ZM12.2125 12.9898C12.7574 12.9898 13.2007 12.5465 13.2007 12.0015C13.2007 11.4566 12.7574 11.0133 12.2125 11.0133C11.6675 11.0133 11.2243 11.4566 11.2243 12.0015C11.2243 12.5465 11.6675 12.9898 12.2125 12.9898ZM17.3816 3.73986C17.1884 4.07868 16.7572 4.19637 16.4188 4.00334C16.0801 3.81016 15.9622 3.37906 16.1553 3.04048L17.0947 1.39343C17.2879 1.05471 17.7189 0.936826 18.0576 1.12995C18.3963 1.32313 18.5141 1.75418 18.321 2.09282L17.3816 3.73986ZM7.03222 3.73985C7.22534 4.07848 7.6564 4.19641 7.99508 4.00328C8.33371 3.81015 8.45164 3.37905 8.25851 3.04042L7.31913 1.39338C7.126 1.05475 6.69485 0.936818 6.35627 1.12995C6.01764 1.32307 5.89971 1.75417 6.09284 2.09281L7.03222 3.73985ZM11.5 21.6473C11.5 21.2575 11.816 20.9414 12.2059 20.9414C12.5957 20.9414 12.9118 21.2575 12.9118 21.6473V23.2943C12.9118 23.6842 12.5957 24.0002 12.2059 24.0002C11.816 24.0002 11.5 23.6842 11.5 23.2943V21.6473ZM7.99508 19.9971C7.65644 19.804 7.22539 19.9219 7.03222 20.2605L6.09284 21.9076C5.89971 22.2462 6.01764 22.6773 6.35627 22.8704C6.69495 23.0636 7.126 22.9456 7.31913 22.607L8.25851 20.96C8.45168 20.6213 8.33371 20.1902 7.99508 19.9971ZM16.4188 19.9971C16.7573 19.8041 17.1885 19.9219 17.3816 20.2606L18.321 21.9076C18.5141 22.2462 18.3962 22.6773 18.0576 22.8705C17.7189 23.0636 17.2878 22.9456 17.0947 22.607L16.1553 20.96C15.9622 20.6213 16.0801 20.1902 16.4188 19.9971Z" fill="#37474F"/>
</svg>
