<svg width="75" height="75" viewBox="0 0 75 75" fill="none" xmlns="http://www.w3.org/2000/svg">
<circle cx="37.3594" cy="37.3486" r="37" fill="#1D0D47"/>
<path d="M53.6595 42.9066L38.9392 30.752C38.2881 30.2135 37.4948 29.8755 36.6554 29.779C35.816 29.6824 34.9666 29.8315 34.2103 30.208C33.4539 30.5846 32.823 31.1725 32.3942 31.9005C31.9653 32.6285 31.7568 33.4652 31.7941 34.3093L32.7169 53.3232C32.7511 54.1424 33.0398 54.9305 33.5429 55.5779C34.046 56.2253 34.7384 56.6998 35.5238 56.9353C35.9138 57.0569 36.32 57.1191 36.7285 57.1199C37.344 57.1191 37.9509 56.9749 38.5008 56.6985C39.0508 56.4221 39.5286 56.0212 39.8965 55.5278L43.0827 51.3112C43.4041 50.8886 43.8188 50.5459 44.2944 50.3098C44.77 50.0738 45.2938 49.9507 45.8247 49.9504H51.1121C51.9331 49.9531 52.7348 49.702 53.4075 49.2314C54.0801 48.7609 54.5909 48.0939 54.8698 47.3217C55.1487 46.5496 55.1821 45.7102 54.9655 44.9184C54.7488 44.1265 54.2926 43.421 53.6595 42.8985V42.9066ZM52.0106 46.2896C51.9482 46.4768 51.8271 46.639 51.6653 46.7519C51.5034 46.8648 51.3094 46.9224 51.1121 46.9163H45.8247C44.8235 46.9182 43.8361 47.151 42.9395 47.5967C42.0428 48.0424 41.2611 48.6889 40.655 49.4859L37.4688 53.7024C37.3532 53.8634 37.1887 53.9829 36.9999 54.0432C36.811 54.1035 36.6078 54.1013 36.4203 54.0371C36.2325 53.9849 36.0664 53.8738 35.9466 53.72C35.8268 53.5663 35.7597 53.3781 35.755 53.1832L34.8322 34.1694C34.8178 33.9153 34.8789 33.6627 35.0077 33.4433C35.1366 33.2239 35.3274 33.0475 35.5563 32.9363C35.7865 32.8179 36.0465 32.7701 36.3038 32.799C36.5611 32.8279 36.8041 32.9321 37.0023 33.0985L51.7226 45.2613C51.8743 45.3793 51.9841 45.5429 52.0359 45.728C52.0878 45.9131 52.0789 46.1099 52.0106 46.2896ZM31.788 23.1545V19.0983C31.788 18.6948 31.9482 18.3079 32.2335 18.0227C32.5188 17.7374 32.9057 17.5771 33.3091 17.5771C33.7125 17.5771 34.0994 17.7374 34.3847 18.0227C34.6699 18.3079 34.8302 18.6948 34.8302 19.0983V23.1545C34.8302 23.558 34.6699 23.9449 34.3847 24.2301C34.0994 24.5154 33.7125 24.6756 33.3091 24.6756C32.9057 24.6756 32.5188 24.5154 32.2335 24.2301C31.9482 23.9449 31.788 23.558 31.788 23.1545ZM28.0461 27.2595C27.9141 27.4964 27.7211 27.6935 27.4871 27.8305C27.2531 27.9675 26.9867 28.0392 26.7156 28.0383C26.4561 28.0358 26.2017 27.9659 25.9773 27.8355L21.9211 25.5721C21.7422 25.4773 21.584 25.3477 21.4558 25.191C21.3277 25.0343 21.2321 24.8536 21.1747 24.6594C21.1172 24.4653 21.0992 24.2616 21.1215 24.0604C21.1438 23.8592 21.206 23.6645 21.3046 23.4876C21.4031 23.3108 21.536 23.1554 21.6954 23.0305C21.8548 22.9057 22.0375 22.8139 22.2328 22.7606C22.4281 22.7073 22.6321 22.6935 22.8328 22.7201C23.0335 22.7466 23.2269 22.813 23.4016 22.9152L27.4579 25.1827C27.6334 25.2799 27.7879 25.4109 27.9125 25.5681C28.0372 25.7253 28.1295 25.9057 28.1842 26.0987C28.2388 26.2917 28.2548 26.4937 28.2311 26.6929C28.2074 26.8921 28.1445 27.0847 28.0461 27.2595ZM26.5574 32.6158C26.7376 32.9768 26.767 33.3945 26.6392 33.7771C26.5114 34.1597 26.2369 34.4759 25.8759 34.6561L21.8197 36.6843C21.6089 36.7903 21.3761 36.8452 21.1402 36.8445C20.7973 36.8449 20.4643 36.7295 20.1953 36.5169C19.9262 36.3044 19.7369 36.0071 19.658 35.6734C19.5791 35.3397 19.6153 34.9892 19.7606 34.6786C19.906 34.368 20.152 34.1157 20.4588 33.9625L24.5151 31.9344C24.6939 31.8448 24.8886 31.7914 25.088 31.7772C25.2875 31.763 25.4878 31.7883 25.6775 31.8516C25.8672 31.9149 26.0426 32.015 26.1936 32.1461C26.3445 32.2772 26.4682 32.4369 26.5574 32.6158ZM40.0608 25.8621C39.8806 25.5012 39.8512 25.0835 39.979 24.7008C40.1067 24.3182 40.3813 24.002 40.7422 23.8218L44.7985 21.7937C45.159 21.6172 45.5746 21.5903 45.9548 21.7189C46.335 21.8476 46.649 22.1213 46.8283 22.4804C47.0076 22.8395 47.0377 23.2549 46.912 23.6361C46.7863 24.0173 46.5151 24.3334 46.1574 24.5154L42.1011 26.5436C41.8903 26.6496 41.6576 26.7045 41.4217 26.7038C41.1391 26.7033 40.8623 26.6244 40.622 26.4758C40.3817 26.3271 40.1874 26.1147 40.0608 25.8621Z" fill="white"/>
</svg>
