<svg width="44" height="44" viewBox="0 0 44 44" fill="none" xmlns="http://www.w3.org/2000/svg">
<path d="M26.3385 23.2267C26.1944 23.0751 26.0135 22.9633 25.8133 22.9025C25.6131 22.8416 25.4006 22.8337 25.1965 22.8795C24.9924 22.9253 24.8036 23.0232 24.6486 23.1637C24.4936 23.3042 24.3777 23.4825 24.3122 23.6812C24.2087 23.9616 24.0071 24.195 23.7447 24.3382C23.4823 24.4813 23.1769 24.5246 22.8851 24.4599C21.5853 24.1357 19.834 22.4336 19.5098 21.0875C19.4306 20.7947 19.4673 20.4827 19.6124 20.2163C19.7574 19.95 19.9996 19.7498 20.2885 19.6575C20.4836 19.5919 20.6586 19.4775 20.797 19.3252C20.9354 19.1729 21.0325 18.9877 21.0792 18.7873C21.1259 18.5869 21.1206 18.3779 21.0638 18.1801C21.007 17.9823 20.9005 17.8023 20.7546 17.6572L18.9367 15.8394C18.6979 15.6199 18.3854 15.498 18.061 15.498C17.7367 15.498 17.4241 15.6199 17.1853 15.8394L15.9522 17.0783C14.719 18.3751 16.0825 21.8141 19.1364 24.8651C22.1903 27.9162 25.6235 29.3404 26.9203 28.0494L28.1535 26.8162C28.3689 26.5783 28.4882 26.2687 28.4882 25.9478C28.4882 25.6268 28.3689 25.3173 28.1535 25.0794L26.3385 23.2267Z" fill="#2E1E5A"/>
<path d="M22 0C17.6488 0 13.3953 1.29028 9.77746 3.70767C6.15958 6.12506 3.33979 9.56099 1.67466 13.581C0.0095322 17.6009 -0.426141 22.0244 0.422734 26.292C1.27161 30.5596 3.3669 34.4796 6.44366 37.5563C9.52041 40.6331 13.4404 42.7284 17.708 43.5773C21.9756 44.4261 26.3991 43.9905 30.419 42.3253C34.439 40.6602 37.8749 37.8404 40.2923 34.2225C42.7097 30.6047 44 26.3512 44 22C44 16.1652 41.6821 10.5694 37.5563 6.44365C33.4305 2.31785 27.8348 0 22 0ZM22 33.5789C19.7349 33.5832 17.5192 32.9174 15.6316 31.6655L11.1824 33.0897L12.6297 28.7882C11.3795 27.0604 10.6306 25.0209 10.4659 22.8946C10.3011 20.7683 10.7268 18.6378 11.6959 16.738C12.6651 14.8383 14.1402 13.2431 15.9584 12.1284C17.7766 11.0138 19.8673 10.4229 22 10.4211C25.0709 10.4211 28.0161 11.641 30.1876 13.8124C32.359 15.9839 33.5789 18.9291 33.5789 22C33.5789 25.0709 32.359 28.0161 30.1876 30.1875C28.0161 32.359 25.0709 33.5789 22 33.5789Z" fill="#2E1E5A"/>
</svg>
