<svg width="23" height="22" viewBox="0 0 23 22" fill="none" xmlns="http://www.w3.org/2000/svg">
<path d="M6.08594 20.2708H18.9193C19.6486 20.2708 20.3481 19.9811 20.8638 19.4654C21.3795 18.9496 21.6693 18.2501 21.6693 17.5208V8.35417C21.6693 7.62482 21.3795 6.92535 20.8638 6.40962C20.3481 5.8939 19.6486 5.60417 18.9193 5.60417H17.0859V3.77083C17.0859 3.28461 16.8928 2.81829 16.549 2.47447C16.2051 2.13065 15.7388 1.9375 15.2526 1.9375H9.7526C9.26638 1.9375 8.80006 2.13065 8.45624 2.47447C8.11242 2.81829 7.91927 3.28461 7.91927 3.77083V5.60417H6.08594C5.35659 5.60417 4.65712 5.8939 4.14139 6.40962C3.62567 6.92535 3.33594 7.62482 3.33594 8.35417V17.5208C3.33594 18.2501 3.62567 18.9496 4.14139 19.4654C4.65712 19.9811 5.35659 20.2708 6.08594 20.2708ZM9.7526 3.77083H15.2526V5.60417H9.7526V3.77083ZM5.16927 8.35417C5.16927 8.11105 5.26585 7.87789 5.43775 7.70598C5.60966 7.53408 5.84282 7.4375 6.08594 7.4375H18.9193C19.1624 7.4375 19.3956 7.53408 19.5674 7.70598C19.7393 7.87789 19.8359 8.11105 19.8359 8.35417V17.5208C19.8359 17.7639 19.7393 17.9971 19.5674 18.169C19.3956 18.3409 19.1624 18.4375 18.9193 18.4375H6.08594C5.84282 18.4375 5.60966 18.3409 5.43775 18.169C5.26585 17.9971 5.16927 17.7639 5.16927 17.5208V8.35417Z" fill="#78909C"/>
</svg>
