<svg width="100" height="100" viewBox="0 0 100 100" fill="none" xmlns="http://www.w3.org/2000/svg">
<circle cx="50" cy="50" r="50" fill="#E8F6F5"/>
<path d="M31.0474 55.3038C31.4201 55.3983 31.794 55.4444 32.1633 55.4444C33.3867 55.4444 34.5546 54.9339 35.4246 53.9867L38.413 50.7313C38.6259 50.4997 38.8978 50.3338 39.1991 50.2508L44.2334 48.8784C45.3934 48.5615 46.3642 47.8055 46.9646 46.7465C47.565 45.6887 47.7247 44.4557 47.4143 43.2745L45.1815 34.7956C44.87 33.6156 44.1269 32.628 43.0858 32.0173C42.0459 31.4065 40.8338 31.244 39.6727 31.5598L27.8982 34.7691C26.7382 35.086 25.7674 35.8419 25.167 36.9009C24.5666 37.9588 24.4069 39.1918 24.7173 40.3729L27.7475 51.8791L27.7917 52.0473C28.2211 53.6767 29.4377 54.8936 31.0463 55.3015L31.0474 55.3038ZM27.453 39.6297C27.3375 39.1929 27.3964 38.7354 27.6195 38.3436C27.8427 37.9518 28.2007 37.6718 28.6311 37.5543L40.4056 34.345C40.5495 34.3058 40.6945 34.2862 40.8395 34.2862C41.1283 34.2862 41.4127 34.3634 41.6698 34.5144C42.055 34.7403 42.3302 35.1056 42.4458 35.5434L44.6786 44.0224C44.7941 44.4591 44.7352 44.9166 44.512 45.3084C44.2889 45.7002 43.9309 45.9802 43.5004 46.0978L38.4651 47.4702C37.6517 47.6926 36.9165 48.1409 36.3422 48.7666L33.3538 52.022C32.9347 52.4783 32.3286 52.6604 31.7328 52.5094C31.1369 52.3584 30.6861 51.9079 30.5275 51.3052L27.4519 39.6308L27.453 39.6297Z" fill="#00968A"/>
<path d="M31.7206 41.9884L39.9108 39.7563C40.6664 39.55 41.115 38.7607 40.9122 37.9921C40.7094 37.2235 39.9335 36.7671 39.1779 36.9734L30.9876 39.2055C30.232 39.4118 29.7835 40.2011 29.9862 40.9697C30.1562 41.6127 30.7282 42.0379 31.3535 42.0379C31.4747 42.0379 31.5982 42.0218 31.7206 41.9884Z" fill="#00968A"/>
<path d="M37.312 42.1273L32.1283 43.5401C31.3727 43.7463 30.9241 44.5357 31.1269 45.3043C31.2968 45.9473 31.8688 46.3725 32.4942 46.3725C32.6154 46.3725 32.7388 46.3564 32.8612 46.323L38.0449 44.9102C38.8005 44.7039 39.2491 43.9146 39.0463 43.146C38.8436 42.3774 38.0676 41.9222 37.312 42.1273Z" fill="#00968A"/>
<path d="M74.8856 52.0613C74.2852 51.0035 73.3155 50.2464 72.1544 49.9295L60.3799 46.7202C59.2199 46.4045 58.0078 46.5658 56.9667 47.1777C55.9268 47.7884 55.1826 48.7748 54.871 49.956L52.6383 58.4349C51.996 60.8721 53.4233 63.3854 55.8192 64.0388L60.8534 65.4112C61.1548 65.493 61.4266 65.659 61.6396 65.8917L64.628 69.1471C65.498 70.0943 66.6648 70.6048 67.8893 70.6048C68.2586 70.6048 68.6324 70.5587 69.0051 70.4642C70.6137 70.0552 71.8304 68.8383 72.2608 67.2089L75.3353 55.5356C75.6468 54.3556 75.4871 53.1226 74.8856 52.0636V52.0613ZM72.5996 54.7878L69.5682 66.2951L69.524 66.461C69.3654 67.0648 68.9145 67.5154 68.3187 67.6664C67.7239 67.8173 67.1167 67.6352 66.6976 67.1789L63.7092 63.9235C63.1338 63.2967 62.3997 62.8484 61.5864 62.6272L56.5521 61.2547C56.1228 61.1372 55.7637 60.8572 55.5405 60.4654C55.3174 60.0736 55.2585 59.6172 55.374 59.1793L57.6068 50.7004C57.7223 50.2637 57.9976 49.8984 58.3828 49.6714C58.6399 49.5204 58.9242 49.4432 59.2131 49.4432C59.3581 49.4432 59.5031 49.4628 59.647 49.502L71.4214 52.7112C71.8508 52.8288 72.2099 53.1088 72.433 53.5006C72.6562 53.8924 72.7151 54.3487 72.5996 54.7866V54.7878Z" fill="#00968A"/>
<path d="M69.0592 54.3633L60.869 52.1312C60.1134 51.9261 59.3374 52.3813 59.1347 53.1499C58.9319 53.9185 59.3805 54.7078 60.1361 54.9141L68.3263 57.1462C68.4487 57.1796 68.5721 57.1958 68.6933 57.1958C69.3187 57.1958 69.8907 56.7717 70.0606 56.1275C70.2634 55.3589 69.8148 54.5696 69.0592 54.3633Z" fill="#00968A"/>
<path d="M67.9199 58.6963L62.7362 57.2836C61.9806 57.0784 61.2046 57.5336 61.0019 58.3022C60.7991 59.0708 61.2477 59.8602 62.0033 60.0665L67.187 61.4792C67.3094 61.5127 67.4328 61.5288 67.554 61.5288C68.1794 61.5288 68.7514 61.1047 68.9213 60.4606C69.1241 59.6919 68.6755 58.9026 67.9199 58.6963Z" fill="#00968A"/>
<path d="M57.0944 43.7795C57.4387 43.7795 57.7854 43.7265 58.123 43.617C59.7882 43.0766 62.2532 42.1524 64.5369 40.8272C67.6046 39.0457 69.4534 37.0337 70.0288 34.8477C70.8263 31.8216 69.6742 28.791 67.1628 27.3045C65.0898 26.0772 62.6146 26.1832 60.4701 27.4934C59.2603 25.2752 57.1771 23.9258 54.7891 23.9258C54.7823 23.9258 54.7744 23.9258 54.7676 23.9258C51.8619 23.9362 49.3743 25.9758 48.5768 29.0007C47.3476 33.6665 51.8087 39.5562 54.5773 42.6514C55.2309 43.382 56.153 43.7807 57.0955 43.7807L57.0944 43.7795ZM51.3114 29.7451C51.7803 27.9647 53.1397 26.8112 54.7755 26.8055H54.788C56.8531 26.8055 58.0595 28.5409 58.4991 30.1692C58.6327 30.6624 59.0122 31.0461 59.4982 31.1786C59.9842 31.3112 60.5019 31.1717 60.8587 30.8122C62.0425 29.6241 63.9456 28.7334 65.7366 29.7935C67.1503 30.6301 67.7609 32.3218 67.2919 34.1021C66.5454 36.9346 61.6211 39.4571 57.2609 40.8733C57.0502 40.9413 56.818 40.8779 56.6696 40.712C53.5894 37.2676 50.5637 32.5787 51.3102 29.7451H51.3114Z" fill="#00968A"/>
<path d="M43.5425 56.7277C43.5345 56.7277 43.5277 56.7277 43.5209 56.7277C41.133 56.7277 39.0497 58.0771 37.8399 60.2954C35.6955 58.9863 33.2192 58.8803 31.1472 60.1064C28.6358 61.5929 27.4837 64.6247 28.2812 67.6496C29.5103 72.3143 36.2687 75.1468 40.1871 76.419C40.5247 76.5284 40.8724 76.5814 41.2168 76.5814C42.1593 76.5814 43.0814 76.1827 43.735 75.4521C44.912 74.1362 46.5931 72.0838 47.9185 69.7734C49.7004 66.6701 50.311 63.9875 49.7356 61.8015C48.9381 58.7766 46.4504 56.7369 43.5447 56.7266L43.5425 56.7277ZM41.6382 73.5151C41.4898 73.681 41.2576 73.7444 41.0469 73.6764C36.6867 72.2602 31.7612 69.7377 31.0158 66.9052C30.5468 65.1248 31.1574 63.4344 32.5712 62.5966C33.1331 62.2647 33.7051 62.1241 34.2625 62.1241C35.4848 62.1241 36.6368 62.7994 37.4491 63.6153C37.807 63.9737 38.3247 64.1131 38.8096 63.9817C39.2944 63.8492 39.675 63.4655 39.8087 62.9723C40.2494 61.3452 41.4547 59.6086 43.5198 59.6086H43.5323C45.1681 59.6143 46.5274 60.7678 46.9964 62.5482C47.7429 65.3807 44.7172 70.0707 41.6371 73.5151H41.6382Z" fill="#00968A"/>
</svg>
