<svg width="101" height="101" viewBox="0 0 101 101" fill="none" xmlns="http://www.w3.org/2000/svg">
<circle cx="50.9766" cy="50.4727" r="50" fill="#E8F6F5"/>
<g clip-path="url(#clip0_0_5)">
<path d="M33.8093 64.841V64.4766C33.7929 64.5997 33.7926 64.7222 33.8093 64.841Z" fill="#00968A"/>
<path d="M43.4133 61.763L57.3142 65.4878C58.0331 65.6804 58.7721 65.2538 58.9647 64.5349C59.1573 63.8159 58.7307 63.0767 58.0117 62.8844L44.1108 59.1596C43.392 58.9667 42.6529 59.3936 42.4603 60.1126C42.2677 60.8313 42.6944 61.5704 43.4133 61.763Z" fill="#00968A"/>
<path d="M72.9774 34.991L45.0912 27.5189C44.3722 27.3263 43.6333 27.7529 43.4406 28.4718L42.045 33.6803H29.3242C28.58 33.6803 27.9766 34.2837 27.9766 35.028V72.125C27.9766 72.8692 28.58 73.4726 29.3242 73.4726H58.194C58.7837 73.4726 59.2837 73.0932 59.4664 72.5657L62.6785 73.4264C63.3975 73.619 64.1364 73.1924 64.329 72.4735L73.9302 36.6415C74.1229 35.9226 73.6963 35.1837 72.9774 34.991ZM30.6719 36.3757H41.3229L35.4697 58.2197H30.6719V36.3757ZM30.6719 70.7773V60.915H34.7475L33.8394 64.3037C33.6468 65.0226 34.0734 65.7616 34.7924 65.9542L52.7922 70.7773H30.6719ZM62.0744 70.4741L36.7919 63.6995L39.3443 54.1733L64.6269 60.9479L62.0744 70.4741ZM54.6009 47.8004C58.8297 48.9335 61.5018 52.9757 61.0417 57.1968L44.3249 52.7175C46.037 48.8319 50.3722 46.6673 54.6009 47.8004ZM53.1893 41.5444C53.6156 39.9533 55.2511 39.009 56.8423 39.4353C60.6219 40.5995 59.1524 46.0793 55.2983 45.1974C53.7073 44.7711 52.763 43.1355 53.1893 41.5444ZM65.3245 58.3445L63.6687 57.9008C64.2863 53.6748 62.4817 49.5337 59.1741 47.0702C63.2418 44.481 62.2631 38.0534 57.5399 36.832C52.8171 35.545 48.7884 40.5807 51.0057 44.8815C46.9094 45.3612 43.2761 48.0452 41.6979 52.0137L40.0419 51.57L45.6955 30.4713L70.978 37.2458L65.3245 58.3445Z" fill="#00968A"/>
</g>
<defs>
<clipPath id="clip0_0_5">
<rect width="46" height="46" fill="white" transform="translate(27.9766 27.4727)"/>
</clipPath>
</defs>
</svg>
