<svg width="49" height="49" viewBox="0 0 49 49" fill="none" xmlns="http://www.w3.org/2000/svg">
<circle cx="24.0312" cy="24.7695" r="24" fill="#ECEFF1"/>
<g clip-path="url(#clip0_235_5818)">
<path d="M35.1742 28.0388C35.7803 27.8042 36.1875 27.2069 36.1875 26.5525V23.5251C36.1875 22.6277 35.4575 21.8977 34.5601 21.8977H34.3939C34.8866 21.2599 34.8411 20.3378 34.2565 19.7531L32.1157 17.6123C31.6531 17.1497 30.9428 17.0153 30.3483 17.2779C30.029 17.4189 29.6485 17.3477 29.4016 17.1008C29.1547 16.8539 29.0835 16.4734 29.2244 16.1541C29.4871 15.5596 29.3527 14.8493 28.8899 14.3866L26.7492 12.2459C26.1148 11.6115 25.0823 11.6114 24.4478 12.2459L14.796 21.8977H13.8149C12.9175 21.8977 12.1875 22.6277 12.1875 23.5251V26.5525C12.1875 27.2069 12.5947 27.8042 13.2008 28.0388C13.5263 28.1649 13.745 28.4842 13.745 28.8334C13.745 29.1827 13.5263 29.502 13.2008 29.6281C12.5947 29.8628 12.1875 30.4602 12.1875 31.1144V34.1419C12.1875 35.0392 12.9175 35.7692 13.8149 35.7692H34.5601C35.4575 35.7692 36.1875 35.0392 36.1875 34.1419V31.1144C36.1875 30.4602 35.7803 29.8628 35.1743 29.6281C34.8487 29.502 34.63 29.1827 34.63 28.8334C34.63 28.4842 34.8487 28.1649 35.1742 28.0388ZM25.446 13.2442C25.5301 13.1601 25.6669 13.1601 25.751 13.2442L27.8917 15.3849C27.9453 15.4385 27.9619 15.5184 27.933 15.5837C27.5583 16.4323 27.7473 17.4431 28.4033 18.0991C29.0593 18.7551 30.0701 18.944 30.9187 18.5693C30.984 18.5405 31.0639 18.5571 31.1175 18.6107L33.2582 20.7514C33.3423 20.8355 33.3423 20.9723 33.2582 21.0563L32.4168 21.8977H28.7386L22.7656 15.9246L25.446 13.2442ZM21.7673 16.9229L26.7421 21.8977H16.7925L21.7673 16.9229ZM13.5993 34.1419V31.1144C13.5993 31.0386 13.644 30.9704 13.7106 30.9446C14.5756 30.6096 15.1567 29.7612 15.1567 28.8334C15.1567 27.9057 14.5755 27.0573 13.7105 26.7223C13.644 26.6965 13.5993 26.6283 13.5993 26.5525V23.5251C13.5993 23.4062 13.696 23.3094 13.8149 23.3094H29.8346V34.3575H13.8149C13.696 34.3575 13.5993 34.2608 13.5993 34.1419ZM34.7757 26.5525C34.7757 26.6283 34.731 26.6965 34.6644 26.7223C33.7995 27.0573 33.2182 27.9057 33.2182 28.8335C33.2182 29.7612 33.7994 30.6096 34.6644 30.9446C34.731 30.9704 34.7757 31.0387 34.7757 31.1144V34.1419C34.7757 34.2607 34.679 34.3575 34.5601 34.3575H31.2463V23.3094H34.5601C34.679 23.3094 34.7757 23.4062 34.7757 23.5251V26.5525Z" fill="#37474F"/>
<path d="M17.125 25.1809H27.7132V26.5927H17.125V25.1809Z" fill="#37474F"/>
<path d="M17.125 28.0044H27.7132V29.4162H17.125V28.0044Z" fill="#37474F"/>
<path d="M17.125 30.8279H27.7132V32.2396H17.125V30.8279Z" fill="#37474F"/>
</g>
<defs>
<clipPath id="clip0_235_5818">
<rect width="24" height="24" fill="white" transform="translate(12.1875 11.7695)"/>
</clipPath>
</defs>
</svg>
